<svg xmlns="http://www.w3.org/2000/svg" xmlns:xlink="http://www.w3.org/1999/xlink" id="body_8" preserveAspectRatio="xMinYMin meet" viewBox="0 0 1587 1121"><defs><clipPath id="1"><path d="M0 841L0 -0.8900146L0 -0.8900146L1190.55 -0.8900146L1190.55 -0.8900146L1190.55 841L1190.55 841L0 841z" /></clipPath><clipPath id="2"><path d="M591.659 841L1190.551 841L1190.551 841L1190.551 -0.8900146L1190.551 -0.8900146L591.659 -0.8900146z" /></clipPath><clipPath id="3"><path d="M0 841L591.659 841L591.659 841L591.659 -0.8900146L591.659 -0.8900146L0 -0.8900146z" /></clipPath></defs><g transform="matrix(1.333333 0 0 1.333333 0 0)"><g><g clip-path="url(#1)"><g clip-path="url(#2)"><g transform="matrix(0.7491633 0 0 0.7493574 591.6588 -0.8898315)"><g transform="matrix(1 0 0 1 0 0)"><image x="0" y="0" xlink:href="img_29.png" width="801" height="1125" /></g></g></g><g clip-path="url(#3)"><g transform="matrix(0.7496954 0 0 0.749925 -1.071652 -0.8897705)"><g transform="matrix(1 0 0 1 0 0)"><image x="0" y="0" xlink:href="img_30.png" width="792" height="1124" /></g></g></g></g></g></g></svg>