<svg xmlns="http://www.w3.org/2000/svg" xmlns:xlink="http://www.w3.org/1999/xlink" id="body_2" preserveAspectRatio="xMinYMin meet" viewBox="0 0 1587 1121"><defs><clipPath id="1"><path d="M0 841L0 -0.8900146L0 -0.8900146L1190.55 -0.8900146L1190.55 -0.8900146L1190.55 841L1190.55 841L0 841z" /></clipPath><clipPath id="2"><path d="M0 19.79797L595.276 19.79797L595.276 19.79797L595.276 814.071L595.276 814.071L0 814.071z" /></clipPath><clipPath id="3"><path d="M589.013 814.139L1190.551 814.139L1190.551 814.139L1190.551 19.797L1190.551 19.797L589.013 19.797z" /></clipPath></defs><g transform="matrix(1.333333 0 0 1.333333 0 0)"><g><g clip-path="url(#1)"><g clip-path="url(#2)"><g transform="matrix(1.002147 0 0 0.9928421 -3.54E-05 19.79718)"><g transform="matrix(1 0 0 1 0 0)"><image x="0" y="0" xlink:href="img_03.png" width="594" height="800" /></g></g></g><g clip-path="url(#3)"><g transform="matrix(0.7498217 0 0 0.7497926 587.979 19.79724)"><g transform="matrix(1 0 0 1 0 0)"><image x="0" y="0" xlink:href="img_04.png" width="805" height="1061" /></g></g></g><path transform="matrix(1 0 0 -1 0 841)" d="M44.551 785.338L56.551 785.338L56.551 785.338L56.551 819.354L56.551 819.354L44.551 819.354z" stroke="#67C9D3" stroke-width="0.283" fill="#2955A6" fill-rule="winding" /></g></g></g></svg>