<svg xmlns="http://www.w3.org/2000/svg" xmlns:xlink="http://www.w3.org/1999/xlink" id="body_3" preserveAspectRatio="xMinYMin meet" viewBox="0 0 1587 1121"><defs><clipPath id="1"><path d="M0 841L0 -0.8900146L0 -0.8900146L1190.55 -0.8900146L1190.55 -0.8900146L1190.55 841L1190.55 841L0 841z" /></clipPath></defs><g transform="matrix(1.333333 0 0 1.333333 0 0)"><g><g clip-path="url(#1)"><path transform="matrix(1 0 0 -1 0 841)" d="M687.307 688.677L699.307 688.677L699.307 688.677L699.307 722.693L699.307 722.693L687.307 722.693z" stroke="#67C9D3" stroke-width="0.283" fill="#2955A5" fill-rule="winding" /><path transform="matrix(1 0 0 -1 0 841)" d="M687.59 600.803L699.59 600.803L699.59 600.803L699.59 634.819L699.59 634.819L687.59 634.819z" stroke="#FFFFFE" stroke-width="0.283" fill="#D4A7CE" fill-rule="winding" /><path transform="matrix(1 0 0 -1 0 841)" d="M687.307 532.771L699.307 532.771L699.307 532.771L699.307 566.787L699.307 566.787L687.307 566.787z" stroke="#FFFFFE" stroke-width="0.283" fill="#61C3A7" fill-rule="winding" /><path transform="matrix(1 0 0 -1 0 841)" d="M687.59 456.236L699.59 456.236L699.59 456.236L699.59 490.252L699.59 490.252L687.59 490.252z" stroke="#FFFFFE" stroke-width="0.283" fill="#65C8CE" fill-rule="winding" /><path transform="matrix(1 0 0 -1 0 841)" d="M687.307 251.433L699.307 251.433L699.307 251.433L699.307 285.449L699.307 285.449L687.307 285.449z" stroke="#FFFFFE" stroke-width="0.283" fill="#A456A2" fill-rule="winding" /><path transform="matrix(1 0 0 -1 0 841)" d="M687.59 176.74L699.59 176.74L699.59 176.74L699.59 210.756L699.59 210.756L687.59 210.756z" stroke="#FFFEF5" stroke-width="0.283" fill="#F4CF56" fill-rule="winding" /><path transform="matrix(1 0 0 -1 0 841)" d="M687.59 102.047L699.59 102.047L699.59 102.047L699.59 136.063L699.59 136.063L687.59 136.063z" stroke="#FFFFFE" stroke-width="0.283" fill="#EE2D2E" fill-rule="winding" /><path transform="matrix(1 0 0 -1 0 841)" d="M689.09 383.327L698.09 383.327L698.09 383.327L698.09 414.343L698.09 414.343L689.09 414.343z" stroke="#EFD74B" stroke-width="6" fill="#EFD746" fill-rule="winding" /><path transform="matrix(1 0 0 -1 0 841)" d="M41.102 251.575L307.086 251.575L307.086 251.575L307.086 741.059L307.086 741.059L41.102 741.059z" stroke="none" fill="#BAD2ED" fill-rule="winding" /><path transform="matrix(1 0 0 -1 0 841)" d="M176.598 759.413L418.677 759.413L418.677 759.413L418.677 790.027L418.677 790.027L176.598 790.027z" stroke="none" fill="#BAD1ED" fill-rule="winding" /><path transform="matrix(1 0 0 -1 0 841)" d="M326.74 251.291L584.22 251.291L584.22 251.291L584.22 740.775L584.22 740.775L326.74 740.775z" stroke="none" fill="#BAD1ED" fill-rule="winding" /><path transform="matrix(1 0 0 -1 0 841)" d="M37.606 50.315L307.086 50.315L307.086 50.315L307.086 244.488L307.086 244.488L37.606 244.488z" stroke="none" fill="#FFFCE2" fill-rule="winding" /><path transform="matrix(1 0 0 -1 0 841)" d="M307.087 251.575L326.741 251.575L326.741 251.575L326.741 741.059L326.741 741.059L307.087 741.059z" stroke="none" fill="#BAD1ED" fill-rule="winding" /><path transform="matrix(1 0 0 -1 0 841)" d="M320.74 50.315L590.22 50.315L590.22 50.315L590.22 244.488L590.22 244.488L320.74 244.488z" stroke="none" fill="#FFFCE2" fill-rule="winding" /></g></g></g></svg>