<svg xmlns="http://www.w3.org/2000/svg" xmlns:xlink="http://www.w3.org/1999/xlink" id="body_11" preserveAspectRatio="xMinYMin meet" viewBox="0 0 1587 1121"><defs><clipPath id="1"><path d="M0 841L0 -0.8900146L0 -0.8900146L1190.55 -0.8900146L1190.55 -0.8900146L1190.55 841L1190.55 841L0 841z" /></clipPath></defs><g transform="matrix(1.333333 0 0 1.333333 0 0)"><g><g clip-path="url(#1)"><path transform="matrix(1 0 0 -1 0 841)" d="M490.394 722.201L546.142 722.201L546.142 722.201L546.142 692.437L546.142 692.437L490.394 692.437zM369.213 722.201L490.394 722.201L490.394 722.201L490.394 692.437L490.394 692.437L369.213 692.437zM307.559 722.201L369.213 722.201L369.213 722.201L369.213 692.437L369.213 692.437L307.559 692.437zM89.764 722.201L307.559 722.201L307.559 722.201L307.559 692.437L307.559 692.437L89.764 692.437zM51.496 722.201L89.764 722.201L89.764 722.201L89.764 692.437L89.764 692.437L51.496 692.437z" stroke="none" fill="#7ED3F7" fill-rule="winding" /><path transform="matrix(1 0 0 -1 0 841)" d="M490.394 90.536L546.142 90.536L546.142 90.536L546.142 68.908L546.142 68.908L490.394 68.908zM369.213 90.536L490.394 90.536L490.394 90.536L490.394 68.908L490.394 68.908L369.213 68.908zM307.559 90.536L369.213 90.536L369.213 90.536L369.213 68.908L369.213 68.908L307.559 68.908zM89.764 90.536L307.559 90.536L307.559 90.536L307.559 68.908L307.559 68.908L89.764 68.908zM51.496 90.536L89.764 90.536L89.764 90.536L89.764 68.908L89.764 68.908L51.496 68.908zM490.394 140.427L546.142 140.427L546.142 140.427L546.142 113.213L546.142 113.213L490.394 113.213zM369.213 140.427L490.394 140.427L490.394 140.427L490.394 113.213L490.394 113.213L369.213 113.213zM307.559 140.427L369.213 140.427L369.213 140.427L369.213 113.213L369.213 113.213L307.559 113.213zM89.764 140.427L307.559 140.427L307.559 140.427L307.559 113.213L307.559 113.213L89.764 113.213zM51.496 140.427L89.764 140.427L89.764 140.427L89.764 113.213L89.764 113.213L51.496 113.213zM490.394 190.317L546.142 190.317L546.142 190.317L546.142 167.64L546.142 167.64L490.394 167.64zM369.213 190.317L490.394 190.317L490.394 190.317L490.394 167.64L490.394 167.64L369.213 167.64zM307.559 190.317L369.213 190.317L369.213 190.317L369.213 167.64L369.213 167.64L307.559 167.64zM89.764 190.317L307.559 190.317L307.559 190.317L307.559 167.64L307.559 167.64L89.764 167.64zM51.496 190.317L89.764 190.317L89.764 190.317L89.764 167.64L89.764 167.64L51.496 167.64zM490.394 240.208L546.142 240.208L546.142 240.208L546.142 217.531L546.142 217.531L490.394 217.531zM369.213 240.208L490.394 240.208L490.394 240.208L490.394 217.531L490.394 217.531L369.213 217.531zM307.559 240.208L369.213 240.208L369.213 240.208L369.213 217.531L369.213 217.531L307.559 217.531zM89.764 240.208L307.559 240.208L307.559 240.208L307.559 217.531L307.559 217.531L89.764 217.531zM51.496 240.208L89.764 240.208L89.764 240.208L89.764 217.531L89.764 217.531L51.496 217.531zM490.394 294.635L546.142 294.635L546.142 294.635L546.142 267.421L546.142 267.421L490.394 267.421zM369.213 294.635L490.394 294.635L490.394 294.635L490.394 267.421L490.394 267.421L369.213 267.421zM307.559 294.635L369.213 294.635L369.213 294.635L369.213 267.421L369.213 267.421L307.559 267.421zM89.764 294.635L307.559 294.635L307.559 294.635L307.559 267.421L307.559 267.421L89.764 267.421zM51.496 294.635L89.764 294.635L89.764 294.635L89.764 267.421L89.764 267.421L51.496 267.421zM490.394 344.526L546.142 344.526L546.142 344.526L546.142 317.312L546.142 317.312L490.394 317.312zM369.213 344.526L490.394 344.526L490.394 344.526L490.394 317.312L490.394 317.312L369.213 317.312zM307.559 344.526L369.213 344.526L369.213 344.526L369.213 317.312L369.213 317.312L307.559 317.312zM89.764 344.526L307.559 344.526L307.559 344.526L307.559 317.312L307.559 317.312L89.764 317.312zM51.496 344.526L89.764 344.526L89.764 344.526L89.764 317.312L89.764 317.312L51.496 317.312zM490.394 394.417L546.142 394.417L546.142 394.417L546.142 367.203L546.142 367.203L490.394 367.203zM369.213 394.417L490.394 394.417L490.394 394.417L490.394 367.203L490.394 367.203L369.213 367.203zM307.559 394.417L369.213 394.417L369.213 394.417L369.213 367.203L369.213 367.203L307.559 367.203zM89.764 394.417L307.559 394.417L307.559 394.417L307.559 367.203L307.559 367.203L89.764 367.203zM51.496 394.417L89.764 394.417L89.764 394.417L89.764 367.203L89.764 367.203L51.496 367.203zM490.394 437.864L546.142 437.864L546.142 437.864L546.142 415.187L546.142 415.187L490.394 415.187zM369.213 437.864L490.394 437.864L490.394 437.864L490.394 415.187L490.394 415.187L369.213 415.187zM307.559 437.864L369.213 437.864L369.213 437.864L369.213 415.187L369.213 415.187L307.559 415.187zM89.764 437.864L307.559 437.864L307.559 437.864L307.559 415.187L307.559 415.187L89.764 415.187zM51.496 437.864L89.764 437.864L89.764 437.864L89.764 415.187L89.764 415.187L51.496 415.187zM490.394 483.219L546.142 483.219L546.142 483.219L546.142 460.542L546.142 460.542L490.394 460.542zM369.213 483.219L490.394 483.219L490.394 483.219L490.394 460.542L490.394 460.542L369.213 460.542zM307.559 483.219L369.213 483.219L369.213 483.219L369.213 460.542L369.213 460.542L307.559 460.542zM89.764 483.219L307.559 483.219L307.559 483.219L307.559 460.542L307.559 460.542L89.764 460.542zM51.496 483.219L89.764 483.219L89.764 483.219L89.764 460.542L89.764 460.542L51.496 460.542zM490.394 537.646L546.142 537.646L546.142 537.646L546.142 510.432L546.142 510.432L490.394 510.432zM369.213 537.646L490.394 537.646L490.394 537.646L490.394 510.432L490.394 510.432L369.213 510.432zM307.559 537.646L369.213 537.646L369.213 537.646L369.213 510.432L369.213 510.432L307.559 510.432zM89.764 537.646L307.559 537.646L307.559 537.646L307.559 510.432L307.559 510.432L89.764 510.432zM51.496 537.646L89.764 537.646L89.764 537.646L89.764 510.432L89.764 510.432L51.496 510.432zM490.394 592.073L546.142 592.073L546.142 592.073L546.142 564.859L546.142 564.859L490.394 564.859zM369.213 592.073L490.394 592.073L490.394 592.073L490.394 564.859L490.394 564.859L369.213 564.859zM307.559 592.073L369.213 592.073L369.213 592.073L369.213 564.859L369.213 564.859L307.559 564.859zM89.764 592.073L307.559 592.073L307.559 592.073L307.559 564.859L307.559 564.859L89.764 564.859zM51.496 592.073L89.764 592.073L89.764 592.073L89.764 564.859L89.764 564.859L51.496 564.859zM490.394 646.5L546.142 646.5L546.142 646.5L546.142 619.286L546.142 619.286L490.394 619.286zM369.213 646.5L490.394 646.5L490.394 646.5L490.394 619.286L490.394 619.286L369.213 619.286zM307.559 646.5L369.213 646.5L369.213 646.5L369.213 619.286L369.213 619.286L307.559 619.286zM89.764 646.5L307.559 646.5L307.559 646.5L307.559 619.286L307.559 619.286L89.764 619.286zM51.496 646.5L89.764 646.5L89.764 646.5L89.764 619.286L89.764 619.286L51.496 619.286zM490.394 692.437L546.142 692.437L546.142 692.437L546.142 669.76L546.142 669.76L490.394 669.76zM369.213 692.437L490.394 692.437L490.394 692.437L490.394 669.76L490.394 669.76L369.213 669.76zM307.559 692.437L369.213 692.437L369.213 692.437L369.213 669.76L369.213 669.76L307.559 669.76zM89.764 692.437L307.559 692.437L307.559 692.437L307.559 669.76L307.559 669.76L89.764 669.76zM51.496 692.437L89.764 692.437L89.764 692.437L89.764 669.76L89.764 669.76L51.496 669.76z" stroke="none" fill="#E6E7E8" fill-rule="winding" /><path transform="matrix(1 0 0 -1 0 841)" d="M490.394 113.213L546.142 113.213L546.142 113.213L546.142 90.536L546.142 90.536L490.394 90.536zM369.213 113.213L490.394 113.213L490.394 113.213L490.394 90.536L490.394 90.536L369.213 90.536zM307.559 113.213L369.213 113.213L369.213 113.213L369.213 90.536L369.213 90.536L307.559 90.536zM89.764 113.213L307.559 113.213L307.559 113.213L307.559 90.536L307.559 90.536L89.764 90.536zM51.496 113.213L89.764 113.213L89.764 113.213L89.764 90.536L89.764 90.536L51.496 90.536zM490.394 167.64L546.142 167.64L546.142 167.64L546.142 140.426L546.142 140.426L490.394 140.426zM369.213 167.64L490.394 167.64L490.394 167.64L490.394 140.426L490.394 140.426L369.213 140.426zM307.559 167.64L369.213 167.64L369.213 167.64L369.213 140.426L369.213 140.426L307.559 140.426zM89.764 167.64L307.559 167.64L307.559 167.64L307.559 140.426L307.559 140.426L89.764 140.426zM51.496 167.64L89.764 167.64L89.764 167.64L89.764 140.426L89.764 140.426L51.496 140.426zM490.394 217.531L546.142 217.531L546.142 217.531L546.142 190.317L546.142 190.317L490.394 190.317zM369.213 217.531L490.394 217.531L490.394 217.531L490.394 190.317L490.394 190.317L369.213 190.317zM307.559 217.531L369.213 217.531L369.213 217.531L369.213 190.317L369.213 190.317L307.559 190.317zM89.764 217.531L307.559 217.531L307.559 217.531L307.559 190.317L307.559 190.317L89.764 190.317zM51.496 217.531L89.764 217.531L89.764 217.531L89.764 190.317L89.764 190.317L51.496 190.317zM490.394 267.422L546.142 267.422L546.142 267.422L546.142 240.208L546.142 240.208L490.394 240.208zM369.213 267.422L490.394 267.422L490.394 267.422L490.394 240.208L490.394 240.208L369.213 240.208zM307.559 267.422L369.213 267.422L369.213 267.422L369.213 240.208L369.213 240.208L307.559 240.208zM89.764 267.422L307.559 267.422L307.559 267.422L307.559 240.208L307.559 240.208L89.764 240.208zM51.496 267.422L89.764 267.422L89.764 267.422L89.764 240.208L89.764 240.208L51.496 240.208zM490.394 317.312L546.142 317.312L546.142 317.312L546.142 294.635L546.142 294.635L490.394 294.635zM369.213 317.312L490.394 317.312L490.394 317.312L490.394 294.635L490.394 294.635L369.213 294.635zM307.559 317.312L369.213 317.312L369.213 317.312L369.213 294.635L369.213 294.635L307.559 294.635zM89.764 317.312L307.559 317.312L307.559 317.312L307.559 294.635L307.559 294.635L89.764 294.635zM51.496 317.312L89.764 317.312L89.764 317.312L89.764 294.635L89.764 294.635L51.496 294.635zM490.394 367.203L546.142 367.203L546.142 367.203L546.142 344.526L546.142 344.526L490.394 344.526zM369.213 367.203L490.394 367.203L490.394 367.203L490.394 344.526L490.394 344.526L369.213 344.526zM307.559 367.203L369.213 367.203L369.213 367.203L369.213 344.526L369.213 344.526L307.559 344.526zM89.764 367.203L307.559 367.203L307.559 367.203L307.559 344.526L307.559 344.526L89.764 344.526zM51.496 367.203L89.764 367.203L89.764 367.203L89.764 344.526L89.764 344.526L51.496 344.526zM490.394 415.187L546.142 415.187L546.142 415.187L546.142 394.417L546.142 394.417L490.394 394.417zM369.213 415.187L490.394 415.187L490.394 415.187L490.394 394.417L490.394 394.417L369.213 394.417zM307.559 415.187L369.213 415.187L369.213 415.187L369.213 394.417L369.213 394.417L307.559 394.417zM89.764 415.187L307.559 415.187L307.559 415.187L307.559 394.417L307.559 394.417L89.764 394.417zM51.496 415.187L89.764 415.187L89.764 415.187L89.764 394.417L89.764 394.417L51.496 394.417zM490.394 460.541L546.142 460.541L546.142 460.541L546.142 437.864L546.142 437.864L490.394 437.864zM369.213 460.541L490.394 460.541L490.394 460.541L490.394 437.864L490.394 437.864L369.213 437.864zM307.559 460.541L369.213 460.541L369.213 460.541L369.213 437.864L369.213 437.864L307.559 437.864zM89.764 460.541L307.559 460.541L307.559 460.541L307.559 437.864L307.559 437.864L89.764 437.864zM51.496 460.541L89.764 460.541L89.764 460.541L89.764 437.864L89.764 437.864L51.496 437.864zM490.394 510.432L546.142 510.432L546.142 510.432L546.142 483.218L546.142 483.218L490.394 483.218zM369.213 510.432L490.394 510.432L490.394 510.432L490.394 483.218L490.394 483.218L369.213 483.218zM307.559 510.432L369.213 510.432L369.213 510.432L369.213 483.218L369.213 483.218L307.559 483.218zM89.764 510.432L307.559 510.432L307.559 510.432L307.559 483.218L307.559 483.218L89.764 483.218zM51.496 510.432L89.764 510.432L89.764 510.432L89.764 483.218L89.764 483.218L51.496 483.218zM490.394 564.859L546.142 564.859L546.142 564.859L546.142 537.645L546.142 537.645L490.394 537.645zM369.213 564.859L490.394 564.859L490.394 564.859L490.394 537.645L490.394 537.645L369.213 537.645zM307.559 564.859L369.213 564.859L369.213 564.859L369.213 537.645L369.213 537.645L307.559 537.645zM89.764 564.859L307.559 564.859L307.559 564.859L307.559 537.645L307.559 537.645L89.764 537.645zM51.496 564.859L89.764 564.859L89.764 564.859L89.764 537.645L89.764 537.645L51.496 537.645zM490.394 619.286L546.142 619.286L546.142 619.286L546.142 592.072L546.142 592.072L490.394 592.072zM369.213 619.286L490.394 619.286L490.394 619.286L490.394 592.072L490.394 592.072L369.213 592.072zM307.559 619.286L369.213 619.286L369.213 619.286L369.213 592.072L369.213 592.072L307.559 592.072zM89.764 619.286L307.559 619.286L307.559 619.286L307.559 592.072L307.559 592.072L89.764 592.072zM51.496 619.286L89.764 619.286L89.764 619.286L89.764 592.072L89.764 592.072L51.496 592.072zM490.394 669.76L546.142 669.76L546.142 669.76L546.142 646.5L546.142 646.5L490.394 646.5zM369.213 669.76L490.394 669.76L490.394 669.76L490.394 646.5L490.394 646.5L369.213 646.5zM307.559 669.76L369.213 669.76L369.213 669.76L369.213 646.5L369.213 646.5L307.559 646.5zM89.764 669.76L307.559 669.76L307.559 669.76L307.559 646.5L307.559 646.5L89.764 646.5zM51.496 669.76L89.764 669.76L89.764 669.76L89.764 646.5L89.764 646.5L51.496 646.5z" stroke="none" fill="#F1F1F2" fill-rule="winding" /><path transform="matrix(1 0 0 -1 0 841)" d="M51.496 669.7604L89.764 669.7604" stroke="#FFFFFE" stroke-width="1" fill="none" /><path transform="matrix(1 0 0 -1 0 841)" d="M89.7637 669.7604L307.5587 669.7604" stroke="#FFFFFE" stroke-width="1" fill="none" /><path transform="matrix(1 0 0 -1 0 841)" d="M307.559 669.7604L369.213 669.7604" stroke="#FFFFFE" stroke-width="1" fill="none" /><path transform="matrix(1 0 0 -1 0 841)" d="M369.2126 669.7604L490.3936 669.7604" stroke="#FFFFFE" stroke-width="1" fill="none" /><path transform="matrix(1 0 0 -1 0 841)" d="M490.3937 669.7604L546.1417 669.7604" stroke="#FFFFFE" stroke-width="1" fill="none" /><path transform="matrix(1 0 0 -1 0 841)" d="M51.496 646.5L89.764 646.5" stroke="#FFFFFE" stroke-width="1" fill="none" /><path transform="matrix(1 0 0 -1 0 841)" d="M89.7637 646.5L307.5587 646.5" stroke="#FFFFFE" stroke-width="1" fill="none" /><path transform="matrix(1 0 0 -1 0 841)" d="M307.559 646.5L369.213 646.5" stroke="#FFFFFE" stroke-width="1" fill="none" /><path transform="matrix(1 0 0 -1 0 841)" d="M369.2126 646.5L490.3936 646.5" stroke="#FFFFFE" stroke-width="1" fill="none" /><path transform="matrix(1 0 0 -1 0 841)" d="M490.3937 646.5L546.1417 646.5" stroke="#FFFFFE" stroke-width="1" fill="none" /><path transform="matrix(1 0 0 -1 0 841)" d="M51.496 619.2864L89.764 619.2864" stroke="#FFFFFE" stroke-width="1" fill="none" /><path transform="matrix(1 0 0 -1 0 841)" d="M89.7637 619.2864L307.5587 619.2864" stroke="#FFFFFE" stroke-width="1" fill="none" /><path transform="matrix(1 0 0 -1 0 841)" d="M307.559 619.2864L369.213 619.2864" stroke="#FFFFFE" stroke-width="1" fill="none" /><path transform="matrix(1 0 0 -1 0 841)" d="M369.2126 619.2864L490.3936 619.2864" stroke="#FFFFFE" stroke-width="1" fill="none" /><path transform="matrix(1 0 0 -1 0 841)" d="M490.3937 619.2864L546.1417 619.2864" stroke="#FFFFFE" stroke-width="1" fill="none" /><path transform="matrix(1 0 0 -1 0 841)" d="M51.496 592.0729L89.764 592.0729" stroke="#FFFFFE" stroke-width="1" fill="none" /><path transform="matrix(1 0 0 -1 0 841)" d="M89.7637 592.0729L307.5587 592.0729" stroke="#FFFFFE" stroke-width="1" fill="none" /><path transform="matrix(1 0 0 -1 0 841)" d="M307.559 592.0729L369.213 592.0729" stroke="#FFFFFE" stroke-width="1" fill="none" /><path transform="matrix(1 0 0 -1 0 841)" d="M369.2126 592.0729L490.3936 592.0729" stroke="#FFFFFE" stroke-width="1" fill="none" /><path transform="matrix(1 0 0 -1 0 841)" d="M490.3937 592.0729L546.1417 592.0729" stroke="#FFFFFE" stroke-width="1" fill="none" /><path transform="matrix(1 0 0 -1 0 841)" d="M51.496 564.8593L89.764 564.8593" stroke="#FFFFFE" stroke-width="1" fill="none" /><path transform="matrix(1 0 0 -1 0 841)" d="M89.7637 564.8593L307.5587 564.8593" stroke="#FFFFFE" stroke-width="1" fill="none" /><path transform="matrix(1 0 0 -1 0 841)" d="M307.559 564.8593L369.213 564.8593" stroke="#FFFFFE" stroke-width="1" fill="none" /><path transform="matrix(1 0 0 -1 0 841)" d="M369.2126 564.8593L490.3936 564.8593" stroke="#FFFFFE" stroke-width="1" fill="none" /><path transform="matrix(1 0 0 -1 0 841)" d="M490.3937 564.8593L546.1417 564.8593" stroke="#FFFFFE" stroke-width="1" fill="none" /><path transform="matrix(1 0 0 -1 0 841)" d="M51.496 537.6457L89.764 537.6457" stroke="#FFFFFE" stroke-width="1" fill="none" /><path transform="matrix(1 0 0 -1 0 841)" d="M89.7637 537.6457L307.5587 537.6457" stroke="#FFFFFE" stroke-width="1" fill="none" /><path transform="matrix(1 0 0 -1 0 841)" d="M307.559 537.6457L369.213 537.6457" stroke="#FFFFFE" stroke-width="1" fill="none" /><path transform="matrix(1 0 0 -1 0 841)" d="M369.2126 537.6457L490.3936 537.6457" stroke="#FFFFFE" stroke-width="1" fill="none" /><path transform="matrix(1 0 0 -1 0 841)" d="M490.3937 537.6457L546.1417 537.6457" stroke="#FFFFFE" stroke-width="1" fill="none" /><path transform="matrix(1 0 0 -1 0 841)" d="M51.496 510.4321L89.764 510.4321" stroke="#FFFFFE" stroke-width="1" fill="none" /><path transform="matrix(1 0 0 -1 0 841)" d="M89.7637 510.4321L307.5587 510.4321" stroke="#FFFFFE" stroke-width="1" fill="none" /><path transform="matrix(1 0 0 -1 0 841)" d="M307.559 510.4321L369.213 510.4321" stroke="#FFFFFE" stroke-width="1" fill="none" /><path transform="matrix(1 0 0 -1 0 841)" d="M369.2126 510.4321L490.3936 510.4321" stroke="#FFFFFE" stroke-width="1" fill="none" /><path transform="matrix(1 0 0 -1 0 841)" d="M490.3937 510.4321L546.1417 510.4321" stroke="#FFFFFE" stroke-width="1" fill="none" /><path transform="matrix(1 0 0 -1 0 841)" d="M51.496 483.2185L89.764 483.2185" stroke="#FFFFFE" stroke-width="1" fill="none" /><path transform="matrix(1 0 0 -1 0 841)" d="M89.7637 483.2185L307.5587 483.2185" stroke="#FFFFFE" stroke-width="1" fill="none" /><path transform="matrix(1 0 0 -1 0 841)" d="M307.559 483.2185L369.213 483.2185" stroke="#FFFFFE" stroke-width="1" fill="none" /><path transform="matrix(1 0 0 -1 0 841)" d="M369.2126 483.2185L490.3936 483.2185" stroke="#FFFFFE" stroke-width="1" fill="none" /><path transform="matrix(1 0 0 -1 0 841)" d="M490.3937 483.2185L546.1417 483.2185" stroke="#FFFFFE" stroke-width="1" fill="none" /><path transform="matrix(1 0 0 -1 0 841)" d="M51.496 460.5414L89.764 460.5414" stroke="#FFFFFE" stroke-width="1" fill="none" /><path transform="matrix(1 0 0 -1 0 841)" d="M89.7637 460.5414L307.5587 460.5414" stroke="#FFFFFE" stroke-width="1" fill="none" /><path transform="matrix(1 0 0 -1 0 841)" d="M307.559 460.5414L369.213 460.5414" stroke="#FFFFFE" stroke-width="1" fill="none" /><path transform="matrix(1 0 0 -1 0 841)" d="M369.2126 460.5414L490.3936 460.5414" stroke="#FFFFFE" stroke-width="1" fill="none" /><path transform="matrix(1 0 0 -1 0 841)" d="M490.3937 460.5414L546.1417 460.5414" stroke="#FFFFFE" stroke-width="1" fill="none" /><path transform="matrix(1 0 0 -1 0 841)" d="M51.496 437.8642L89.764 437.8642" stroke="#FFFFFE" stroke-width="1" fill="none" /><path transform="matrix(1 0 0 -1 0 841)" d="M89.7637 437.8642L307.5587 437.8642" stroke="#FFFFFE" stroke-width="1" fill="none" /><path transform="matrix(1 0 0 -1 0 841)" d="M307.559 437.8642L369.213 437.8642" stroke="#FFFFFE" stroke-width="1" fill="none" /><path transform="matrix(1 0 0 -1 0 841)" d="M369.2126 437.8642L490.3936 437.8642" stroke="#FFFFFE" stroke-width="1" fill="none" /><path transform="matrix(1 0 0 -1 0 841)" d="M490.3937 437.8642L546.1417 437.8642" stroke="#FFFFFE" stroke-width="1" fill="none" /><path transform="matrix(1 0 0 -1 0 841)" d="M51.496 415.187L89.764 415.187" stroke="#FFFFFE" stroke-width="1" fill="none" /><path transform="matrix(1 0 0 -1 0 841)" d="M89.7637 415.187L307.5587 415.187" stroke="#FFFFFE" stroke-width="1" fill="none" /><path transform="matrix(1 0 0 -1 0 841)" d="M307.559 415.187L369.213 415.187" stroke="#FFFFFE" stroke-width="1" fill="none" /><path transform="matrix(1 0 0 -1 0 841)" d="M369.2126 415.187L490.3936 415.187" stroke="#FFFFFE" stroke-width="1" fill="none" /><path transform="matrix(1 0 0 -1 0 841)" d="M490.3937 415.187L546.1417 415.187" stroke="#FFFFFE" stroke-width="1" fill="none" /><path transform="matrix(1 0 0 -1 0 841)" d="M51.496 394.4168L89.764 394.4168" stroke="#FFFFFE" stroke-width="1" fill="none" /><path transform="matrix(1 0 0 -1 0 841)" d="M89.7637 394.4168L307.5587 394.4168" stroke="#FFFFFE" stroke-width="1" fill="none" /><path transform="matrix(1 0 0 -1 0 841)" d="M307.559 394.4168L369.213 394.4168" stroke="#FFFFFE" stroke-width="1" fill="none" /><path transform="matrix(1 0 0 -1 0 841)" d="M369.2126 394.4168L490.3936 394.4168" stroke="#FFFFFE" stroke-width="1" fill="none" /><path transform="matrix(1 0 0 -1 0 841)" d="M490.3937 394.4168L546.1417 394.4168" stroke="#FFFFFE" stroke-width="1" fill="none" /><path transform="matrix(1 0 0 -1 0 841)" d="M51.496 367.2032L89.764 367.2032" stroke="#FFFFFE" stroke-width="1" fill="none" /><path transform="matrix(1 0 0 -1 0 841)" d="M89.7637 367.2032L307.5587 367.2032" stroke="#FFFFFE" stroke-width="1" fill="none" /><path transform="matrix(1 0 0 -1 0 841)" d="M307.559 367.2032L369.213 367.2032" stroke="#FFFFFE" stroke-width="1" fill="none" /><path transform="matrix(1 0 0 -1 0 841)" d="M369.2126 367.2032L490.3936 367.2032" stroke="#FFFFFE" stroke-width="1" fill="none" /><path transform="matrix(1 0 0 -1 0 841)" d="M490.3937 367.2032L546.1417 367.2032" stroke="#FFFFFE" stroke-width="1" fill="none" /><path transform="matrix(1 0 0 -1 0 841)" d="M51.496 344.5261L89.764 344.5261" stroke="#FFFFFE" stroke-width="1" fill="none" /><path transform="matrix(1 0 0 -1 0 841)" d="M89.7637 344.5261L307.5587 344.5261" stroke="#FFFFFE" stroke-width="1" fill="none" /><path transform="matrix(1 0 0 -1 0 841)" d="M307.559 344.5261L369.213 344.5261" stroke="#FFFFFE" stroke-width="1" fill="none" /><path transform="matrix(1 0 0 -1 0 841)" d="M369.2126 344.5261L490.3936 344.5261" stroke="#FFFFFE" stroke-width="1" fill="none" /><path transform="matrix(1 0 0 -1 0 841)" d="M490.3937 344.5261L546.1417 344.5261" stroke="#FFFFFE" stroke-width="1" fill="none" /><path transform="matrix(1 0 0 -1 0 841)" d="M51.496 317.3125L89.764 317.3125" stroke="#FFFFFE" stroke-width="1" fill="none" /><path transform="matrix(1 0 0 -1 0 841)" d="M89.7637 317.3125L307.5587 317.3125" stroke="#FFFFFE" stroke-width="1" fill="none" /><path transform="matrix(1 0 0 -1 0 841)" d="M307.559 317.3125L369.213 317.3125" stroke="#FFFFFE" stroke-width="1" fill="none" /><path transform="matrix(1 0 0 -1 0 841)" d="M369.2126 317.3125L490.3936 317.3125" stroke="#FFFFFE" stroke-width="1" fill="none" /><path transform="matrix(1 0 0 -1 0 841)" d="M490.3937 317.3125L546.1417 317.3125" stroke="#FFFFFE" stroke-width="1" fill="none" /><path transform="matrix(1 0 0 -1 0 841)" d="M51.496 294.6353L89.764 294.6353" stroke="#FFFFFE" stroke-width="1" fill="none" /><path transform="matrix(1 0 0 -1 0 841)" d="M89.7637 294.6353L307.5587 294.6353" stroke="#FFFFFE" stroke-width="1" fill="none" /><path transform="matrix(1 0 0 -1 0 841)" d="M307.559 294.6353L369.213 294.6353" stroke="#FFFFFE" stroke-width="1" fill="none" /><path transform="matrix(1 0 0 -1 0 841)" d="M369.2126 294.6353L490.3936 294.6353" stroke="#FFFFFE" stroke-width="1" fill="none" /><path transform="matrix(1 0 0 -1 0 841)" d="M490.3937 294.6353L546.1417 294.6353" stroke="#FFFFFE" stroke-width="1" fill="none" /><path transform="matrix(1 0 0 -1 0 841)" d="M51.496 267.4217L89.764 267.4217" stroke="#FFFFFE" stroke-width="1" fill="none" /><path transform="matrix(1 0 0 -1 0 841)" d="M89.7637 267.4217L307.5587 267.4217" stroke="#FFFFFE" stroke-width="1" fill="none" /><path transform="matrix(1 0 0 -1 0 841)" d="M307.559 267.4217L369.213 267.4217" stroke="#FFFFFE" stroke-width="1" fill="none" /><path transform="matrix(1 0 0 -1 0 841)" d="M369.2126 267.4217L490.3936 267.4217" stroke="#FFFFFE" stroke-width="1" fill="none" /><path transform="matrix(1 0 0 -1 0 841)" d="M490.3937 267.4217L546.1417 267.4217" stroke="#FFFFFE" stroke-width="1" fill="none" /><path transform="matrix(1 0 0 -1 0 841)" d="M51.496 240.2081L89.764 240.2081" stroke="#FFFFFE" stroke-width="1" fill="none" /><path transform="matrix(1 0 0 -1 0 841)" d="M89.7637 240.2081L307.5587 240.2081" stroke="#FFFFFE" stroke-width="1" fill="none" /><path transform="matrix(1 0 0 -1 0 841)" d="M307.559 240.2081L369.213 240.2081" stroke="#FFFFFE" stroke-width="1" fill="none" /><path transform="matrix(1 0 0 -1 0 841)" d="M369.2126 240.2081L490.3936 240.2081" stroke="#FFFFFE" stroke-width="1" fill="none" /><path transform="matrix(1 0 0 -1 0 841)" d="M490.3937 240.2081L546.1417 240.2081" stroke="#FFFFFE" stroke-width="1" fill="none" /><path transform="matrix(1 0 0 -1 0 841)" d="M51.496 217.531L89.764 217.531" stroke="#FFFFFE" stroke-width="1" fill="none" /><path transform="matrix(1 0 0 -1 0 841)" d="M89.7637 217.531L307.5587 217.531" stroke="#FFFFFE" stroke-width="1" fill="none" /><path transform="matrix(1 0 0 -1 0 841)" d="M307.559 217.531L369.213 217.531" stroke="#FFFFFE" stroke-width="1" fill="none" /><path transform="matrix(1 0 0 -1 0 841)" d="M369.2126 217.531L490.3936 217.531" stroke="#FFFFFE" stroke-width="1" fill="none" /><path transform="matrix(1 0 0 -1 0 841)" d="M490.3937 217.531L546.1417 217.531" stroke="#FFFFFE" stroke-width="1" fill="none" /><path transform="matrix(1 0 0 -1 0 841)" d="M51.496 190.3174L89.764 190.3174" stroke="#FFFFFE" stroke-width="1" fill="none" /><path transform="matrix(1 0 0 -1 0 841)" d="M89.7637 190.3174L307.5587 190.3174" stroke="#FFFFFE" stroke-width="1" fill="none" /><path transform="matrix(1 0 0 -1 0 841)" d="M307.559 190.3174L369.213 190.3174" stroke="#FFFFFE" stroke-width="1" fill="none" /><path transform="matrix(1 0 0 -1 0 841)" d="M369.2126 190.3174L490.3936 190.3174" stroke="#FFFFFE" stroke-width="1" fill="none" /><path transform="matrix(1 0 0 -1 0 841)" d="M490.3937 190.3174L546.1417 190.3174" stroke="#FFFFFE" stroke-width="1" fill="none" /><path transform="matrix(1 0 0 -1 0 841)" d="M51.496 167.6402L89.764 167.6402" stroke="#FFFFFE" stroke-width="1" fill="none" /><path transform="matrix(1 0 0 -1 0 841)" d="M89.7637 167.6402L307.5587 167.6402" stroke="#FFFFFE" stroke-width="1" fill="none" /><path transform="matrix(1 0 0 -1 0 841)" d="M307.559 167.6402L369.213 167.6402" stroke="#FFFFFE" stroke-width="1" fill="none" /><path transform="matrix(1 0 0 -1 0 841)" d="M369.2126 167.6402L490.3936 167.6402" stroke="#FFFFFE" stroke-width="1" fill="none" /><path transform="matrix(1 0 0 -1 0 841)" d="M490.3937 167.6402L546.1417 167.6402" stroke="#FFFFFE" stroke-width="1" fill="none" /><path transform="matrix(1 0 0 -1 0 841)" d="M307.559 140.4266L369.213 140.4266" stroke="#FFFFFE" stroke-width="1" fill="none" /><path transform="matrix(1 0 0 -1 0 841)" d="M369.2126 140.4266L490.3936 140.4266" stroke="#FFFFFE" stroke-width="1" fill="none" /><path transform="matrix(1 0 0 -1 0 841)" d="M490.3937 140.4266L546.1417 140.4266" stroke="#FFFFFE" stroke-width="1" fill="none" /><path transform="matrix(1 0 0 -1 0 841)" d="M51.496 140.4266L89.764 140.4266" stroke="#FFFFFE" stroke-width="1" fill="none" /><path transform="matrix(1 0 0 -1 0 841)" d="M89.7637 140.4266L307.5587 140.4266" stroke="#FFFFFE" stroke-width="1" fill="none" /><path transform="matrix(1 0 0 -1 0 841)" d="M51.496 113.2131L89.764 113.2131" stroke="#FFFFFE" stroke-width="1" fill="none" /><path transform="matrix(1 0 0 -1 0 841)" d="M89.7637 113.2131L307.5587 113.2131" stroke="#FFFFFE" stroke-width="1" fill="none" /><path transform="matrix(1 0 0 -1 0 841)" d="M51.496 90.5359L89.764 90.5359" stroke="#FFFFFE" stroke-width="1" fill="none" /><path transform="matrix(1 0 0 -1 0 841)" d="M89.7637 90.5359L307.5587 90.5359" stroke="#FFFFFE" stroke-width="1" fill="none" /><path transform="matrix(1 0 0 -1 0 841)" d="M307.559 113.2131L369.213 113.2131" stroke="#FFFFFE" stroke-width="1" fill="none" /><path transform="matrix(1 0 0 -1 0 841)" d="M369.2126 113.2131L490.3936 113.2131" stroke="#FFFFFE" stroke-width="1" fill="none" /><path transform="matrix(1 0 0 -1 0 841)" d="M490.3937 113.2131L546.1417 113.2131" stroke="#FFFFFE" stroke-width="1" fill="none" /><path transform="matrix(1 0 0 -1 0 841)" d="M307.559 90.5359L369.213 90.5359" stroke="#FFFFFE" stroke-width="1" fill="none" /><path transform="matrix(1 0 0 -1 0 841)" d="M369.2126 90.5359L490.3936 90.5359" stroke="#FFFFFE" stroke-width="1" fill="none" /><path transform="matrix(1 0 0 -1 0 841)" d="M490.3937 90.5359L546.1417 90.5359" stroke="#FFFFFE" stroke-width="1" fill="none" /><path transform="matrix(1 0 0 -1 0 841)" d="M51.496 68.9083L89.764 68.9083" stroke="#FFFFFE" stroke-width="1" fill="none" /><path transform="matrix(1 0 0 -1 0 841)" d="M89.7637 68.9083L307.5587 68.9083" stroke="#FFFFFE" stroke-width="1" fill="none" /><path transform="matrix(1 0 0 -1 0 841)" d="M307.559 68.9083L369.213 68.9083" stroke="#FFFFFE" stroke-width="1" fill="none" /><path transform="matrix(1 0 0 -1 0 841)" d="M369.2126 68.9083L490.3936 68.9083" stroke="#FFFFFE" stroke-width="1" fill="none" /><path transform="matrix(1 0 0 -1 0 841)" d="M490.3937 68.9083L546.1417 68.9083" stroke="#FFFFFE" stroke-width="1" fill="none" /><path transform="matrix(1 0 0 -1 0 841)" d="M1095.538 803.445L1156.645 803.445L1156.645 803.445L1156.645 773.684L1156.645 773.684L1095.538 773.684zM962.708 803.445L1095.538 803.445L1095.538 803.445L1095.538 773.684L1095.538 773.684L962.708 773.684zM895.128 803.445L962.708 803.445L962.708 803.445L962.708 773.684L962.708 773.684L895.128 773.684zM661.316 803.445L895.128 803.445L895.128 803.445L895.128 773.684L895.128 773.684L661.316 773.684zM619.37 803.445L661.316 803.445L661.316 803.445L661.316 773.684L661.316 773.684L619.37 773.684z" stroke="none" fill="#7DD3F7" fill-rule="winding" /><path transform="matrix(1 0 0 -1 0 841)" d="M1095.538 125.444L1156.645 125.444L1156.645 125.444L1156.645 100.587L1156.645 100.587L1095.538 100.587zM962.708 125.444L1095.538 125.444L1095.538 125.444L1095.538 100.587L1095.538 100.587L962.708 100.587zM895.128 125.444L962.708 125.444L962.708 125.444L962.708 100.587L962.708 100.587L895.128 100.587zM661.316 125.444L895.128 125.444L895.128 125.444L895.128 100.587L895.128 100.587L661.316 100.587zM619.37 125.444L661.316 125.444L661.316 125.444L661.316 100.587L661.316 100.587L619.37 100.587zM1095.538 175.158L1156.645 175.158L1156.645 175.158L1156.645 150.301L1156.645 150.301L1095.538 150.301zM962.708 175.158L1095.538 175.158L1095.538 175.158L1095.538 150.301L1095.538 150.301L962.708 150.301zM895.128 175.158L962.708 175.158L962.708 175.158L962.708 150.301L962.708 150.301L895.128 150.301zM661.316 175.158L895.128 175.158L895.128 175.158L895.128 150.301L895.128 150.301L661.316 150.301zM619.37 175.158L661.316 175.158L661.316 175.158L661.316 150.301L661.316 150.301L619.37 150.301zM1095.538 246.795L1156.645 246.795L1156.645 246.795L1156.645 210.976L1156.645 210.976L1095.538 210.976zM962.708 246.795L1095.538 246.795L1095.538 246.795L1095.538 210.976L1095.538 210.976L962.708 210.976zM895.128 246.795L962.708 246.795L962.708 246.795L962.708 210.976L962.708 210.976L895.128 210.976zM661.316 246.795L895.128 246.795L895.128 246.795L895.128 210.976L895.128 210.976L661.316 210.976zM619.37 246.795L661.316 246.795L661.316 246.795L661.316 210.976L661.316 210.976L619.37 210.976zM1095.538 318.432L1156.645 318.432L1156.645 318.432L1156.645 282.613L1156.645 282.613L1095.538 282.613zM962.708 318.432L1095.538 318.432L1095.538 318.432L1095.538 282.613L1095.538 282.613L962.708 282.613zM895.128 318.432L962.708 318.432L962.708 318.432L962.708 282.613L962.708 282.613L895.128 282.613zM661.316 318.432L895.128 318.432L895.128 318.432L895.128 282.613L895.128 282.613L661.316 282.613zM619.37 318.432L661.316 318.432L661.316 318.432L661.316 282.613L661.316 282.613L619.37 282.613zM1095.538 368.819L1156.645 368.819L1156.645 368.819L1156.645 343.962L1156.645 343.962L1095.538 343.962zM962.708 368.819L1095.538 368.819L1095.538 368.819L1095.538 343.962L1095.538 343.962L962.708 343.962zM895.128 368.819L962.708 368.819L962.708 368.819L962.708 343.962L962.708 343.962L895.128 343.962zM661.316 368.819L895.128 368.819L895.128 368.819L895.128 343.962L895.128 343.962L661.316 343.962zM619.37 368.819L661.316 368.819L661.316 368.819L661.316 343.962L661.316 343.962L619.37 343.962zM1095.538 419.224L1156.645 419.224L1156.645 419.224L1156.645 396.457L1156.645 396.457L1095.538 396.457zM962.708 419.224L1095.538 419.224L1095.538 419.224L1095.538 396.457L1095.538 396.457L962.708 396.457zM895.128 419.224L962.708 419.224L962.708 419.224L962.708 396.457L962.708 396.457L895.128 396.457zM661.316 419.224L895.128 419.224L895.128 419.224L895.128 396.457L895.128 396.457L661.316 396.457zM619.37 419.224L661.316 419.224L661.316 419.224L661.316 396.457L661.316 396.457L619.37 396.457zM1095.538 471.72L1156.645 471.72L1156.645 471.72L1156.645 444.081L1156.645 444.081L1095.538 444.081zM962.708 471.72L1095.538 471.72L1095.538 471.72L1095.538 444.081L1095.538 444.081L962.708 444.081zM895.128 471.72L962.708 471.72L962.708 471.72L962.708 444.081L962.708 444.081L895.128 444.081zM661.316 471.72L895.128 471.72L895.128 471.72L895.128 444.081L895.128 444.081L661.316 444.081zM619.37 471.72L661.316 471.72L661.316 471.72L661.316 444.081L661.316 444.081L619.37 444.081zM1095.538 526.997L1156.645 526.997L1156.645 526.997L1156.645 499.359L1156.645 499.359L1095.538 499.359zM962.708 526.997L1095.538 526.997L1095.538 526.997L1095.538 499.359L1095.538 499.359L962.708 499.359zM895.128 526.997L962.708 526.997L962.708 526.997L962.708 499.359L962.708 499.359L895.128 499.359zM661.316 526.997L895.128 526.997L895.128 526.997L895.128 499.359L895.128 499.359L661.316 499.359zM619.37 526.997L661.316 526.997L661.316 526.997L661.316 499.359L661.316 499.359L619.37 499.359zM1095.538 583.312L1156.645 583.312L1156.645 583.312L1156.645 555.673L1156.645 555.673L1095.538 555.673zM962.708 583.312L1095.538 583.312L1095.538 583.312L1095.538 555.673L1095.538 555.673L962.708 555.673zM895.128 583.312L962.708 583.312L962.708 583.312L962.708 555.673L962.708 555.673L895.128 555.673zM661.316 583.312L895.128 583.312L895.128 583.312L895.128 555.673L895.128 555.673L661.316 555.673zM619.37 583.312L661.316 583.312L661.316 583.312L661.316 555.673L661.316 555.673L619.37 555.673zM1095.538 638.589L1156.645 638.589L1156.645 638.589L1156.645 610.951L1156.645 610.951L1095.538 610.951zM962.708 638.589L1095.538 638.589L1095.538 638.589L1095.538 610.951L1095.538 610.951L962.708 610.951zM895.128 638.589L962.708 638.589L962.708 638.589L962.708 610.951L962.708 610.951L895.128 610.951zM661.316 638.589L895.128 638.589L895.128 638.589L895.128 610.951L895.128 610.951L661.316 610.951zM619.37 638.589L661.316 638.589L661.316 638.589L661.316 610.951L661.316 610.951L619.37 610.951zM1095.538 710.227L1156.645 710.227L1156.645 710.227L1156.645 674.408L1156.645 674.408L1095.538 674.408zM962.708 710.227L1095.538 710.227L1095.538 710.227L1095.538 674.408L1095.538 674.408L962.708 674.408zM895.128 710.227L962.708 710.227L962.708 710.227L962.708 674.408L962.708 674.408L895.128 674.408zM661.316 710.227L895.128 710.227L895.128 710.227L895.128 674.408L895.128 674.408L661.316 674.408zM619.37 710.227L661.316 710.227L661.316 710.227L661.316 674.408L661.316 674.408L619.37 674.408zM1095.538 773.684L1156.645 773.684L1156.645 773.684L1156.645 737.865L1156.645 737.865L1095.538 737.865zM962.708 773.684L1095.538 773.684L1095.538 773.684L1095.538 737.865L1095.538 737.865L962.708 737.865zM895.128 773.684L962.708 773.684L962.708 773.684L962.708 737.865L962.708 737.865L895.128 737.865zM661.316 773.684L895.128 773.684L895.128 773.684L895.128 737.865L895.128 737.865L661.316 737.865zM619.37 773.684L661.316 773.684L661.316 773.684L661.316 737.865L661.316 737.865L619.37 737.865z" stroke="none" fill="#F0F1F1" fill-rule="winding" /><path transform="matrix(1 0 0 -1 0 841)" d="M1095.538 81.128L1156.645 81.128L1156.645 81.128L1156.645 61.67L1156.645 61.67L1095.538 61.67zM962.708 81.128L1095.538 81.128L1095.538 81.128L1095.538 61.67L1095.538 61.67L962.708 61.67zM895.128 81.128L962.708 81.128L962.708 81.128L962.708 61.67L962.708 61.67L895.128 61.67zM661.316 81.128L895.128 81.128L895.128 81.128L895.128 61.67L895.128 61.67L661.316 61.67zM619.37 81.128L661.316 81.128L661.316 81.128L661.316 61.67L661.316 61.67L619.37 61.67zM1095.538 100.587L1156.645 100.587L1156.645 100.587L1156.645 81.129L1156.645 81.129L1095.538 81.129zM962.708 100.587L1095.538 100.587L1095.538 100.587L1095.538 81.129L1095.538 81.129L962.708 81.129zM895.128 100.587L962.708 100.587L962.708 100.587L962.708 81.129L962.708 81.129L895.128 81.129zM661.316 100.587L895.128 100.587L895.128 100.587L895.128 81.129L895.128 81.129L661.316 81.129zM619.37 100.587L661.316 100.587L661.316 100.587L661.316 81.129L661.316 81.129L619.37 81.129zM1095.538 150.301L1156.645 150.301L1156.645 150.301L1156.645 125.444L1156.645 125.444L1095.538 125.444zM962.708 150.301L1095.538 150.301L1095.538 150.301L1095.538 125.444L1095.538 125.444L962.708 125.444zM895.128 150.301L962.708 150.301L962.708 150.301L962.708 125.444L962.708 125.444L895.128 125.444zM661.316 150.301L895.128 150.301L895.128 150.301L895.128 125.444L895.128 125.444L661.316 125.444zM619.37 150.301L661.316 150.301L661.316 150.301L661.316 125.444L661.316 125.444L619.37 125.444zM1095.538 210.976L1156.645 210.976L1156.645 210.976L1156.645 175.157L1156.645 175.157L1095.538 175.157zM962.708 210.976L1095.538 210.976L1095.538 210.976L1095.538 175.157L1095.538 175.157L962.708 175.157zM895.128 210.976L962.708 210.976L962.708 210.976L962.708 175.157L962.708 175.157L895.128 175.157zM661.316 210.976L895.128 210.976L895.128 210.976L895.128 175.157L895.128 175.157L661.316 175.157zM619.37 210.976L661.316 210.976L661.316 210.976L661.316 175.157L661.316 175.157L619.37 175.157zM1095.538 282.614L1156.645 282.614L1156.645 282.614L1156.645 246.795L1156.645 246.795L1095.538 246.795zM962.708 282.614L1095.538 282.614L1095.538 282.614L1095.538 246.795L1095.538 246.795L962.708 246.795zM895.128 282.614L962.708 282.614L962.708 282.614L962.708 246.795L962.708 246.795L895.128 246.795zM661.316 282.614L895.128 282.614L895.128 282.614L895.128 246.795L895.128 246.795L661.316 246.795zM619.37 282.614L661.316 282.614L661.316 282.614L661.316 246.795L661.316 246.795L619.37 246.795zM1095.538 343.962L1156.645 343.962L1156.645 343.962L1156.645 318.433L1156.645 318.433L1095.538 318.433zM962.708 343.962L1095.538 343.962L1095.538 343.962L1095.538 318.433L1095.538 318.433L962.708 318.433zM895.128 343.962L962.708 343.962L962.708 343.962L962.708 318.433L962.708 318.433L895.128 318.433zM661.316 343.962L895.128 343.962L895.128 343.962L895.128 318.433L895.128 318.433L661.316 318.433zM619.37 343.962L661.316 343.962L661.316 343.962L661.316 318.433L661.316 318.433L619.37 318.433zM1095.538 396.457L1156.645 396.457L1156.645 396.457L1156.645 368.818L1156.645 368.818L1095.538 368.818zM962.708 396.457L1095.538 396.457L1095.538 396.457L1095.538 368.818L1095.538 368.818L962.708 368.818zM895.128 396.457L962.708 396.457L962.708 396.457L962.708 368.818L962.708 368.818L895.128 368.818zM661.316 396.457L895.128 396.457L895.128 396.457L895.128 368.818L895.128 368.818L661.316 368.818zM619.37 396.457L661.316 396.457L661.316 396.457L661.316 368.818L661.316 368.818L619.37 368.818zM1095.538 444.081L1156.645 444.081L1156.645 444.081L1156.645 419.224L1156.645 419.224L1095.538 419.224zM962.708 444.081L1095.538 444.081L1095.538 444.081L1095.538 419.224L1095.538 419.224L962.708 419.224zM895.128 444.081L962.708 444.081L962.708 444.081L962.708 419.224L962.708 419.224L895.128 419.224zM661.316 444.081L895.128 444.081L895.128 444.081L895.128 419.224L895.128 419.224L661.316 419.224zM619.37 444.081L661.316 444.081L661.316 444.081L661.316 419.224L661.316 419.224L619.37 419.224zM1095.538 499.358L1156.645 499.358L1156.645 499.358L1156.645 471.719L1156.645 471.719L1095.538 471.719zM962.708 499.358L1095.538 499.358L1095.538 499.358L1095.538 471.719L1095.538 471.719L962.708 471.719zM895.128 499.358L962.708 499.358L962.708 499.358L962.708 471.719L962.708 471.719L895.128 471.719zM661.316 499.358L895.128 499.358L895.128 499.358L895.128 471.719L895.128 471.719L661.316 471.719zM619.37 499.358L661.316 499.358L661.316 499.358L661.316 471.719L661.316 471.719L619.37 471.719zM1095.538 555.674L1156.645 555.674L1156.645 555.674L1156.645 526.997L1156.645 526.997L1095.538 526.997zM962.708 555.674L1095.538 555.674L1095.538 555.674L1095.538 526.997L1095.538 526.997L962.708 526.997zM895.128 555.674L962.708 555.674L962.708 555.674L962.708 526.997L962.708 526.997L895.128 526.997zM661.316 555.674L895.128 555.674L895.128 555.674L895.128 526.997L895.128 526.997L661.316 526.997zM619.37 555.674L661.316 555.674L661.316 555.674L661.316 526.997L661.316 526.997L619.37 526.997zM1095.538 610.951L1156.645 610.951L1156.645 610.951L1156.645 583.313L1156.645 583.313L1095.538 583.313zM962.708 610.951L1095.538 610.951L1095.538 610.951L1095.538 583.313L1095.538 583.313L962.708 583.313zM895.128 610.951L962.708 610.951L962.708 610.951L962.708 583.313L962.708 583.313L895.128 583.313zM661.316 610.951L895.128 610.951L895.128 610.951L895.128 583.313L895.128 583.313L661.316 583.313zM619.37 610.951L661.316 610.951L661.316 610.951L661.316 583.313L661.316 583.313L619.37 583.313zM1095.538 674.408L1156.645 674.408L1156.645 674.408L1156.645 638.589L1156.645 638.589L1095.538 638.589zM962.708 674.408L1095.538 674.408L1095.538 674.408L1095.538 638.589L1095.538 638.589L962.708 638.589zM895.128 674.408L962.708 674.408L962.708 674.408L962.708 638.589L962.708 638.589L895.128 638.589zM661.316 674.408L895.128 674.408L895.128 674.408L895.128 638.589L895.128 638.589L661.316 638.589zM619.37 674.408L661.316 674.408L661.316 674.408L661.316 638.589L661.316 638.589L619.37 638.589zM1095.538 737.865L1156.645 737.865L1156.645 737.865L1156.645 710.227L1156.645 710.227L1095.538 710.227zM962.708 737.865L1095.538 737.865L1095.538 737.865L1095.538 710.227L1095.538 710.227L962.708 710.227zM895.128 737.865L962.708 737.865L962.708 737.865L962.708 710.227L962.708 710.227L895.128 710.227zM661.316 737.865L895.128 737.865L895.128 737.865L895.128 710.227L895.128 710.227L661.316 710.227zM619.37 737.865L661.316 737.865L661.316 737.865L661.316 710.227L661.316 710.227L619.37 710.227z" stroke="none" fill="#E6E7E8" fill-rule="winding" /><path transform="matrix(1 0 0 -1 0 841)" d="M619.3701 773.684L661.3161 773.684" stroke="#FFFFFE" stroke-width="1.096" fill="none" /><path transform="matrix(1 0 0 -1 0 841)" d="M661.3163 773.684L895.1283 773.684" stroke="#FFFFFE" stroke-width="1.096" fill="none" /><path transform="matrix(1 0 0 -1 0 841)" d="M895.1279 773.684L962.7079 773.684" stroke="#FFFFFE" stroke-width="1.096" fill="none" /><path transform="matrix(1 0 0 -1 0 841)" d="M962.708 773.684L1095.538 773.684" stroke="#FFFFFE" stroke-width="1.096" fill="none" /><path transform="matrix(1 0 0 -1 0 841)" d="M1095.538 773.684L1156.645 773.684" stroke="#FFFFFE" stroke-width="1.096" fill="none" /><path transform="matrix(1 0 0 -1 0 841)" d="M619.3701 737.8654L661.3161 737.8654" stroke="#FFFFFE" stroke-width="1.096" fill="none" /><path transform="matrix(1 0 0 -1 0 841)" d="M661.3163 737.8654L895.1283 737.8654" stroke="#FFFFFE" stroke-width="1.096" fill="none" /><path transform="matrix(1 0 0 -1 0 841)" d="M895.1279 737.8654L962.7079 737.8654" stroke="#FFFFFE" stroke-width="1.096" fill="none" /><path transform="matrix(1 0 0 -1 0 841)" d="M962.708 737.8654L1095.538 737.8654" stroke="#FFFFFE" stroke-width="1.096" fill="none" /><path transform="matrix(1 0 0 -1 0 841)" d="M1095.538 737.8654L1156.645 737.8654" stroke="#FFFFFE" stroke-width="1.096" fill="none" /><path transform="matrix(1 0 0 -1 0 841)" d="M619.3701 710.2269L661.3161 710.2269" stroke="#FFFFFE" stroke-width="1.096" fill="none" /><path transform="matrix(1 0 0 -1 0 841)" d="M661.3163 710.2269L895.1283 710.2269" stroke="#FFFFFE" stroke-width="1.096" fill="none" /><path transform="matrix(1 0 0 -1 0 841)" d="M895.1279 710.2269L962.7079 710.2269" stroke="#FFFFFE" stroke-width="1.096" fill="none" /><path transform="matrix(1 0 0 -1 0 841)" d="M962.708 710.2269L1095.538 710.2269" stroke="#FFFFFE" stroke-width="1.096" fill="none" /><path transform="matrix(1 0 0 -1 0 841)" d="M1095.538 710.2269L1156.645 710.2269" stroke="#FFFFFE" stroke-width="1.096" fill="none" /><path transform="matrix(1 0 0 -1 0 841)" d="M619.3701 674.4082L661.3161 674.4082" stroke="#FFFFFE" stroke-width="1.096" fill="none" /><path transform="matrix(1 0 0 -1 0 841)" d="M661.3163 674.4082L895.1283 674.4082" stroke="#FFFFFE" stroke-width="1.096" fill="none" /><path transform="matrix(1 0 0 -1 0 841)" d="M895.1279 674.4082L962.7079 674.4082" stroke="#FFFFFE" stroke-width="1.096" fill="none" /><path transform="matrix(1 0 0 -1 0 841)" d="M962.708 674.4082L1095.538 674.4082" stroke="#FFFFFE" stroke-width="1.096" fill="none" /><path transform="matrix(1 0 0 -1 0 841)" d="M1095.538 674.4082L1156.645 674.4082" stroke="#FFFFFE" stroke-width="1.096" fill="none" /><path transform="matrix(1 0 0 -1 0 841)" d="M619.3701 638.5895L661.3161 638.5895" stroke="#FFFFFE" stroke-width="1.096" fill="none" /><path transform="matrix(1 0 0 -1 0 841)" d="M661.3163 638.5895L895.1283 638.5895" stroke="#FFFFFE" stroke-width="1.096" fill="none" /><path transform="matrix(1 0 0 -1 0 841)" d="M895.1279 638.5895L962.7079 638.5895" stroke="#FFFFFE" stroke-width="1.096" fill="none" /><path transform="matrix(1 0 0 -1 0 841)" d="M962.708 638.5895L1095.538 638.5895" stroke="#FFFFFE" stroke-width="1.096" fill="none" /><path transform="matrix(1 0 0 -1 0 841)" d="M1095.538 638.5895L1156.645 638.5895" stroke="#FFFFFE" stroke-width="1.096" fill="none" /><path transform="matrix(1 0 0 -1 0 841)" d="M619.3701 610.951L661.3161 610.951" stroke="#FFFFFE" stroke-width="1.096" fill="none" /><path transform="matrix(1 0 0 -1 0 841)" d="M661.3163 610.951L895.1283 610.951" stroke="#FFFFFE" stroke-width="1.096" fill="none" /><path transform="matrix(1 0 0 -1 0 841)" d="M895.1279 610.951L962.7079 610.951" stroke="#FFFFFE" stroke-width="1.096" fill="none" /><path transform="matrix(1 0 0 -1 0 841)" d="M962.708 610.951L1095.538 610.951" stroke="#FFFFFE" stroke-width="1.096" fill="none" /><path transform="matrix(1 0 0 -1 0 841)" d="M1095.538 610.951L1156.645 610.951" stroke="#FFFFFE" stroke-width="1.096" fill="none" /><path transform="matrix(1 0 0 -1 0 841)" d="M619.3701 583.3125L661.3161 583.3125" stroke="#FFFFFE" stroke-width="1.096" fill="none" /><path transform="matrix(1 0 0 -1 0 841)" d="M661.3163 583.3125L895.1283 583.3125" stroke="#FFFFFE" stroke-width="1.096" fill="none" /><path transform="matrix(1 0 0 -1 0 841)" d="M895.1279 583.3125L962.7079 583.3125" stroke="#FFFFFE" stroke-width="1.096" fill="none" /><path transform="matrix(1 0 0 -1 0 841)" d="M962.708 583.3125L1095.538 583.3125" stroke="#FFFFFE" stroke-width="1.096" fill="none" /><path transform="matrix(1 0 0 -1 0 841)" d="M1095.538 583.3125L1156.645 583.3125" stroke="#FFFFFE" stroke-width="1.096" fill="none" /><path transform="matrix(1 0 0 -1 0 841)" d="M619.3701 555.674L661.3161 555.674" stroke="#FFFFFE" stroke-width="1.096" fill="none" /><path transform="matrix(1 0 0 -1 0 841)" d="M661.3163 555.674L895.1283 555.674" stroke="#FFFFFE" stroke-width="1.096" fill="none" /><path transform="matrix(1 0 0 -1 0 841)" d="M895.1279 555.674L962.7079 555.674" stroke="#FFFFFE" stroke-width="1.096" fill="none" /><path transform="matrix(1 0 0 -1 0 841)" d="M962.708 555.674L1095.538 555.674" stroke="#FFFFFE" stroke-width="1.096" fill="none" /><path transform="matrix(1 0 0 -1 0 841)" d="M1095.538 555.674L1156.645 555.674" stroke="#FFFFFE" stroke-width="1.096" fill="none" /><path transform="matrix(1 0 0 -1 0 841)" d="M619.3701 526.9966L661.3161 526.9966" stroke="#FFFFFE" stroke-width="1.096" fill="none" /><path transform="matrix(1 0 0 -1 0 841)" d="M661.3163 526.9966L895.1283 526.9966" stroke="#FFFFFE" stroke-width="1.096" fill="none" /><path transform="matrix(1 0 0 -1 0 841)" d="M895.1279 526.9966L962.7079 526.9966" stroke="#FFFFFE" stroke-width="1.096" fill="none" /><path transform="matrix(1 0 0 -1 0 841)" d="M962.708 526.9966L1095.538 526.9966" stroke="#FFFFFE" stroke-width="1.096" fill="none" /><path transform="matrix(1 0 0 -1 0 841)" d="M1095.538 526.9966L1156.645 526.9966" stroke="#FFFFFE" stroke-width="1.096" fill="none" /><path transform="matrix(1 0 0 -1 0 841)" d="M619.3701 499.3581L661.3161 499.3581" stroke="#FFFFFE" stroke-width="1.096" fill="none" /><path transform="matrix(1 0 0 -1 0 841)" d="M661.3163 499.3581L895.1283 499.3581" stroke="#FFFFFE" stroke-width="1.096" fill="none" /><path transform="matrix(1 0 0 -1 0 841)" d="M895.1279 499.3581L962.7079 499.3581" stroke="#FFFFFE" stroke-width="1.096" fill="none" /><path transform="matrix(1 0 0 -1 0 841)" d="M962.708 499.3581L1095.538 499.3581" stroke="#FFFFFE" stroke-width="1.096" fill="none" /><path transform="matrix(1 0 0 -1 0 841)" d="M1095.538 499.3581L1156.645 499.3581" stroke="#FFFFFE" stroke-width="1.096" fill="none" /><path transform="matrix(1 0 0 -1 0 841)" d="M619.3701 471.7196L661.3161 471.7196" stroke="#FFFFFE" stroke-width="1.096" fill="none" /><path transform="matrix(1 0 0 -1 0 841)" d="M661.3163 471.7196L895.1283 471.7196" stroke="#FFFFFE" stroke-width="1.096" fill="none" /><path transform="matrix(1 0 0 -1 0 841)" d="M895.1279 471.7196L962.7079 471.7196" stroke="#FFFFFE" stroke-width="1.096" fill="none" /><path transform="matrix(1 0 0 -1 0 841)" d="M962.708 471.7196L1095.538 471.7196" stroke="#FFFFFE" stroke-width="1.096" fill="none" /><path transform="matrix(1 0 0 -1 0 841)" d="M1095.538 471.7196L1156.645 471.7196" stroke="#FFFFFE" stroke-width="1.096" fill="none" /><path transform="matrix(1 0 0 -1 0 841)" d="M619.3701 444.0811L661.3161 444.0811" stroke="#FFFFFE" stroke-width="1.096" fill="none" /><path transform="matrix(1 0 0 -1 0 841)" d="M661.3163 444.0811L895.1283 444.0811" stroke="#FFFFFE" stroke-width="1.096" fill="none" /><path transform="matrix(1 0 0 -1 0 841)" d="M895.1279 444.0811L962.7079 444.0811" stroke="#FFFFFE" stroke-width="1.096" fill="none" /><path transform="matrix(1 0 0 -1 0 841)" d="M962.708 444.0811L1095.538 444.0811" stroke="#FFFFFE" stroke-width="1.096" fill="none" /><path transform="matrix(1 0 0 -1 0 841)" d="M1095.538 444.0811L1156.645 444.0811" stroke="#FFFFFE" stroke-width="1.096" fill="none" /><path transform="matrix(1 0 0 -1 0 841)" d="M619.3701 419.224L661.3161 419.224" stroke="#FFFFFE" stroke-width="1.096" fill="none" /><path transform="matrix(1 0 0 -1 0 841)" d="M661.3163 419.224L895.1283 419.224" stroke="#FFFFFE" stroke-width="1.096" fill="none" /><path transform="matrix(1 0 0 -1 0 841)" d="M895.1279 419.224L962.7079 419.224" stroke="#FFFFFE" stroke-width="1.096" fill="none" /><path transform="matrix(1 0 0 -1 0 841)" d="M962.708 419.224L1095.538 419.224" stroke="#FFFFFE" stroke-width="1.096" fill="none" /><path transform="matrix(1 0 0 -1 0 841)" d="M1095.538 419.224L1156.645 419.224" stroke="#FFFFFE" stroke-width="1.096" fill="none" /><path transform="matrix(1 0 0 -1 0 841)" d="M619.3701 396.4572L661.3161 396.4572" stroke="#FFFFFE" stroke-width="1.096" fill="none" /><path transform="matrix(1 0 0 -1 0 841)" d="M661.3163 396.4572L895.1283 396.4572" stroke="#FFFFFE" stroke-width="1.096" fill="none" /><path transform="matrix(1 0 0 -1 0 841)" d="M895.1279 396.4572L962.7079 396.4572" stroke="#FFFFFE" stroke-width="1.096" fill="none" /><path transform="matrix(1 0 0 -1 0 841)" d="M962.708 396.4572L1095.538 396.4572" stroke="#FFFFFE" stroke-width="1.096" fill="none" /><path transform="matrix(1 0 0 -1 0 841)" d="M1095.538 396.4572L1156.645 396.4572" stroke="#FFFFFE" stroke-width="1.096" fill="none" /><path transform="matrix(1 0 0 -1 0 841)" d="M619.3701 368.8187L661.3161 368.8187" stroke="#FFFFFE" stroke-width="1.096" fill="none" /><path transform="matrix(1 0 0 -1 0 841)" d="M661.3163 368.8187L895.1283 368.8187" stroke="#FFFFFE" stroke-width="1.096" fill="none" /><path transform="matrix(1 0 0 -1 0 841)" d="M895.1279 368.8187L962.7079 368.8187" stroke="#FFFFFE" stroke-width="1.096" fill="none" /><path transform="matrix(1 0 0 -1 0 841)" d="M962.708 368.8187L1095.538 368.8187" stroke="#FFFFFE" stroke-width="1.096" fill="none" /><path transform="matrix(1 0 0 -1 0 841)" d="M1095.538 368.8187L1156.645 368.8187" stroke="#FFFFFE" stroke-width="1.096" fill="none" /><path transform="matrix(1 0 0 -1 0 841)" d="M619.3701 343.9616L661.3161 343.9616" stroke="#FFFFFE" stroke-width="1.096" fill="none" /><path transform="matrix(1 0 0 -1 0 841)" d="M661.3163 343.9616L895.1283 343.9616" stroke="#FFFFFE" stroke-width="1.096" fill="none" /><path transform="matrix(1 0 0 -1 0 841)" d="M895.1279 343.9616L962.7079 343.9616" stroke="#FFFFFE" stroke-width="1.096" fill="none" /><path transform="matrix(1 0 0 -1 0 841)" d="M962.708 343.9616L1095.538 343.9616" stroke="#FFFFFE" stroke-width="1.096" fill="none" /><path transform="matrix(1 0 0 -1 0 841)" d="M1095.538 343.9616L1156.645 343.9616" stroke="#FFFFFE" stroke-width="1.096" fill="none" /><path transform="matrix(1 0 0 -1 0 841)" d="M619.3701 318.4325L661.3161 318.4325" stroke="#FFFFFE" stroke-width="1.096" fill="none" /><path transform="matrix(1 0 0 -1 0 841)" d="M661.3163 318.4325L895.1283 318.4325" stroke="#FFFFFE" stroke-width="1.096" fill="none" /><path transform="matrix(1 0 0 -1 0 841)" d="M895.1279 318.4325L962.7079 318.4325" stroke="#FFFFFE" stroke-width="1.096" fill="none" /><path transform="matrix(1 0 0 -1 0 841)" d="M962.708 318.4325L1095.538 318.4325" stroke="#FFFFFE" stroke-width="1.096" fill="none" /><path transform="matrix(1 0 0 -1 0 841)" d="M1095.538 318.4325L1156.645 318.4325" stroke="#FFFFFE" stroke-width="1.096" fill="none" /><path transform="matrix(1 0 0 -1 0 841)" d="M619.3701 282.6138L661.3161 282.6138" stroke="#FFFFFE" stroke-width="1.096" fill="none" /><path transform="matrix(1 0 0 -1 0 841)" d="M661.3163 282.6138L895.1283 282.6138" stroke="#FFFFFE" stroke-width="1.096" fill="none" /><path transform="matrix(1 0 0 -1 0 841)" d="M895.1279 282.6138L962.7079 282.6138" stroke="#FFFFFE" stroke-width="1.096" fill="none" /><path transform="matrix(1 0 0 -1 0 841)" d="M962.708 282.6138L1095.538 282.6138" stroke="#FFFFFE" stroke-width="1.096" fill="none" /><path transform="matrix(1 0 0 -1 0 841)" d="M1095.538 282.6138L1156.645 282.6138" stroke="#FFFFFE" stroke-width="1.096" fill="none" /><path transform="matrix(1 0 0 -1 0 841)" d="M619.3701 246.7951L661.3161 246.7951" stroke="#FFFFFE" stroke-width="1.096" fill="none" /><path transform="matrix(1 0 0 -1 0 841)" d="M661.3163 246.7951L895.1283 246.7951" stroke="#FFFFFE" stroke-width="1.096" fill="none" /><path transform="matrix(1 0 0 -1 0 841)" d="M895.1279 246.7951L962.7079 246.7951" stroke="#FFFFFE" stroke-width="1.096" fill="none" /><path transform="matrix(1 0 0 -1 0 841)" d="M962.708 246.7951L1095.538 246.7951" stroke="#FFFFFE" stroke-width="1.096" fill="none" /><path transform="matrix(1 0 0 -1 0 841)" d="M1095.538 246.7951L1156.645 246.7951" stroke="#FFFFFE" stroke-width="1.096" fill="none" /><path transform="matrix(1 0 0 -1 0 841)" d="M619.3701 210.9764L661.3161 210.9764" stroke="#FFFFFE" stroke-width="1.096" fill="none" /><path transform="matrix(1 0 0 -1 0 841)" d="M661.3163 210.9764L895.1283 210.9764" stroke="#FFFFFE" stroke-width="1.096" fill="none" /><path transform="matrix(1 0 0 -1 0 841)" d="M895.1279 210.9764L962.7079 210.9764" stroke="#FFFFFE" stroke-width="1.096" fill="none" /><path transform="matrix(1 0 0 -1 0 841)" d="M962.708 210.9764L1095.538 210.9764" stroke="#FFFFFE" stroke-width="1.096" fill="none" /><path transform="matrix(1 0 0 -1 0 841)" d="M1095.538 210.9764L1156.645 210.9764" stroke="#FFFFFE" stroke-width="1.096" fill="none" /><path transform="matrix(1 0 0 -1 0 841)" d="M619.3701 175.1578L661.3161 175.1578" stroke="#FFFFFE" stroke-width="1.096" fill="none" /><path transform="matrix(1 0 0 -1 0 841)" d="M661.3163 175.1578L895.1283 175.1578" stroke="#FFFFFE" stroke-width="1.096" fill="none" /><path transform="matrix(1 0 0 -1 0 841)" d="M895.1279 175.1578L962.7079 175.1578" stroke="#FFFFFE" stroke-width="1.096" fill="none" /><path transform="matrix(1 0 0 -1 0 841)" d="M962.708 175.1578L1095.538 175.1578" stroke="#FFFFFE" stroke-width="1.096" fill="none" /><path transform="matrix(1 0 0 -1 0 841)" d="M1095.538 175.1578L1156.645 175.1578" stroke="#FFFFFE" stroke-width="1.096" fill="none" /><path transform="matrix(1 0 0 -1 0 841)" d="M619.3701 150.3007L661.3161 150.3007" stroke="#FFFFFE" stroke-width="1.096" fill="none" /><path transform="matrix(1 0 0 -1 0 841)" d="M661.3163 150.3007L895.1283 150.3007" stroke="#FFFFFE" stroke-width="1.096" fill="none" /><path transform="matrix(1 0 0 -1 0 841)" d="M895.1279 150.3007L962.7079 150.3007" stroke="#FFFFFE" stroke-width="1.096" fill="none" /><path transform="matrix(1 0 0 -1 0 841)" d="M962.708 150.3007L1095.538 150.3007" stroke="#FFFFFE" stroke-width="1.096" fill="none" /><path transform="matrix(1 0 0 -1 0 841)" d="M1095.538 150.3007L1156.645 150.3007" stroke="#FFFFFE" stroke-width="1.096" fill="none" /><path transform="matrix(1 0 0 -1 0 841)" d="M619.3701 125.4437L661.3161 125.4437" stroke="#FFFFFE" stroke-width="1.096" fill="none" /><path transform="matrix(1 0 0 -1 0 841)" d="M661.3163 125.4437L895.1283 125.4437" stroke="#FFFFFE" stroke-width="1.096" fill="none" /><path transform="matrix(1 0 0 -1 0 841)" d="M895.1279 125.4437L962.7079 125.4437" stroke="#FFFFFE" stroke-width="1.096" fill="none" /><path transform="matrix(1 0 0 -1 0 841)" d="M962.708 125.4437L1095.538 125.4437" stroke="#FFFFFE" stroke-width="1.096" fill="none" /><path transform="matrix(1 0 0 -1 0 841)" d="M1095.538 125.4437L1156.645 125.4437" stroke="#FFFFFE" stroke-width="1.096" fill="none" /><path transform="matrix(1 0 0 -1 0 841)" d="M619.3701 100.5866L661.3161 100.5866" stroke="#FFFFFE" stroke-width="1.096" fill="none" /><path transform="matrix(1 0 0 -1 0 841)" d="M661.3163 100.5866L895.1283 100.5866" stroke="#FFFFFE" stroke-width="1.096" fill="none" /><path transform="matrix(1 0 0 -1 0 841)" d="M895.1279 100.5866L962.7079 100.5866" stroke="#FFFFFE" stroke-width="1.096" fill="none" /><path transform="matrix(1 0 0 -1 0 841)" d="M962.708 100.5866L1095.538 100.5866" stroke="#FFFFFE" stroke-width="1.096" fill="none" /><path transform="matrix(1 0 0 -1 0 841)" d="M1095.538 100.5866L1156.645 100.5866" stroke="#FFFFFE" stroke-width="1.096" fill="none" /><path transform="matrix(1 0 0 -1 0 841)" d="M619.3701 81.1283L661.3161 81.1283" stroke="#FFFFFE" stroke-width="1.096" fill="none" /><path transform="matrix(1 0 0 -1 0 841)" d="M661.3163 81.1283L895.1283 81.1283" stroke="#FFFFFE" stroke-width="1.096" fill="none" /><path transform="matrix(1 0 0 -1 0 841)" d="M895.1279 81.1283L962.7079 81.1283" stroke="#FFFFFE" stroke-width="1.096" fill="none" /><path transform="matrix(1 0 0 -1 0 841)" d="M962.708 81.1283L1095.538 81.1283" stroke="#FFFFFE" stroke-width="1.096" fill="none" /><path transform="matrix(1 0 0 -1 0 841)" d="M1095.538 81.1283L1156.645 81.1283" stroke="#FFFFFE" stroke-width="1.096" fill="none" /><path transform="matrix(1 0 0 -1 0 841)" d="M619.3701 61.6699L661.3161 61.6699" stroke="#FFFFFE" stroke-width="1.096" fill="none" /><path transform="matrix(1 0 0 -1 0 841)" d="M661.3163 61.6699L895.1283 61.6699" stroke="#FFFFFE" stroke-width="1.096" fill="none" /><path transform="matrix(1 0 0 -1 0 841)" d="M895.1279 61.6699L962.7079 61.6699" stroke="#FFFFFE" stroke-width="1.096" fill="none" /><path transform="matrix(1 0 0 -1 0 841)" d="M962.708 61.6699L1095.538 61.6699" stroke="#FFFFFE" stroke-width="1.096" fill="none" /><path transform="matrix(1 0 0 -1 0 841)" d="M1095.538 61.6699L1156.645 61.6699" stroke="#FFFFFE" stroke-width="1.096" fill="none" /></g></g></g></svg>