<svg xmlns="http://www.w3.org/2000/svg" xmlns:xlink="http://www.w3.org/1999/xlink" id="body_7" preserveAspectRatio="xMinYMin meet" viewBox="0 0 1587 1121"><defs><clipPath id="1"><path d="M0 841L0 -0.8900146L0 -0.8900146L1190.55 -0.8900146L1190.55 -0.8900146L1190.55 841L1190.55 841L0 841z" /></clipPath><clipPath id="2"><path d="M1101.26 759.173L1165.749 759.173L1165.749 759.173L1165.749 680.902L1165.749 680.902L1101.26 680.902z" /></clipPath><clipPath id="3"><path d="M1063.701 395.429L1165.748 395.429L1165.748 395.429L1165.748 486.882L1165.748 486.882L1063.701 486.882z" /></clipPath><clipPath id="4"><path d="M1059.448 245.063L1165.747 245.063L1165.747 245.063L1165.747 138.764L1165.747 138.764L1059.448 138.764z" /></clipPath><clipPath id="5"><path d="M477.166 662.477L559.843 662.477L559.843 662.477L559.843 745.353L559.843 745.353L477.166 745.353z" /></clipPath><clipPath id="6"><path d="M477.166 408.717L559.843 408.717L559.843 408.717L559.843 489.587L559.843 489.587L477.166 489.587z" /></clipPath><clipPath id="7"><path d="M477.166 261.693L581.103 261.693L581.103 261.693L581.103 356.276L581.103 356.276L477.166 356.276z" /></clipPath><clipPath id="8"><path d="M0 841L1190.551 841L1190.551 841L1190.551 -0.8900146L1190.551 -0.8900146L0 -0.8900146z" /></clipPath></defs><g transform="matrix(1.333333 0 0 1.333333 0 0)"><g><g clip-path="url(#1)"><g clip-path="url(#2)"><g transform="matrix(0.7493891 0 0 0.7481756 1101.26 680.9016)"><g transform="matrix(1 0 0 1 0 0)"><image x="0" y="0" xlink:href="img_22.png" width="87" height="106" /></g></g></g><g clip-path="url(#3)"><g transform="matrix(0.7448704 0 0 0.7496127 1063.701 395.4291)"><g transform="matrix(1 0 0 1 0 0)"><image x="0" y="0" xlink:href="img_23.png" width="137" height="122" /></g></g></g><g clip-path="url(#4)"><g transform="matrix(0.7485859 0 0 0.7485859 1059.449 138.7639)"><g transform="matrix(1 0 0 1 0 0)"><image x="0" y="0" xlink:href="img_24.png" width="142" height="142" /></g></g></g><g clip-path="url(#5)"><g transform="matrix(0.7448393 0 0 0.7466309 477.1653 662.4767)"><g transform="matrix(1 0 0 1 0 0)"><image x="0" y="0" xlink:href="img_25.png" width="111" height="111" /></g></g></g><g clip-path="url(#6)"><g transform="matrix(0.7448393 0 0 0.7487971 477.1653 408.7165)"><g transform="matrix(1 0 0 1 0 0)"><image x="0" y="0" xlink:href="img_26.png" width="111" height="108" /></g></g></g><g clip-path="url(#7)"><g transform="matrix(0.7477484 0 0 0.7449486 477.1653 260.6138)"><g transform="matrix(1 0 0 1 0 0)"><image x="0" y="0" xlink:href="img_27.png" width="139" height="130" /></g></g></g><path transform="matrix(1 0 0 -1 0 841)" d="M44.2798 754.0166L377.0078 754.0166" stroke="#86BAE4" stroke-width="6" fill="none" /><path transform="matrix(1 0 0 -1 0 841)" d="M403.0866 462.7979L596.4096 462.7979" stroke="#EDE94D" stroke-width="6" fill="none" /><path transform="matrix(1 0 0 -1 0 841)" d="M46.7717 343.9082L346.9017 343.9082" stroke="#86B9E4" stroke-width="6" fill="none" /><path transform="matrix(1 0 0 -1 0 841)" d="M408.189 83.3037L596.409 83.3037" stroke="#EAE956" stroke-width="6" fill="none" /><path transform="matrix(1 0 0 -1 0 841)" d="M596.4094 774.8516L784.6294 774.8516" stroke="#ECE94D" stroke-width="6" fill="none" /><g clip-path="url(#8)"><path transform="matrix(1 0 0 -1 0 841)" d="M864.567 582.3076L1187.374 582.3076" stroke="#86B9E4" stroke-width="6" fill="none" /></g><path transform="matrix(1 0 0 -1 0 841)" d="M595.2756 351.4141L788.5986 351.4141" stroke="#EAE856" stroke-width="6" fill="none" /><path transform="matrix(1 0 0 -1 0 841)" d="M874.1223 78.8271L1174.252 78.8271" stroke="#86B9E4" stroke-width="6" fill="none" /><path transform="matrix(1 0 0 -1 0 841)" d="M47.28 790.677L56.28 790.677L56.28 790.677L56.28 821.693L56.28 821.693L47.28 821.693z" stroke="#EFD74B" stroke-width="6" fill="#EFD746" fill-rule="winding" /></g></g></g></svg>