<svg xmlns="http://www.w3.org/2000/svg" xmlns:xlink="http://www.w3.org/1999/xlink" id="body_10" preserveAspectRatio="xMinYMin meet" viewBox="0 0 1587 1121"><defs><clipPath id="1"><path d="M0 841L0 -0.8900146L0 -0.8900146L1190.55 -0.8900146L1190.55 -0.8900146L1190.55 841L1190.55 841L0 841z" /></clipPath><clipPath id="2"><path d="M0.024 841L588.188 841L588.188 841L588.188 -0.8900146L588.188 -0.8900146L0.024 -0.8900146z" /></clipPath><clipPath id="3"><path d="M879.24 348.27L1151.783 348.27L1151.783 348.27L1151.783 133.454L1151.783 133.454L879.24 133.454z" /></clipPath><clipPath id="4"><path d="M612.783 277.85L869.7371 277.85L869.7371 277.85L869.7371 133.453L869.7371 133.453L612.783 133.453z" /></clipPath><clipPath id="5"><path d="M985.953 710.606L1148.032 710.606L1148.032 710.606L1148.032 369.032L1148.032 369.032L985.953 369.032z" /></clipPath></defs><g transform="matrix(1.333333 0 0 1.333333 0 0)"><g><g clip-path="url(#1)"><path transform="matrix(1 0 0 -1 0 841)" d="M44.551 785.338L56.551 785.338L56.551 785.338L56.551 819.354L56.551 819.354L44.551 819.354z" stroke="#FFFFFE" stroke-width="0.283" fill="#2955A6" fill-rule="winding" /><g clip-path="url(#2)"><g transform="matrix(0.7496833 0 0 0.7499582 -1.062224 -0.8896484)"><g transform="matrix(1 0 0 1 0 0)"><image x="0" y="0" xlink:href="img_37.png" width="786" height="1124" /></g></g></g><g clip-path="url(#3)"><g transform="matrix(0.7494847 0 0 0.7498416 879.2401 133.4531)"><g transform="matrix(1 0 0 1 0 0)"><image x="0" y="0" xlink:href="img_38.png" width="365" height="288" /></g></g></g><path transform="matrix(1 0 0 -1 0 841)" d="M879.24 492.731L1151.783 492.731L1151.783 492.731L1151.783 707.547L1151.783 707.547L879.24 707.547z" stroke="#000000" stroke-width="1" fill="none" /><g clip-path="url(#4)"><g transform="matrix(0.7490933 0 0 0.7470661 611.6055 132.0686)"><g transform="matrix(1 0 0 1 0 0)"><image x="0" y="0" xlink:href="img_39.png" width="346" height="197" /></g></g></g><path transform="matrix(1 0 0 -1 0 841)" d="M612.783 563.15L869.736 563.15L869.736 563.15L869.736 707.547L869.736 707.547L612.783 707.547z" stroke="#000000" stroke-width="1" fill="none" /><g clip-path="url(#5)"><g transform="matrix(0.7471814 0 0 0.7484398 984.7314 369.0315)"><g transform="matrix(1 0 0 1 0 0)"><image x="0" y="0" xlink:href="img_40.png" width="220" height="458" /></g></g></g><path transform="matrix(1 0 0 -1 0 841)" d="M637.437 784.252L649.437 784.252L649.437 784.252L649.437 818.268L649.437 818.268L637.437 818.268z" stroke="#FFFFFE" stroke-width="0.283" fill="#F4CF56" fill-rule="winding" /></g></g></g></svg>