<svg xmlns="http://www.w3.org/2000/svg" xmlns:xlink="http://www.w3.org/1999/xlink" id="body_9" preserveAspectRatio="xMinYMin meet" viewBox="0 0 1587 1121"><defs><clipPath id="1"><path d="M0 841L0 -0.8900146L0 -0.8900146L1190.55 -0.8900146L1190.55 -0.8900146L1190.55 841L1190.55 841L0 841z" /></clipPath><clipPath id="2"><path d="M0 841L1190.551 841L1190.551 841L1190.551 -0.8900146L1190.551 -0.8900146L0 -0.8900146z" /></clipPath><clipPath id="3"><path d="M121.599 89.75201L195.098 89.75201L195.098 89.75201L195.098 236.256L195.098 236.256L121.599 236.256z" /></clipPath><clipPath id="4"><path d="M74.13 524.051L219.881 524.051L219.881 524.051L219.881 383.068L219.881 383.068L74.13 383.068z" /></clipPath></defs><g transform="matrix(1.333333 0 0 1.333333 0 0)"><g><g clip-path="url(#1)"><path transform="matrix(1 0 0 -1 0 841)" d="M61.276 810.284L73.276 810.284L73.276 810.284L73.276 841.89L73.276 841.89L61.276 841.89z" stroke="none" fill="#A456A2" fill-rule="winding" /><g clip-path="url(#2)"><path transform="matrix(1 0 0 -1 0 841)" d="M61.276 810.283L73.276 810.283L73.276 810.283L73.276 844.299L73.276 844.299L61.276 844.299z" stroke="#000000" stroke-width="0.283" fill="none" /></g><g clip-path="url(#3)"><g transform="matrix(0.4974455 0 0 0.4997331 121.5989 89.75195)"><g transform="matrix(1 0 0 1 0 0)"><image x="0" y="0" xlink:href="img_32.png" width="150" height="295" /></g></g></g><path transform="matrix(1 0 0 -1 0 841)" d="M88.4524 753.6182L88.4524 604.7443L88.4524 604.7443L88.4524 603.9802L88.4524 603.9802L89.2164 603.9802L89.2164 603.9802L195.0984 603.9802L195.0984 603.9802L195.8624 603.9802L195.8624 603.9802L195.8624 604.7443L195.8624 604.7443L195.8624 753.6182L195.8624 753.6182L195.8624 754.3822L195.8624 754.3822L195.0984 754.3822L195.0984 754.3822L89.2164 754.3822L89.2164 754.3822L88.4524 754.3822L88.4524 754.3822L88.4524 753.6182z" stroke="#000000" stroke-width="0.306" fill="none" /><path transform="matrix(1 0 0 -1 0 841)" d="M89.981 605.508L194.335 605.508L194.335 605.508L194.335 752.854L194.335 752.854L89.981 752.854z" stroke="#000000" stroke-width="0.306" fill="none" /><g clip-path="url(#4)"><g transform="matrix(0.4999176 0 0 0.4983536 72.90512 382.0203)"><g transform="matrix(1 0 0 1 0 0)"><image x="0" y="0" xlink:href="img_33.png" width="294" height="285" /></g></g></g><path transform="matrix(1 0 0 -1 0 841)" d="M73.5363 457.933L73.5363 302.843L73.5363 302.843L73.5363 302.249L73.5363 302.249L74.1303 302.249L74.1303 302.249L224.4033 302.249L224.4033 302.249L224.9973 302.249L224.9973 302.249L224.9973 302.843L224.9973 302.843L224.9973 457.933L224.9973 457.933L224.9973 458.527L224.9973 458.527L224.4033 458.527L224.4033 458.527L74.1303 458.527L74.1303 458.527L73.5363 458.527L73.5363 458.527L73.5363 457.933z" stroke="#000000" stroke-width="0.238" fill="none" /><path transform="matrix(1 0 0 -1 0 841)" d="M74.724 303.436L223.81 303.436L223.81 303.436L223.81 457.339L223.81 457.339L74.724 457.339z" stroke="#000000" stroke-width="0.238" fill="none" /><path transform="matrix(1 0 0 -1 0 841)" d="M75.1775 151.1973L560.9765 151.1973" stroke="#839097" stroke-width="6" fill="none" /><path transform="matrix(1 0 0 -1 0 841)" d="M651.969 381.732L881.575 381.732L881.575 381.732L881.575 785.197L881.575 785.197L651.969 785.197z" stroke="none" fill="#D1D3D4" fill-rule="winding" /><g transform="matrix(0.4995197 0 0 0.4999561 651.9685 55.80316)"><g transform="matrix(1 0 0 1 0 0)"><image x="0" y="0" xlink:href="img_34.png" width="579" height="807" /></g></g><g transform="matrix(0.4997362 0 0 0.4998649 923.1924 328.9084)"><g transform="matrix(1 0 0 1 0 0)"><image x="0" y="0" xlink:href="img_35.png" width="535" height="758" /></g></g></g></g></g></svg>