<svg xmlns="http://www.w3.org/2000/svg" xmlns:xlink="http://www.w3.org/1999/xlink" id="body_4" preserveAspectRatio="xMinYMin meet" viewBox="0 0 1587 1121"><defs><clipPath id="1"><path d="M0 841L0 -0.8900146L0 -0.8900146L1190.55 -0.8900146L1190.55 -0.8900146L1190.55 841L1190.55 841L0 841z" /></clipPath><clipPath id="2"><path d="M595.275 837.693L1190.551 837.693L1190.551 837.693L1190.551 -0.8889771L1190.551 -0.8889771L595.275 -0.8889771z" /></clipPath><clipPath id="3"><path d="M0 841L1190.551 841L1190.551 841L1190.551 -0.8900146L1190.551 -0.8900146L0 -0.8900146z" /></clipPath><clipPath id="4"><path d="M0 841L1190.551 841L1190.551 841L1190.551 -0.8900146L1190.551 -0.8900146L0 -0.8900146z" /></clipPath><clipPath id="5"><path d="M0 841L1190.551 841L1190.551 841L1190.551 -0.8900146L1190.551 -0.8900146L0 -0.8900146z" /></clipPath><clipPath id="6"><path d="M0 841L1190.551 841L1190.551 841L1190.551 -0.8900146L1190.551 -0.8900146L0 -0.8900146z" /></clipPath><clipPath id="7"><path d="M0 841L1190.551 841L1190.551 841L1190.551 -0.8900146L1190.551 -0.8900146L0 -0.8900146z" /></clipPath><clipPath id="8"><path d="M0 841L1190.551 841L1190.551 841L1190.551 -0.8900146L1190.551 -0.8900146L0 -0.8900146z" /></clipPath><clipPath id="9"><path d="M0 841L1190.551 841L1190.551 841L1190.551 -0.8900146L1190.551 -0.8900146L0 -0.8900146z" /></clipPath><clipPath id="10"><path d="M0 841L1190.551 841L1190.551 841L1190.551 -0.8900146L1190.551 -0.8900146L0 -0.8900146z" /></clipPath><clipPath id="11"><path d="M213.236 104.134L594.673 104.134L594.673 104.134L594.673 316.332L594.673 316.332L213.236 316.332z" /></clipPath><clipPath id="12"><path d="M0 806.041L382.039 806.041L382.039 806.041L382.039 632.322L382.039 632.322L0 632.322z" /></clipPath><clipPath id="13"><path d="M0 841L1190.551 841L1190.551 841L1190.551 -0.8900146L1190.551 -0.8900146L0 -0.8900146z" /></clipPath></defs><g transform="matrix(1.333333 0 0 1.333333 0 0)"><g><g clip-path="url(#1)"><g clip-path="url(#2)"><g transform="matrix(0.4999088 0 0 0.4997514 594.16 -0.8898926)"><g transform="matrix(1 0 0 1 0 0)"><image x="0" y="0" xlink:href="img_07.png" width="1193" height="1678" /></g></g></g><path transform="matrix(1 0 0 -1 0 841)" d="M595.275 0L632.126 0L632.126 0L632.126 841.89L632.126 841.89L595.275 841.89z" stroke="none" fill="#E22F29" fill-rule="winding" /><path transform="matrix(1 0 0 -1 0 841)" d="M623.622 0L1190.552 0L1190.552 0L1190.552 34.016L1190.552 34.016L623.622 34.016z" stroke="none" fill="#E22F29" fill-rule="winding" /><path transform="matrix(1 0 0 -1 0 841)" d="M623.622 807.874L1162.205 807.874L1162.205 807.874L1162.205 841.89L1162.205 841.89L623.622 841.89z" stroke="none" fill="#E22F29" fill-rule="winding" /><path transform="matrix(1 0 0 -1 0 841)" d="M1153.701 0L1190.552 0L1190.552 0L1190.552 841.89L1190.552 841.89L1153.701 841.89z" stroke="none" fill="#E22F29" fill-rule="winding" /><g clip-path="url(#3)"><path transform="matrix(1 0 0 -1 0 841)" d="M692.2128 739.8153C 689.5248 723.1483 684.3248 709.3463 676.6218 698.4173C 668.9099 687.4803 657.5358 677.3663 642.4818 668.0413L642.4818 668.0413L643.5568 666.4283C 658.6108 672.8803 670.4388 680.8523 679.0408 690.3533C 687.6428 699.8453 693.7338 710.4223 697.3198 722.0733C 700.8988 733.7163 703.4108 748.1483 704.8468 765.3523C 706.6368 747.0733 709.5009 732.7333 713.4489 722.3423C 717.3889 711.9423 722.4968 702.1813 728.7719 693.0413C 735.0388 683.9013 743.0188 675.9293 752.6968 669.1163C 755.5609 673.7793 760.5758 676.2903 767.7498 676.6433L767.7498 676.6433L767.7498 679.3313C 756.9978 681.1213 747.2278 686.5893 738.4489 695.7293C 729.6618 704.8693 722.6729 716.0673 717.4818 729.3313C 712.2819 742.5873 708.6108 758.7163 706.4598 777.7183L706.4598 777.7183L711.8369 782.5573L711.8369 782.5573L695.7078 789.5463C 696.0598 773.0563 694.9008 756.4823 692.2128 739.8153z" stroke="#000000" stroke-width="4" fill="none" /><path transform="matrix(1 0 0 -1 0 841)" d="M801.2978 751.9116L819.5778 751.9116L819.5778 751.9116L810.9758 761.5896L810.9758 761.5896L805.0618 755.1376L805.0618 755.1376L801.2978 755.1376L801.2978 755.1376L801.2978 780.9446L801.2978 780.9446L806.1368 784.7076L806.1368 784.7076L793.7718 790.0836C 794.1238 783.9856 794.3088 772.3416 794.3088 755.1376L794.3088 755.1376L780.8678 755.1376C 782.6578 760.5146 784.2708 765.1676 785.7068 769.1166L785.7068 769.1166L790.5458 772.3416L790.5458 772.3416L778.1798 778.2556C 778.1798 773.2326 777.0128 765.8906 774.6858 756.2126C 772.3498 746.5356 769.2168 737.5726 765.2768 729.3316L765.2768 729.3316L766.8898 728.2566C 771.9048 735.4216 776.3828 743.3096 780.3308 751.9116L780.3308 751.9116L794.3088 751.9116L794.3088 751.9116L794.3088 719.6546C 782.4808 714.6306 773.5178 711.4046 767.4278 709.9766L767.4278 709.9766L773.3418 700.8365C 774.7698 704.0626 781.7588 708.5406 794.3088 714.2776C 794.3088 689.1856 794.1238 672.8806 793.7718 665.3536L793.7718 665.3536L801.8358 669.1166C 801.4748 678.0796 801.2978 694.2006 801.2978 717.5036L801.2978 717.5036L818.5028 727.1806L818.5028 727.1806L817.9648 729.3316L817.9648 729.3316L801.2978 722.3426L801.2978 722.3426L801.2978 751.9116zM826.8358 765.6216C 823.0728 755.0456 817.9648 744.5616 811.5128 734.1706L811.5128 734.1706L813.1258 733.0946C 818.8558 739.1856 825.1308 748.1486 831.9428 759.9766L831.9428 759.9766L841.6208 759.9766C 837.6728 739.5466 827.2808 719.8306 810.4378 700.8365L810.4378 700.8365L811.5128 699.2246C 830.8678 714.9916 843.5868 735.2456 849.6848 759.9766L849.6848 759.9766L860.9758 759.9766C 857.7498 737.7486 852.1888 720.0066 844.3088 706.7506C 836.4208 693.4866 825.4918 681.8356 811.5128 671.8046L811.5128 671.8046L812.5888 670.1916C 827.2808 678.0796 839.4698 688.7406 849.1478 702.1816C 858.8248 715.6216 865.4528 734.8846 869.0398 759.9766L869.0398 759.9766L879.2548 759.9766C 877.1048 715.8906 874.9538 691.4286 872.8028 686.5896C 870.6528 681.7516 867.9648 679.3316 864.7388 679.3316C 861.5128 679.3316 855.2378 680.4066 845.9218 682.5576L845.9218 682.5576L845.3838 680.4066C 855.7758 676.8286 860.6138 672.3426 859.8998 666.9666C 870.2918 669.1166 876.9198 673.8716 879.7928 681.2136C 882.6568 688.5556 884.9838 714.2776 886.7818 758.3636L886.7818 758.3636L890.5448 761.5896L890.5448 761.5896L881.9428 768.5786L881.9428 768.5786L878.1798 763.2026L878.1798 763.2026L833.0188 763.2026C 835.8828 769.6536 838.5708 775.7446 841.0828 781.4816L841.0828 781.4816L845.3838 784.1696L845.3838 784.1696L833.5558 790.6216C 832.8338 784.5226 830.5988 776.1896 826.8358 765.6216z" stroke="#000000" stroke-width="4" fill="none" /><path transform="matrix(1 0 0 -1 0 841)" d="M889.6849 740.0841L894.5239 735.2451C 898.4639 736.3211 902.7649 736.8581 907.4269 736.8581L907.4269 736.8581L934.3079 736.8581C 932.1579 727.5341 930.6289 722.0731 929.7389 720.4601C 928.8398 718.8481 927.4958 717.3191 925.7059 715.8911L925.7059 715.8911L932.6959 708.9011L932.6959 708.9011L936.4589 713.2021L936.4589 713.2021L981.6199 713.2021C 972.6569 701.0131 965.4908 691.6971 960.1149 685.2461C 951.8649 688.8241 941.6499 692.4111 929.4698 695.9981L929.4698 695.9981L928.9319 693.8481C 940.0379 688.4711 948.8239 683.6331 955.2759 679.3321C 961.7279 675.0311 966.4739 671.2671 969.5229 668.0411C 972.5638 664.8161 974.5378 664.2781 975.4369 666.4281C 976.3279 668.5791 976.5129 671.2671 975.9749 674.4931C 975.4369 677.7191 971.2198 680.9451 963.3409 684.1701C 970.8669 692.0501 977.1339 698.3251 982.1579 702.9871C 987.1729 707.6411 992.0109 710.5141 996.6739 711.5891L996.6739 711.5891L986.4589 721.8051L986.4589 721.8051L981.6199 716.4281L981.6199 716.4281L936.9969 716.4281C 938.7859 721.8051 940.5749 728.6091 942.3729 736.8581L942.3729 736.8581L1013.878 736.8581L1013.878 736.8581L1003.663 747.6111L1003.663 747.6111L995.0609 740.0841L995.0609 740.0841L942.9109 740.0841C 944.3389 747.2501 945.7749 754.9531 947.2119 763.2021L947.2119 763.2021L997.2109 763.2021L997.2109 763.2021L988.0719 773.4171L988.0719 773.4171L979.4689 766.4281L979.4689 766.4281L947.7489 766.4281C 948.4629 771.8041 949.3619 776.9961 950.4369 782.0191L950.4369 782.0191L954.2009 784.7071L954.2009 784.7071L942.9109 791.1591C 941.8349 781.4821 940.7599 773.2321 939.6849 766.4281L939.6849 766.4281L903.1259 766.4281L903.1259 766.4281L907.9639 761.5891C 911.9039 762.6651 916.2049 763.2021 920.8679 763.2021L920.8679 763.2021L939.1469 763.2021C 937.7109 753.8781 936.2739 746.1741 934.8459 740.0841L934.8459 740.0841L889.6849 740.0841z" stroke="#000000" stroke-width="4" fill="none" /></g><g clip-path="url(#4)"><path transform="matrix(1 0 0 -1 0 841)" d="M1082.91 789.0087C 1087.564 782.9097 1090.521 777.4497 1091.781 772.6107C 1093.032 767.7717 1094.553 765.6217 1096.351 766.1597C 1098.14 766.6967 1099.484 768.2177 1100.383 770.7288C 1101.273 773.2327 1100.921 775.8367 1099.308 778.5247C 1097.695 781.2127 1092.587 785.0607 1083.985 790.0837L1083.985 790.0837L1082.91 789.0087zM1128.071 732.5577L1120.006 741.1597L1120.006 741.1597L1115.168 735.7827L1115.168 735.7827L1088.286 735.7827C 1088.639 746.5357 1089 753.7017 1089.361 757.2888L1089.361 757.2888L1138.286 757.2888L1138.286 757.2888L1129.146 766.9658L1129.146 766.9658L1122.695 760.5137L1122.695 760.5137L1051.19 760.5137L1051.19 760.5137L1056.028 755.6757C 1059.968 756.7507 1063.37 757.2888 1066.243 757.2888L1066.243 757.2888L1081.297 757.2888C 1082.011 732.9097 1079.499 714.2777 1073.77 701.3748C 1068.033 688.4717 1057.28 677.0048 1041.512 666.9667L1041.512 666.9667L1042.05 664.8157C 1059.254 673.0647 1070.99 682.5577 1077.265 693.3107C 1083.532 704.0627 1087.211 717.1427 1088.286 732.5577L1088.286 732.5577L1115.705 732.5577C 1114.63 716.0667 1113.37 702.8947 1111.942 693.0417C 1110.506 683.1787 1108.179 678.1727 1104.953 677.9877C 1101.727 677.8117 1095.99 678.9707 1087.749 681.4827L1087.749 681.4827L1087.211 679.3317C 1096.527 675.7527 1101.366 671.0907 1101.727 665.3538C 1106.381 666.4287 1110.144 668.5787 1113.017 671.8047C 1115.882 675.0308 1117.94 681.2977 1119.2 690.6217C 1120.452 699.9387 1121.796 713.0177 1123.232 729.8687L1123.232 729.8687L1128.071 732.5577zM1065.168 713.2028L1041.512 693.8477L1041.512 693.8477L1041.512 740.0837L1041.512 740.0837L1046.351 743.3098L1046.351 743.3098L1037.749 750.8367L1037.749 750.8367L1033.448 745.4608L1033.448 745.4608L1011.943 745.4608L1011.943 745.4608L1016.781 740.6217C 1020.721 741.6967 1024.123 742.2347 1026.996 742.2347L1026.996 742.2347L1034.523 742.2347L1034.523 742.2347L1034.523 693.3107C 1034.523 691.1597 1033.801 689.1857 1032.373 687.3967L1032.373 687.3967L1039.362 678.7937C 1041.151 682.0197 1044.914 686.9427 1050.652 693.5787C 1056.381 700.2067 1061.581 706.2137 1066.243 711.5897L1066.243 711.5897L1065.168 713.2028zM1037.48 769.9227C 1038.732 765.0837 1040.437 763.0177 1042.588 763.7397C 1044.738 764.4537 1046.082 766.3358 1046.62 769.3847C 1047.157 772.4257 1045.897 775.2987 1042.856 777.9868C 1039.807 780.6757 1035.061 783.8087 1028.609 787.3958L1028.609 787.3958L1027.534 786.3207C 1032.91 780.2217 1036.22 774.7617 1037.48 769.9227z" stroke="#000000" stroke-width="4" fill="none" /></g><g clip-path="url(#5)"><path transform="matrix(1 0 0 -1 0 841)" d="M757.8196 628.5468L757.4446 628.5468C 757.3816 628.5468 757.3186 628.5148 757.2576 628.4528L757.2576 628.4528L756.9756 628.4528C 756.7886 628.4528 756.4446 628.5148 755.9446 628.6408C 754.5696 629.1398 753.2256 629.3908 751.9136 629.3908C 746.5376 629.0158 743.6636 626.3588 743.2886 621.4218C 743.6006 616.6718 746.4126 614.1708 751.7256 613.9218C 752.6636 613.9218 753.7256 613.9848 754.9136 614.1088C 755.8506 614.2968 756.6006 614.3908 757.1636 614.3908C 757.7876 615.5158 758.2886 616.6718 758.6636 617.8588L758.6636 617.8588L758.1946 617.8588C 756.8826 615.4838 754.9446 614.2968 752.3826 614.2968C 748.1316 614.7338 745.8506 617.2648 745.5386 621.8908C 745.7256 626.2648 747.9126 628.5778 752.1006 628.8278C 754.7876 628.7018 756.6006 627.4528 757.5386 625.0778L757.5386 625.0778L758.0066 625.0778L758.0066 625.0778L757.8196 628.5468z" stroke="#FFFFFE" stroke-width="2" fill="none" /><path transform="matrix(1 0 0 -1 0 841)" d="M773.6633 616.3593C 773.7253 615.1083 773.1013 614.5153 771.7883 614.5783L771.7883 614.5783L771.0383 614.5783L771.0383 614.5783L771.0383 614.1093L771.0383 614.1093L777.7883 614.1093L777.7883 614.1093L777.7883 614.5783L777.7883 614.5783L777.6013 614.5783C 776.1624 614.3903 775.5063 615.0773 775.6323 616.6403L775.6323 616.6403L775.6323 626.5783C 775.5063 627.9523 776.1313 628.6083 777.5073 628.5473L777.5073 628.5473L777.5073 629.0153L777.5073 629.0153L771.3193 629.0153L771.3193 629.0153L771.3193 628.5473L771.3193 628.5473L771.7883 628.5473C 773.1013 628.6083 773.7253 628.0463 773.6633 626.8593L773.6633 626.8593L773.6633 622.0783L773.6633 622.0783L764.2883 622.0783L764.2883 622.0783L764.2883 626.2973C 764.1003 627.9843 764.7573 628.7343 766.2573 628.5473L766.2573 628.5473L766.2573 629.0153L766.2573 629.0153L760.5383 629.0153L760.5383 629.0153L760.5383 628.5473C 761.7253 628.5473 762.2874 627.9843 762.2253 626.8593L762.2253 626.8593L762.2253 616.3593C 762.2874 615.0473 761.6633 614.4523 760.3503 614.5783L760.3503 614.5783L760.2573 614.5783L760.2573 614.5783L760.2573 614.1093L760.2573 614.1093L766.2573 614.1093L766.2573 614.1093L766.2573 614.5783L766.2573 614.5783L766.1633 614.5783C 764.7253 614.4523 764.1003 615.1403 764.2883 616.6403L764.2883 616.6403L764.2883 621.2343L764.2883 621.2343L773.6633 621.2343L773.6633 621.2343L773.6633 616.3593z" stroke="#FFFFFE" stroke-width="2" fill="none" /><path transform="matrix(1 0 0 -1 0 841)" d="M784.0693 621.7963L786.0383 627.4223L786.0383 627.4223L788.1943 621.7963L788.1943 621.7963L784.0693 621.7963zM790.1633 616.3593C 790.3503 615.9843 790.4443 615.6713 790.4443 615.4223C 790.5693 614.7333 789.9434 614.4523 788.5693 614.5783L788.5693 614.5783L788.0073 614.5783L788.0073 614.5783L788.0073 614.1093L788.0073 614.1093L794.5693 614.1093L794.5693 614.1093L794.5693 614.5783C 793.3813 614.4523 792.6624 614.9533 792.4133 616.0783L792.4133 616.0783L787.3503 629.3903L787.3503 629.3903L785.2883 629.3903L785.2883 629.3903L785.4763 628.8283L785.4763 628.8283L781.1633 616.9213C 780.6003 615.0473 779.7253 614.2643 778.5383 614.5783L778.5383 614.5783L778.5383 614.1093L778.5383 614.1093L784.0693 614.1093L784.0693 614.1093L784.0693 614.5783L784.0693 614.5783L783.6943 614.5783C 782.3193 614.5153 781.6633 614.7963 781.7253 615.4223C 781.7253 615.6713 781.7874 615.9843 781.9133 616.3593L781.9133 616.3593L782.1943 616.9213L782.1943 616.9213L783.6013 620.7653L783.6013 620.7653L788.5693 620.7653L788.5693 620.7653L790.1633 616.3593z" stroke="#FFFFFE" stroke-width="2" fill="none" /><path transform="matrix(1 0 0 -1 0 841)" d="M800.6633 628.8286C 803.7883 628.8286 805.3503 627.4836 805.3503 624.7966C 805.2883 622.1716 803.8184 620.8596 800.9443 620.8596C 800.7573 620.8596 800.5693 620.8276 800.3823 620.7656C 799.9443 620.7656 799.6323 620.7966 799.4443 620.8596L799.4443 620.8596L799.4443 628.7346C 799.7563 628.7957 800.1624 628.8286 800.6633 628.8286zM800.6633 620.3906L802.2573 620.3906C 802.8813 620.0156 803.7253 619.3276 804.7883 618.3276L804.7883 618.3276L806.3823 616.7346C 807.5073 615.4216 808.5383 614.6086 809.4763 614.2966C 810.4133 614.0476 811.8503 613.9536 813.7883 614.0156L813.7883 614.0156L813.7883 614.2966C 812.1013 614.3586 810.5073 615.1716 809.0073 616.7346L809.0073 616.7346L807.1323 618.6096C 806.1313 619.5466 805.2253 620.3586 804.4133 621.0466C 806.4133 621.7966 807.4753 623.1096 807.6003 624.9846C 807.4133 627.7336 805.2573 629.1707 801.1323 629.2966C 800.3193 629.2336 799.6934 629.2036 799.2573 629.2036L799.2573 629.2036L798.1323 629.2036C 796.9443 629.0776 795.9434 629.0156 795.1323 629.0156L795.1323 629.0156L795.1323 628.5466L795.1323 628.5466L795.6013 628.5466C 796.9133 628.6086 797.5374 627.9846 797.4753 626.6716L797.4753 626.6716L797.4753 616.5466C 797.5374 615.1086 796.8813 614.4526 795.5073 614.5786L795.5073 614.5786L795.1323 614.5786L795.1323 614.5786L795.1323 614.1096L795.1323 614.1096L801.8823 614.1096L801.8823 614.1096L801.8823 614.5786L801.8823 614.5786L801.3193 614.5786C 799.9443 614.4526 799.3184 615.0466 799.4443 616.3596L799.4443 616.3596L799.4443 620.3906L799.4443 620.3906L800.6633 620.3906z" stroke="#FFFFFE" stroke-width="2" fill="none" /><path transform="matrix(1 0 0 -1 0 841)" d="M819.5068 621.7963L821.4758 627.4223L821.4758 627.4223L823.6318 621.7963L823.6318 621.7963L819.5068 621.7963zM825.6008 616.3593C 825.7878 615.9843 825.8818 615.6713 825.8818 615.4223C 826.0068 614.7333 825.3809 614.4523 824.0068 614.5783L824.0068 614.5783L823.4448 614.5783L823.4448 614.5783L823.4448 614.1093L823.4448 614.1093L830.0068 614.1093L830.0068 614.1093L830.0068 614.5783C 828.8188 614.4523 828.0999 614.9533 827.8508 616.0783L827.8508 616.0783L822.7878 629.3903L822.7878 629.3903L820.7258 629.3903L820.7258 629.3903L820.9138 628.8283L820.9138 628.8283L816.6008 616.9213C 816.0378 615.0473 815.1628 614.2643 813.9758 614.5783L813.9758 614.5783L813.9758 614.1093L813.9758 614.1093L819.5068 614.1093L819.5068 614.1093L819.5068 614.5783L819.5068 614.5783L819.1318 614.5783C 817.7568 614.5153 817.1008 614.7963 817.1628 615.4223C 817.1628 615.6713 817.2249 615.9843 817.3508 616.3593L817.3508 616.3593L817.6318 616.9213L817.6318 616.9213L819.0388 620.7653L819.0388 620.7653L824.0068 620.7653L824.0068 620.7653L825.6008 616.3593z" stroke="#FFFFFE" stroke-width="2" fill="none" /><path transform="matrix(1 0 0 -1 0 841)" d="M845.8508 628.5468L845.4758 628.5468C 845.4128 628.5468 845.3499 628.5148 845.2888 628.4528L845.2888 628.4528L845.0068 628.4528C 844.8198 628.4528 844.4758 628.5148 843.9758 628.6408C 842.6008 629.1398 841.2568 629.3908 839.9448 629.3908C 834.5688 629.0158 831.6948 626.3588 831.3198 621.4218C 831.6318 616.6718 834.4438 614.1708 839.7568 613.9218C 840.6948 613.9218 841.7568 613.9848 842.9448 614.1088C 843.8818 614.2968 844.6318 614.3908 845.1948 614.3908C 845.8188 615.5158 846.3198 616.6718 846.6948 617.8588L846.6948 617.8588L846.2258 617.8588C 844.9138 615.4838 842.9758 614.2968 840.4138 614.2968C 836.1628 614.7338 833.8818 617.2648 833.5698 621.8908C 833.7568 626.2648 835.9438 628.5778 840.1318 628.8278C 842.8188 628.7018 844.6318 627.4528 845.5698 625.0778L845.5698 625.0778L846.0378 625.0778L846.0378 625.0778L845.8508 628.5468z" stroke="#FFFFFE" stroke-width="2" fill="none" /><path transform="matrix(1 0 0 -1 0 841)" d="M860.8508 628.1718C 861.7258 628.2338 862.3188 627.3588 862.6318 625.5468L862.6318 625.5468L863.0068 625.5468L863.0068 625.5468L862.6318 629.3908L862.6318 629.3908L862.1628 629.3908C 862.1008 629.1398 861.8499 629.0158 861.4128 629.0158L861.4128 629.0158L849.8818 629.0158C 849.6948 628.9528 849.5378 628.9838 849.4128 629.1088C 849.2258 629.1708 849.1318 629.2648 849.1318 629.3908L849.1318 629.3908L848.6628 629.3908L848.6628 629.3908L848.2878 625.5468L848.2878 625.5468L848.7568 625.5468C 849.0059 627.4218 849.5688 628.2968 850.4448 628.1718L850.4448 628.1718L854.6638 628.1718L854.6638 628.1718L854.6638 616.3588C 854.7249 615.0468 854.1008 614.4518 852.7878 614.5778L852.7878 614.5778L851.8508 614.5778L851.8508 614.5778L851.8508 614.1088L851.8508 614.1088L859.4448 614.1088L859.4448 614.1088L859.4448 614.5778L859.4448 614.5778L858.6008 614.5778C 857.1628 614.4518 856.5059 615.0468 856.6318 616.3588L856.6318 616.3588L856.6318 628.1718L856.6318 628.1718L860.8508 628.1718z" stroke="#FFFFFE" stroke-width="2" fill="none" /><path transform="matrix(1 0 0 -1 0 841)" d="M874.4446 624.0468C 874.3816 622.7958 873.9126 622.2028 873.0386 622.2658L873.0386 622.2658L868.7256 622.2658L868.7256 622.2658L868.7256 628.1718L868.7256 628.1718L873.7886 628.1718C 874.7256 628.1718 875.3196 627.3588 875.5696 625.7338L875.5696 625.7338L876.0386 625.7338L876.0386 625.7338L875.8506 629.0158L875.8506 629.0158L864.3196 629.0158L864.3196 629.0158L864.3196 628.5468L864.3196 628.5468L864.8816 628.5468C 866.1946 628.6088 866.8186 627.9848 866.7576 626.6718L866.7576 626.6718L866.7576 616.5468C 866.8816 615.1088 866.1316 614.4518 864.5066 614.5778L864.5066 614.5778L863.8506 614.5778L863.8506 614.5778L863.8506 614.1088L863.8506 614.1088L876.6006 614.1088L876.6006 614.1088L876.9756 617.6718L876.9756 617.6718L876.5076 617.6718C 876.0696 615.6708 875.1316 614.7658 873.6946 614.9528L873.6946 614.9528L870.0386 614.9528C 869.1006 614.8898 868.6626 615.3278 868.7256 616.2658L868.7256 616.2658L868.7256 621.4218L868.7256 621.4218L872.8506 621.4218C 873.7886 621.5468 874.3186 620.9208 874.4446 619.5468L874.4446 619.5468L874.9136 619.5468L874.9136 619.5468L874.9136 624.0468L874.9136 624.0468L874.4446 624.0468z" stroke="#FFFFFE" stroke-width="2" fill="none" /><path transform="matrix(1 0 0 -1 0 841)" d="M884.0071 628.8286C 887.1321 628.8286 888.6941 627.4836 888.6941 624.7966C 888.6321 622.1716 887.1621 620.8596 884.2881 620.8596C 884.1011 620.8596 883.9131 620.8276 883.7261 620.7656C 883.2881 620.7656 882.9761 620.7966 882.7881 620.8596L882.7881 620.8596L882.7881 628.7346C 883.1001 628.7957 883.5061 628.8286 884.0071 628.8286zM884.0071 620.3906L885.6011 620.3906C 886.2251 620.0156 887.0691 619.3276 888.1321 618.3276L888.1321 618.3276L889.7261 616.7346C 890.8511 615.4216 891.8821 614.6086 892.8201 614.2966C 893.7571 614.0476 895.1941 613.9536 897.1321 614.0156L897.1321 614.0156L897.1321 614.2966C 895.4451 614.3586 893.8511 615.1716 892.3511 616.7346L892.3511 616.7346L890.4761 618.6096C 889.4751 619.5466 888.5691 620.3586 887.7571 621.0466C 889.7571 621.7966 890.8191 623.1096 890.9441 624.9846C 890.7571 627.7336 888.6011 629.1707 884.4761 629.2966C 883.6631 629.2336 883.0371 629.2036 882.6011 629.2036L882.6011 629.2036L881.4761 629.2036C 880.2881 629.0776 879.2871 629.0156 878.4761 629.0156L878.4761 629.0156L878.4761 628.5466L878.4761 628.5466L878.9451 628.5466C 880.2571 628.6086 880.8811 627.9846 880.8191 626.6716L880.8191 626.6716L880.8191 616.5466C 880.8811 615.1086 880.2251 614.4526 878.8511 614.5786L878.8511 614.5786L878.4761 614.5786L878.4761 614.5786L878.4761 614.1096L878.4761 614.1096L885.2261 614.1096L885.2261 614.1096L885.2261 614.5786L885.2261 614.5786L884.6631 614.5786C 883.2881 614.4526 882.6621 615.0466 882.7881 616.3596L882.7881 616.3596L882.7881 620.3906L882.7881 620.3906L884.0071 620.3906z" stroke="#FFFFFE" stroke-width="2" fill="none" /><path transform="matrix(1 0 0 -1 0 841)" d="M908.7571 616.4531L908.7571 626.6721C 908.6311 628.0461 909.3191 628.6711 910.8201 628.5471L910.8201 628.5471L910.8201 629.0161L910.8201 629.0161L905.0071 629.0161L905.0071 629.0161L905.0071 628.5471C 906.2571 628.6082 906.8501 628.0461 906.7881 626.8591L906.7881 626.8591L906.7881 616.6401C 906.8501 615.2021 906.2571 614.5151 905.0071 614.5781L905.0071 614.5781L905.0071 614.1091L905.0071 614.1091L910.8201 614.1091L910.8201 614.1091L910.8201 614.5781C 909.2571 614.4521 908.5701 615.0781 908.7571 616.4531z" stroke="#FFFFFE" stroke-width="2" fill="none" /><path transform="matrix(1 0 0 -1 0 841)" d="M928.7258 627.3281C 928.5388 628.2031 929.2878 628.6082 930.9758 628.5471L930.9758 628.5471L930.9758 629.0151L930.9758 629.0151L925.3508 629.0151L925.3508 629.0151L925.3508 628.5471C 927.0388 628.6711 927.8188 628.0781 927.6948 626.7661L927.6948 626.7661L927.6948 617.2971L927.6948 617.2971L916.3508 629.0151L916.3508 629.0151L912.6008 629.0151L912.6008 629.0151L912.6008 628.5471C 913.4128 628.5471 914.1008 628.3591 914.6628 627.9841L914.6628 627.9841L914.6628 616.1721C 914.7249 615.0471 914.0688 614.5151 912.6948 614.5781L912.6948 614.5781L912.6008 614.5781L912.6008 614.5781L912.6008 614.1091L912.6008 614.1091L918.1318 614.1091L918.1318 614.1091L918.1318 614.5781C 916.2568 614.3901 915.4438 615.0781 915.6948 616.6401L915.6948 616.6401L915.6948 626.9531L915.6948 626.9531L928.1638 614.1091L928.1638 614.1091L928.7258 614.1091L928.7258 614.1091L928.7258 627.3281z" stroke="#FFFFFE" stroke-width="2" fill="none" /><path transform="matrix(1 0 0 -1 0 841)" d="M944.6633 628.1718C 945.5383 628.2338 946.1313 627.3588 946.4443 625.5468L946.4443 625.5468L946.8193 625.5468L946.8193 625.5468L946.4443 629.3908L946.4443 629.3908L945.9753 629.3908C 945.9133 629.1398 945.6624 629.0158 945.2253 629.0158L945.2253 629.0158L933.6943 629.0158C 933.5073 628.9528 933.3503 628.9838 933.2253 629.1088C 933.0383 629.1708 932.9443 629.2648 932.9443 629.3908L932.9443 629.3908L932.4753 629.3908L932.4753 629.3908L932.1003 625.5468L932.1003 625.5468L932.5693 625.5468C 932.8184 627.4218 933.3813 628.2968 934.2573 628.1718L934.2573 628.1718L938.4763 628.1718L938.4763 628.1718L938.4763 616.3588C 938.5374 615.0468 937.9133 614.4518 936.6003 614.5778L936.6003 614.5778L935.6633 614.5778L935.6633 614.5778L935.6633 614.1088L935.6633 614.1088L943.2573 614.1088L943.2573 614.1088L943.2573 614.5778L943.2573 614.5778L942.4133 614.5778C 940.9753 614.4518 940.3184 615.0468 940.4443 616.3588L940.4443 616.3588L940.4443 628.1718L940.4443 628.1718L944.6633 628.1718z" stroke="#FFFFFE" stroke-width="2" fill="none" /><path transform="matrix(1 0 0 -1 0 841)" d="M958.2571 624.0468C 958.1941 622.7958 957.7251 622.2028 956.8511 622.2658L956.8511 622.2658L952.5381 622.2658L952.5381 622.2658L952.5381 628.1718L952.5381 628.1718L957.6011 628.1718C 958.5381 628.1718 959.1321 627.3588 959.3821 625.7338L959.3821 625.7338L959.8511 625.7338L959.8511 625.7338L959.6631 629.0158L959.6631 629.0158L948.1321 629.0158L948.1321 629.0158L948.1321 628.5468L948.1321 628.5468L948.6941 628.5468C 950.0071 628.6088 950.6311 627.9848 950.5701 626.6718L950.5701 626.6718L950.5701 616.5468C 950.6941 615.1088 949.9441 614.4518 948.3191 614.5778L948.3191 614.5778L947.6631 614.5778L947.6631 614.5778L947.6631 614.1088L947.6631 614.1088L960.4131 614.1088L960.4131 614.1088L960.7881 617.6718L960.7881 617.6718L960.3201 617.6718C 959.8821 615.6708 958.9441 614.7658 957.5071 614.9528L957.5071 614.9528L953.8511 614.9528C 952.9131 614.8898 952.4751 615.3278 952.5381 616.2658L952.5381 616.2658L952.5381 621.4218L952.5381 621.4218L956.6631 621.4218C 957.6011 621.5468 958.1311 620.9208 958.2571 619.5468L958.2571 619.5468L958.7261 619.5468L958.7261 619.5468L958.7261 624.0468L958.7261 624.0468L958.2571 624.0468z" stroke="#FFFFFE" stroke-width="2" fill="none" /><path transform="matrix(1 0 0 -1 0 841)" d="M967.8196 628.8286C 970.9446 628.8286 972.5066 627.4836 972.5066 624.7966C 972.4446 622.1716 970.9746 620.8596 968.1006 620.8596C 967.9136 620.8596 967.7256 620.8276 967.5386 620.7656C 967.1006 620.7656 966.7886 620.7966 966.6006 620.8596L966.6006 620.8596L966.6006 628.7346C 966.9126 628.7957 967.3186 628.8286 967.8196 628.8286zM967.8196 620.3906L969.4136 620.3906C 970.0376 620.0156 970.8816 619.3276 971.9446 618.3276L971.9446 618.3276L973.5386 616.7346C 974.6636 615.4216 975.6946 614.6086 976.6326 614.2966C 977.5696 614.0476 979.0066 613.9536 980.9446 614.0156L980.9446 614.0156L980.9446 614.2966C 979.2576 614.3586 977.6636 615.1716 976.1636 616.7346L976.1636 616.7346L974.2886 618.6096C 973.2876 619.5466 972.3816 620.3586 971.5696 621.0466C 973.5696 621.7966 974.6316 623.1096 974.7566 624.9846C 974.5696 627.7336 972.4136 629.1707 968.2886 629.2966C 967.4756 629.2336 966.8496 629.2036 966.4136 629.2036L966.4136 629.2036L965.2886 629.2036C 964.1006 629.0776 963.0996 629.0156 962.2886 629.0156L962.2886 629.0156L962.2886 628.5466L962.2886 628.5466L962.7576 628.5466C 964.0696 628.6086 964.6936 627.9846 964.6316 626.6716L964.6316 626.6716L964.6316 616.5466C 964.6936 615.1086 964.0376 614.4526 962.6636 614.5786L962.6636 614.5786L962.2886 614.5786L962.2886 614.5786L962.2886 614.1096L962.2886 614.1096L969.0386 614.1096L969.0386 614.1096L969.0386 614.5786L969.0386 614.5786L968.4756 614.5786C 967.1006 614.4526 966.4746 615.0466 966.6006 616.3596L966.6006 616.3596L966.6006 620.3906L966.6006 620.3906L967.8196 620.3906z" stroke="#FFFFFE" stroke-width="2" fill="none" /><path transform="matrix(1 0 0 -1 0 841)" d="M994.8196 626.4843C 995.2566 627.9213 996.0996 628.6083 997.3506 628.5473L997.3506 628.5473L997.3506 629.0153L997.3506 629.0153L991.7256 629.0153L991.7256 629.0153L991.7256 628.5473C 993.2876 628.5473 994.0376 628.2333 993.9756 627.6093C 993.9126 627.2343 993.8196 626.8903 993.6946 626.5783C 993.6316 626.3903 993.6006 626.2343 993.6006 626.1093L993.6006 626.1093L989.7576 616.1713L989.7576 616.1713L985.4446 626.9533C 984.8816 628.0153 985.6316 628.5473 987.6946 628.5473L987.6946 628.5473L987.6946 629.0153L987.6946 629.0153L981.1316 629.0153L981.1316 629.0153L981.1316 628.5473C 982.3186 628.6713 983.1006 628.0463 983.4756 626.6713L983.4756 626.6713L988.7256 613.9213L988.7256 613.9213L989.8506 613.9213L989.8506 613.9213L994.8196 626.4843z" stroke="#FFFFFE" stroke-width="2" fill="none" /><path transform="matrix(1 0 0 -1 0 841)" d="M1002.413 616.4531L1002.413 626.6721C 1002.287 628.0461 1002.975 628.6711 1004.476 628.5471L1004.476 628.5471L1004.476 629.0161L1004.476 629.0161L998.6633 629.0161L998.6633 629.0161L998.6633 628.5471C 999.9133 628.6082 1000.506 628.0461 1000.444 626.8591L1000.444 626.8591L1000.444 616.6401C 1000.506 615.2021 999.9133 614.5151 998.6633 614.5781L998.6633 614.5781L998.6633 614.1091L998.6633 614.1091L1004.476 614.1091L1004.476 614.1091L1004.476 614.5781C 1002.913 614.4521 1002.226 615.0781 1002.413 616.4531z" stroke="#FFFFFE" stroke-width="2" fill="none" /><path transform="matrix(1 0 0 -1 0 841)" d="M1016.195 624.0468C 1016.132 622.7958 1015.663 622.2028 1014.789 622.2658L1014.789 622.2658L1010.476 622.2658L1010.476 622.2658L1010.476 628.1718L1010.476 628.1718L1015.539 628.1718C 1016.476 628.1718 1017.07 627.3588 1017.32 625.7338L1017.32 625.7338L1017.789 625.7338L1017.789 625.7338L1017.601 629.0158L1017.601 629.0158L1006.07 629.0158L1006.07 629.0158L1006.07 628.5468L1006.07 628.5468L1006.632 628.5468C 1007.945 628.6088 1008.569 627.9848 1008.508 626.6718L1008.508 626.6718L1008.508 616.5468C 1008.632 615.1088 1007.882 614.4518 1006.257 614.5778L1006.257 614.5778L1005.601 614.5778L1005.601 614.5778L1005.601 614.1088L1005.601 614.1088L1018.351 614.1088L1018.351 614.1088L1018.726 617.6718L1018.726 617.6718L1018.258 617.6718C 1017.82 615.6708 1016.882 614.7658 1015.445 614.9528L1015.445 614.9528L1011.789 614.9528C 1010.851 614.8898 1010.413 615.3278 1010.476 616.2658L1010.476 616.2658L1010.476 621.4218L1010.476 621.4218L1014.601 621.4218C 1015.539 621.5468 1016.069 620.9208 1016.195 619.5468L1016.195 619.5468L1016.664 619.5468L1016.664 619.5468L1016.664 624.0468L1016.664 624.0468L1016.195 624.0468z" stroke="#FFFFFE" stroke-width="2" fill="none" /><path transform="matrix(1 0 0 -1 0 841)" d="M1031.194 627.7026C 1031.007 627.9526 1030.975 628.1396 1031.1 628.2656C 1031.225 628.4536 1031.475 628.5466 1031.85 628.5466L1031.85 628.5466L1032.882 628.5466C 1033.506 628.4836 1033.693 628.1396 1033.444 627.5156L1033.444 627.5156L1032.319 624.8906L1032.319 624.8906L1031.194 627.7026zM1041.038 626.3906C 1041.538 628.0156 1042.381 628.7346 1043.569 628.5466L1043.569 628.5466L1043.569 629.0156L1043.569 629.0156L1038.6 629.0156L1038.6 629.0156L1038.6 628.5466C 1040.162 628.5466 1040.725 628.1086 1040.288 627.2346L1040.288 627.2346L1036.069 616.0776L1036.069 616.0776L1032.882 623.5776L1032.882 623.5776L1034.476 627.3276C 1034.663 628.2026 1035.444 628.6086 1036.819 628.5466L1036.819 628.5466L1036.819 629.0156L1036.819 629.0156L1026.975 629.0156L1026.975 629.0156L1026.975 628.5466C 1028.288 628.6086 1029.1 628.1716 1029.413 627.2346L1029.413 627.2346L1031.382 622.4526L1031.382 622.4526L1028.85 616.0776L1028.85 616.0776L1024.444 627.0466C 1024.069 628.0457 1024.444 628.5466 1025.569 628.5466L1025.569 628.5466L1026.038 628.5466L1026.038 628.5466L1026.038 629.0156L1026.038 629.0156L1019.757 629.0156L1019.757 629.0156L1019.757 628.5466L1019.757 628.5466L1019.944 628.5466C 1021.318 628.7346 1022.256 628.0457 1022.757 626.4846L1022.757 626.4846L1027.725 613.9216L1027.725 613.9216L1028.944 613.9216L1028.944 613.9216L1031.944 621.1406L1031.944 621.1406L1035.132 613.9216L1035.132 613.9216L1036.257 613.9216L1036.257 613.9216L1041.038 626.3906z" stroke="#FFFFFE" stroke-width="2" fill="none" /></g><g clip-path="url(#6)"><path transform="matrix(1 0 0 -1 0 841)" d="M1010.248 473.2075C 1010.006 472.7335 1009.627 472.2285 1009.112 471.6925C 1008.518 471.0985 1008.041 470.5825 1007.682 470.1455C 1007.323 469.7075 1007.065 469.3485 1006.909 469.0675L1006.909 469.0675L1006.909 468.4575L1006.909 468.4575L1011.268 468.4575L1011.268 468.4575L1011.55 470.4735L1011.55 470.4735L1011.268 470.4735C 1011.205 470.0355 1011.081 469.7075 1010.893 469.4885C 1010.706 469.2695 1010.471 469.1605 1010.19 469.1605L1010.19 469.1605L1007.425 469.1605C 1007.518 469.3485 1007.807 469.7155 1008.292 470.2625C 1008.776 470.8085 1009.471 471.5205 1010.378 472.3955C 1010.753 472.7385 1011.026 473.0985 1011.198 473.4735C 1011.369 473.8485 1011.456 474.2235 1011.456 474.5985C 1011.456 475.1605 1011.276 475.6295 1010.917 476.0045C 1010.557 476.3795 1010.003 476.5675 1009.253 476.5675C 1008.721 476.5675 1008.221 476.3955 1007.753 476.0515C 1007.284 475.7075 1007.05 475.2075 1007.05 474.5515C 1007.05 474.3015 1007.102 474.1215 1007.206 474.0125C 1007.311 473.9025 1007.453 473.8485 1007.633 473.8485C 1007.782 473.8485 1007.894 473.8875 1007.969 473.9675C 1008.043 474.0465 1008.081 474.1665 1008.081 474.3265C 1008.081 474.4545 1008.026 474.5815 1007.917 474.7085C 1007.807 474.8365 1007.753 474.9955 1007.753 475.1865C 1007.753 475.5055 1007.885 475.7685 1008.151 475.9755C 1008.416 476.1815 1008.737 476.2855 1009.112 476.2855C 1009.612 476.2855 1009.987 476.1355 1010.237 475.8355C 1010.487 475.5355 1010.612 475.1015 1010.612 474.5335C 1010.612 474.1235 1010.49 473.6805 1010.248 473.2075z" stroke="#FFFFFE" stroke-width="1" fill="none" /></g><g clip-path="url(#7)"><path transform="matrix(1 0 0 -1 0 841)" d="M1011.01 455.0653C 1011.462 455.7993 1011.689 456.8073 1011.689 458.0893C 1011.689 459.3703 1011.462 460.3693 1011.01 461.0893C 1010.556 461.8073 1009.986 462.1673 1009.299 462.1673C 1008.58 462.1673 1007.994 461.7923 1007.541 461.0423C 1007.088 460.2923 1006.861 459.3073 1006.861 458.0893C 1006.861 456.7763 1007.096 455.7603 1007.564 455.0423C 1008.033 454.3233 1008.611 453.9643 1009.299 453.9643C 1009.986 453.9643 1010.556 454.3313 1011.01 455.0653zM1010.459 460.7843C 1010.717 460.1123 1010.846 459.2143 1010.846 458.0893C 1010.846 456.9013 1010.709 455.9793 1010.435 455.3233C 1010.161 454.6673 1009.783 454.3393 1009.3 454.3393C 1008.848 454.3393 1008.47 454.6673 1008.164 455.3233C 1007.857 455.9793 1007.705 456.9013 1007.705 458.0893C 1007.705 459.2143 1007.857 460.1123 1008.164 460.7843C 1008.47 461.4563 1008.848 461.7923 1009.3 461.7923C 1009.814 461.7923 1010.201 461.4563 1010.459 460.7843z" stroke="#FFFFFE" stroke-width="1" fill="none" /></g><g clip-path="url(#8)"><path transform="matrix(1 0 0 -1 0 841)" d="M1011.01 440.6653C 1011.462 441.3993 1011.689 442.4073 1011.689 443.6893C 1011.689 444.9703 1011.462 445.9693 1011.01 446.6893C 1010.556 447.4073 1009.986 447.7673 1009.299 447.7673C 1008.58 447.7673 1007.994 447.3923 1007.541 446.6423C 1007.088 445.8923 1006.861 444.9073 1006.861 443.6893C 1006.861 442.3763 1007.096 441.3603 1007.564 440.6423C 1008.033 439.9233 1008.611 439.5643 1009.299 439.5643C 1009.986 439.5643 1010.556 439.9313 1011.01 440.6653zM1010.459 446.3843C 1010.717 445.7123 1010.846 444.8143 1010.846 443.6893C 1010.846 442.5013 1010.709 441.5793 1010.435 440.9233C 1010.161 440.2673 1009.783 439.9393 1009.3 439.9393C 1008.848 439.9393 1008.47 440.2673 1008.164 440.9233C 1007.857 441.5793 1007.705 442.5013 1007.705 443.6893C 1007.705 444.8143 1007.857 445.7123 1008.164 446.3843C 1008.47 447.0563 1008.848 447.3923 1009.3 447.3923C 1009.814 447.3923 1010.201 447.0563 1010.459 446.3843z" stroke="#FFFFFE" stroke-width="1" fill="none" /></g><g clip-path="url(#9)"><path transform="matrix(1 0 0 -1 0 841)" d="M1009.534 433.3671C 1009.409 433.1171 1009.229 432.9291 1008.995 432.8051C 1008.761 432.6791 1008.456 432.6171 1008.081 432.6171L1008.081 432.6171L1007.659 432.6171L1007.659 432.6171L1007.659 432.3361L1007.659 432.3361L1008.503 432.3361C 1008.659 432.3361 1008.776 432.2971 1008.854 432.2191C 1008.932 432.1421 1008.972 432.0411 1008.972 431.9171L1008.972 431.9171L1008.972 426.2841C 1008.972 426.0351 1008.901 425.8491 1008.761 425.7251C 1008.62 425.6001 1008.393 425.5391 1008.081 425.5391L1008.081 425.5391L1007.659 425.5391L1007.659 425.5391L1007.659 425.2581L1007.659 425.2581L1011.081 425.2581L1011.081 425.2581L1011.081 425.5391L1011.081 425.5391L1010.612 425.5391C 1010.331 425.5391 1010.112 425.6001 1009.956 425.7251C 1009.799 425.8491 1009.721 426.0351 1009.721 426.2841L1009.721 426.2841L1009.721 433.3671L1009.721 433.3671L1009.534 433.3671z" stroke="#FFFFFE" stroke-width="1" fill="none" /></g><g clip-path="url(#10)"><path transform="matrix(1 0 0 -1 0 841)" d="M1013.565 418.6389C 1013.909 418.7329 1014.284 418.7799 1014.69 418.7799L1014.69 418.7799L1014.878 418.7799L1014.878 418.7799L1014.878 415.4049L1014.878 415.4049L1013.237 415.4049L1013.237 415.4049L1013.659 414.9829C 1014.002 415.0769 1014.409 415.1229 1014.878 415.1229L1014.878 415.1229L1014.878 411.0449L1014.878 411.0449L1012.487 411.0449L1012.487 411.0449L1012.909 410.6229C 1013.252 410.7169 1013.596 410.7639 1013.94 410.7639L1013.94 410.7639L1017.737 410.7639L1017.737 410.7639L1016.94 411.6079L1016.94 411.6079L1016.378 411.0449L1016.378 411.0449L1015.487 411.0449L1015.487 411.0449L1015.487 415.1229L1015.487 415.1229L1017.456 415.1229L1017.456 415.1229L1016.706 415.9199L1016.706 415.9199L1016.19 415.4049L1016.19 415.4049L1015.487 415.4049L1015.487 415.4049L1015.487 418.7799L1015.487 418.7799L1017.596 418.7799L1017.596 418.7799L1016.846 419.5769L1016.846 419.5769L1016.331 419.0609L1016.331 419.0609L1013.143 419.0609L1013.143 419.0609L1013.565 418.6389zM1009.253 415.7329L1010.893 415.7329L1010.893 415.7329L1010.19 416.5299L1010.19 416.5299L1009.721 416.0139L1009.721 416.0139L1009.253 416.0139L1009.253 416.0139L1009.253 418.9199L1009.253 418.9199L1011.174 418.9199L1011.174 418.9199L1010.378 419.7639L1010.378 419.7639L1009.815 419.2019L1009.815 419.2019L1006.909 419.2019L1006.909 419.2019L1007.331 418.7799C 1007.674 418.8729 1008.049 418.9199 1008.456 418.9199L1008.456 418.9199L1008.643 418.9199L1008.643 418.9199L1008.643 416.0139L1008.643 416.0139L1007.049 416.0139L1007.049 416.0139L1007.471 415.5919C 1007.815 415.6859 1008.205 415.7329 1008.643 415.7329L1008.643 415.7329L1008.643 412.4519C 1007.706 412.1389 1007.065 411.9509 1006.721 411.8889L1006.721 411.8889L1007.284 411.0449C 1007.596 411.3889 1008.955 412.1069 1011.362 413.2019L1011.362 413.2019L1011.315 413.3889L1011.315 413.3889L1009.253 412.6389L1009.253 412.6389L1009.253 415.7329zM1012.346 416.2249C 1012.346 414.6149 1012.104 413.3339 1011.62 412.3809C 1011.135 411.4279 1010.127 410.5299 1008.596 409.6859L1008.596 409.6859L1008.643 409.5449C 1010.361 410.2649 1011.495 411.1079 1012.042 412.0769C 1012.588 413.0449 1012.885 414.2869 1012.932 415.8029C 1012.979 417.3189 1013.003 418.5609 1013.003 419.5299L1013.003 419.5299L1013.378 419.9049L1013.378 419.9049L1012.299 420.4199C 1012.33 419.2319 1012.346 417.8339 1012.346 416.2249zM1010.776 415.0999C 1010.448 414.8029 1010.378 414.5999 1010.565 414.4909C 1010.753 414.3809 1010.955 414.3969 1011.174 414.5379C 1011.393 414.6779 1011.518 414.9199 1011.549 415.2639C 1011.58 415.6079 1011.596 416.1079 1011.596 416.7639L1011.596 416.7639L1011.409 416.7639C 1011.315 415.9509 1011.104 415.3969 1010.776 415.0999z" stroke="#FFFFFE" stroke-width="1" fill="none" /></g><path transform="matrix(1 0 0 -1 0 841)" d="M45.354 784.252L57.354 784.252L57.354 784.252L57.354 818.268L57.354 818.268L45.354 818.268z" stroke="#FFFFFE" stroke-width="0.283" fill="#D4A7CD" fill-rule="winding" /><g clip-path="url(#11)"><g transform="matrix(0.4995185 0 0 0.4993565 212.0421 102.8586)"><g transform="matrix(1 0 0 1 0 0)"><image x="0" y="0" xlink:href="img_08.png" width="766" height="430" /></g></g></g><path transform="matrix(1 0 0 -1 0 841)" d="M213.236 524.668L595.134 524.668L595.134 524.668L595.134 736.866L595.134 736.866L213.236 736.866z" stroke="#DF1E26" stroke-width="0.283" fill="none" /><g clip-path="url(#12)"><g transform="matrix(0.5790623 0 0 0.5790623 -0.1417542 632.3228)"><g transform="matrix(1 0 0 1 0 0)"><image x="0" y="0" xlink:href="img_09.png" width="660" height="300" /></g></g></g><g clip-path="url(#13)"><path transform="matrix(1 0 0 -1 0 841)" d="M-0.142 34.958L382.039 34.958L382.039 34.958L382.039 208.677L382.039 208.677L-0.142 208.677z" stroke="#DF1E26" stroke-width="0.283" fill="none" /></g></g></g></g></svg>