<svg xmlns="http://www.w3.org/2000/svg" xmlns:xlink="http://www.w3.org/1999/xlink" id="body_6" preserveAspectRatio="xMinYMin meet" viewBox="0 0 1587 1121"><defs><clipPath id="1"><path d="M0 841L0 -0.8900146L0 -0.8900146L1190.55 -0.8900146L1190.55 -0.8900146L1190.55 841L1190.55 841L0 841z" /></clipPath><clipPath id="2"><path d="M0 841L1190.551 841L1190.551 841L1190.551 -0.8900146L1190.551 -0.8900146L0 -0.8900146z" /></clipPath><clipPath id="3"><path d="M846.141 279.115L1106.094 279.115L1106.094 279.115L1106.094 84.15002L1106.094 84.15002L846.141 84.15002z" /></clipPath><clipPath id="4"><path d="M845.559 729.823L1105.511 729.823L1105.511 729.823L1105.511 534.859L1105.511 534.859L845.559 534.859z" /></clipPath><clipPath id="5"><path d="M845.559 504.25L1104.929 504.25L1104.929 504.25L1104.929 309.723L1104.929 309.723L845.559 309.723z" /></clipPath><clipPath id="6"><path d="M85.183 199.172L289.764 199.172L289.764 199.172L289.764 403.752L289.764 403.752L85.183 403.752z" /></clipPath><clipPath id="7"><path d="M305.244 632.34L510.359 632.34L510.359 632.34L510.359 427.224L510.359 427.224L305.244 427.224z" /></clipPath></defs><g transform="matrix(1.333333 0 0 1.333333 0 0)"><g><g clip-path="url(#1)"><g clip-path="url(#2)"><path transform="matrix(1 0 0 -1 0 841)" d="M74.2271 83.9456C 74.37209 84.0906 74.3541 84.2366 74.1721 84.3826L74.1721 84.3826L69.8521 84.3826L69.8521 84.3826L69.8521 71.8046C 69.99709 71.5866 70.1431 71.5866 70.28909 71.8046L70.28909 71.8046L70.28909 83.9456L70.28909 83.9456L74.2271 83.9456z" stroke="#000000" stroke-width="0.5" fill="none" /><path transform="matrix(1 0 0 -1 0 841)" d="M77.1478 75.7426L77.1478 83.1796L77.1478 83.1796L79.6088 83.1796L79.6088 83.1796L78.2958 79.7896C 79.1708 78.6956 79.5898 77.6926 79.55379 76.7816C 79.6268 75.6506 78.8238 75.3046 77.1478 75.7426zM79.4448 83.45361L77.3118 83.45361L77.3118 83.45361L76.5458 84.27361L76.5458 84.27361L76.5458 83.39861C 76.58179 83.1436 76.6008 82.9066 76.6008 82.6876L76.6008 82.6876L76.6008 73.0626C 76.6008 73.0256 76.58179 72.95361 76.5458 72.84361L76.5458 72.84361L76.5458 71.3126C 76.7278 71.3496 76.9468 71.4226 77.2018 71.5316C 77.1288 72.1156 77.11079 72.6986 77.1478 73.2816L77.1478 73.2816L77.1478 75.52361C 77.7668 75.4506 78.1498 75.3046 78.2958 75.0866C 78.2958 74.8676 78.4408 74.7936 78.7338 74.8676C 79.6808 75.04961 80.1548 75.6686 80.1548 76.7266C 80.1548 77.5286 79.6268 78.5496 78.5698 79.7896L78.5698 79.7896L80.2648 83.0706C 80.3368 83.0336 80.4648 83.05161 80.6478 83.1256C 80.7928 83.16161 80.8118 83.2526 80.7018 83.39861C 80.4098 83.5806 80.1368 83.8176 79.8818 84.1096L79.8818 84.1096L79.4448 83.45361zM81.7408 76.1796L86.9908 76.1796L86.9908 76.1796L86.9908 72.6796L86.9908 72.6796L81.7408 72.6796zM83.2728 84.3826C 83.6008 83.9086 83.8368 83.5076 83.9838 83.1796C 84.0558 82.7786 84.2018 82.6146 84.4208 82.6876C 84.7118 82.7976 84.7848 83.05161 84.6398 83.45361C 84.3478 83.8546 83.9468 84.21861 83.4368 84.5476L83.4368 84.5476L83.2728 84.3826zM87.2648 82.52361L82.0148 82.52361C 81.7588 82.4866 81.2298 82.5046 80.42879 82.57861L80.42879 82.57861L80.6478 82.1406C 81.1578 82.17661 81.5768 82.2136 81.9048 82.2506L81.9048 82.2506L88.4678 82.2506C 88.5768 82.2136 88.6318 82.23161 88.6318 82.3046C 88.6678 82.3406 88.6498 82.4146 88.5768 82.52361C 88.54079 82.52361 88.4678 82.57861 88.3588 82.6876C 88.0658 83.0156 87.8658 83.2346 87.7568 83.34361L87.7568 83.34361L87.2648 82.52361zM81.4678 81.5396C 81.9048 80.9186 82.2148 80.3176 82.3978 79.7346C 82.4698 79.2976 82.6158 79.0966 82.8348 79.1326C 83.1628 79.2426 83.2538 79.5336 83.1088 80.0076C 82.8158 80.4456 82.3238 80.9926 81.6318 81.64861L81.6318 81.64861L81.4678 81.5396zM81.19379 75.6876L81.19379 72.89861C 81.19379 72.5346 81.1758 72.0426 81.1398 71.4226C 81.3588 71.3866 81.5768 71.44061 81.7958 71.5866C 81.7588 71.7686 81.7408 72.0426 81.7408 72.4066L81.7408 72.4066L86.9908 72.4066L86.9908 72.4066L86.9908 71.4766C 87.2458 71.44061 87.4468 71.4766 87.5928 71.5866C 87.5188 72.2796 87.5018 72.7346 87.5378 72.95361L87.5378 72.95361L87.5378 75.9066C 87.5738 75.9066 87.6478 75.9426 87.7568 76.0156C 87.8658 76.05161 87.95679 76.0886 88.0298 76.1256C 88.1758 76.1976 88.1758 76.3076 88.0298 76.45361C 87.8118 76.6356 87.5378 76.8726 87.2098 77.1646L87.2098 77.1646L86.8268 76.45361L86.8268 76.45361L81.9048 76.45361L81.9048 76.45361L81.1398 77.1096C 81.1758 76.6726 81.19379 76.1976 81.19379 75.6876zM85.1318 78.6956L81.7408 78.6956C 81.48579 78.6586 80.95679 78.67661 80.1548 78.7506L80.1548 78.7506L80.37379 78.25861C 80.8838 78.3306 81.30379 78.3856 81.6318 78.4226L81.6318 78.4226L89.0148 78.4226C 89.12379 78.3856 89.17879 78.4036 89.17879 78.4766C 89.2148 78.5126 89.1968 78.5866 89.12379 78.6956C 88.83179 78.9506 88.54079 79.2426 88.24879 79.5706L88.24879 79.5706L87.6478 78.6956L87.6478 78.6956L85.4048 78.6956C 85.9518 79.60661 86.3898 80.3726 86.7178 80.9926C 86.7538 80.9556 86.8088 80.9556 86.8818 80.9926C 86.9548 81.0286 87.02679 81.0476 87.1008 81.0476C 87.2098 81.0476 87.2648 81.0826 87.2648 81.1566C 87.3008 81.1926 87.2648 81.2476 87.1548 81.3206C 86.8628 81.4296 86.55379 81.5396 86.2258 81.64861C 85.8978 80.5546 85.5328 79.5706 85.1318 78.6956z" stroke="#000000" stroke-width="0.5" fill="none" /><path transform="matrix(1 0 0 -1 0 841)" d="M96.8565 80.8284C 96.8925 80.0984 96.9295 79.5154 96.9665 79.0784L96.9665 79.0784L96.9665 72.8444C 96.9665 72.6624 96.8385 72.5704 96.5835 72.5704C 96.3645 72.5344 95.6165 72.5704 94.3415 72.6804L94.3415 72.6804L94.3415 72.4614C 95.3615 72.3514 95.8905 72.1694 95.9275 71.9144C 95.9635 71.8054 96.0725 71.7694 96.2555 71.8054C 97.2025 71.8054 97.6405 72.1334 97.5675 72.7894C 97.4945 73.2624 97.4765 73.6644 97.5135 73.9924L97.5135 73.9924L97.5135 80.3364C 97.6585 80.3364 97.8045 80.3724 97.9505 80.4454C 98.0235 80.4454 98.0775 80.4814 98.1145 80.5554C 98.1145 80.5904 98.0775 80.6274 98.0055 80.6644C 97.8225 80.7004 97.4395 80.7554 96.8565 80.8284zM88.7085 77.9844L88.8725 77.8754C 89.5285 78.6414 90.1305 79.5334 90.6775 80.5554L90.6775 80.5554L90.6775 73.9924C 90.6775 73.2994 90.6405 72.4984 90.5675 71.5864C 90.8225 71.6234 91.0775 71.6954 91.3335 71.8054C 91.2595 72.6074 91.2415 73.3364 91.2785 73.9924L91.2785 73.9924L91.2785 81.5394C 91.6795 82.3404 92.0075 83.0704 92.2635 83.7264L92.2635 83.7264L92.8095 83.7264C 92.8825 83.7264 92.9195 83.7624 92.9195 83.8364C 92.9555 83.8724 92.9375 83.9264 92.8645 84.0004C 92.4635 84.1454 92.0625 84.2914 91.6615 84.4374C 91.2595 82.6874 90.2755 80.5364 88.7085 77.9844zM98.8255 78.2034C 99.9195 76.5624 100.6845 75.1044 101.1225 73.8284C 101.1955 73.4634 101.3595 73.3364 101.6145 73.4454C 101.9065 73.5184 101.9785 73.8094 101.8335 74.3204C 101.1405 75.5964 100.1925 76.9264 98.9895 78.3124L98.9895 78.3124L98.8255 78.2034zM92.2085 73.0624L92.3725 73.0084C 93.5025 74.2834 94.3595 75.8514 94.9425 77.7114C 94.9785 77.6744 95.0705 77.6744 95.2165 77.7114C 95.3615 77.7474 95.4705 77.7664 95.5445 77.7664C 95.6165 77.7664 95.6535 77.8014 95.6535 77.8754C 95.6535 77.9484 95.6165 78.0024 95.5445 78.0394C 95.4705 78.0394 95.3615 78.0574 95.2165 78.0944C 94.8145 78.1664 94.5415 78.2394 94.3955 78.3124C 93.9945 76.4534 93.2655 74.7034 92.2085 73.0624zM92.5365 79.0784L92.7005 78.9694C 93.5385 79.7344 94.3225 80.7734 95.0525 82.0864L95.0525 82.0864L100.7395 82.0864L100.7395 82.0864L99.8095 79.8444L99.8095 79.8444L99.9735 79.7344C 100.4115 80.3544 100.7945 80.9924 101.1225 81.6484C 101.2315 81.8674 101.4685 81.9764 101.8335 81.9764C 101.9785 81.9764 102.0155 82.0494 101.9425 82.1954C 101.6505 82.4144 101.3415 82.6694 101.0135 82.9614L101.0135 82.9614L100.6305 82.3594L100.6305 82.3594L95.1615 82.3594C 95.4895 82.9064 95.7445 83.3984 95.9275 83.8364C 96.1095 83.8364 96.2555 83.8544 96.3645 83.8904C 96.4375 83.8904 96.4915 83.9084 96.5285 83.9454C 96.5285 84.0184 96.4915 84.0734 96.4195 84.1094C 96.0175 84.1824 95.6345 84.2554 95.2705 84.3284C 94.7595 82.5784 93.8485 80.8284 92.5365 79.0784z" stroke="#000000" stroke-width="0.5" fill="none" /><path transform="matrix(1 0 0 -1 0 841)" d="M107.597 76.946L107.597 72.571C 106.066 72.644 104.863 73.5 103.988 75.141C 104.024 75.432 104.079 75.979 104.152 76.782L104.152 76.782L104.48 76.782C 104.625 76.817 104.717 76.836 104.754 76.836C 104.826 76.836 104.881 76.872 104.918 76.946C 104.918 77.018 104.881 77.091 104.808 77.164C 104.662 77.164 104.535 77.182 104.425 77.219C 104.024 77.292 103.733 77.328 103.55 77.328C 103.514 76.708 103.477 76.034 103.441 75.305C 103.186 73.919 102.475 72.735 101.308 71.75L101.308 71.75L101.472 71.532C 102.676 72.371 103.477 73.427 103.879 74.703C 104.425 73.573 105.172 72.789 106.121 72.352C 106.594 72.133 107.36 71.988 108.418 71.914C 109.438 71.842 111.006 71.842 113.121 71.914C 113.34 71.951 113.449 72.043 113.449 72.188C 113.449 72.334 113.813 72.443 114.543 72.516L114.543 72.516L114.543 72.735C 113.011 72.625 111.754 72.553 110.769 72.516C 109.748 72.48 108.891 72.48 108.199 72.516L108.199 72.516L108.199 75.524L108.199 75.524L113.011 75.524C 113.084 75.524 113.121 75.542 113.121 75.578C 113.157 75.614 113.139 75.669 113.066 75.743C 112.774 76.034 112.41 76.417 111.972 76.891L111.972 76.891L111.371 75.852L111.371 75.852L108.199 75.852L108.199 75.852L108.199 77.875C 108.308 77.875 108.49 77.911 108.746 77.985C 108.818 77.985 108.855 78.003 108.855 78.039C 108.855 78.112 108.818 78.167 108.746 78.203C 108.344 78.313 107.943 78.368 107.543 78.368C 107.579 77.675 107.597 77.2 107.597 76.946zM107.488 83.18L107.488 82.305L107.488 82.305L104.59 82.305C 104.225 82.268 103.678 82.305 102.949 82.414L102.949 82.414L103.168 81.922C 103.787 81.995 104.261 82.032 104.59 82.032L104.59 82.032L107.488 82.032L107.488 82.032L107.488 78.969L107.488 78.969L103.222 78.969C 102.821 78.932 102.256 78.95 101.527 79.024L101.527 79.024L101.801 78.532C 102.383 78.604 102.821 78.641 103.113 78.641L103.113 78.641L114.05 78.641C 114.123 78.641 114.16 78.659 114.16 78.696C 114.196 78.732 114.178 78.805 114.105 78.914C 113.813 79.242 113.467 79.589 113.066 79.953L113.066 79.953L112.41 78.969L112.41 78.969L108.09 78.969L108.09 78.969L108.09 82.032L108.09 82.032L113.011 82.032C 113.084 81.995 113.139 82.013 113.175 82.086C 113.175 82.122 113.157 82.196 113.121 82.305L113.121 82.305L112.136 83.289L112.136 83.289L111.48 82.305L111.48 82.305L108.09 82.305L108.09 82.305L108.09 84.11C 108.235 84.11 108.454 84.146 108.746 84.219C 108.818 84.219 108.855 84.255 108.855 84.328C 108.855 84.401 108.818 84.456 108.746 84.492C 108.6 84.492 108.399 84.51 108.144 84.547C 107.816 84.62 107.579 84.675 107.433 84.711C 107.469 83.946 107.488 83.435 107.488 83.18z" stroke="#000000" stroke-width="0.5" fill="none" /><path transform="matrix(1 0 0 -1 0 841)" d="M114.7285 81.2111C 114.4005 80.8461 114.3095 80.5911 114.4555 80.4461C 114.7095 80.2271 115.0205 80.2991 115.3845 80.6641C 115.6035 80.9921 115.7675 81.5211 115.8775 82.2501L115.8775 82.2501L125.5565 82.2501L125.5565 82.2501L124.6815 80.7191L124.6815 80.7191L124.9005 80.5551L124.9005 80.5551L125.9395 81.7581C 126.1585 82.0131 126.4315 82.1411 126.7595 82.1411C 126.8695 82.1411 126.9415 82.1591 126.9785 82.1961C 127.0145 82.2311 126.9965 82.3051 126.9235 82.4141C 126.8145 82.5241 126.6135 82.7061 126.3225 82.9611C 126.2135 83.0711 126.1035 83.1981 125.9945 83.3441L125.9945 83.3441L125.3925 82.5781L125.3925 82.5781L115.9315 82.5781L115.9315 82.5781L115.9865 83.2351L115.9865 83.2351L115.7135 83.2351C 115.4945 82.3961 115.1665 81.7211 114.7285 81.2111zM119.5415 84.4921C 119.9415 83.9091 120.1975 83.4531 120.3065 83.1251C 120.3795 82.7241 120.5435 82.5781 120.7985 82.6881C 121.1275 82.8701 121.1995 83.1611 121.0175 83.5631C 120.7985 83.8541 120.3615 84.2191 119.7055 84.6561L119.7055 84.6561L119.5415 84.4921zM124.8455 77.0001L115.6035 77.0001C 115.0925 76.9641 114.6555 76.9811 114.2915 77.0551L114.2915 77.0551L114.4005 76.5631C 114.8735 76.6351 115.2565 76.6721 115.5485 76.6721L115.5485 76.6721L118.0645 76.6721C 118.2465 74.1571 116.9345 72.4981 114.1275 71.6961L114.1275 71.6961L114.1815 71.4221C 117.2805 72.0421 118.7935 73.7921 118.7205 76.6721L118.7205 76.6721L121.6735 76.6721L121.6735 76.6721L121.6735 73.1721C 121.5275 72.2971 121.9285 71.9141 122.8775 72.0241L122.8775 72.0241L124.6815 72.0241C 125.5565 72.0241 126.0665 72.0421 126.2135 72.0781C 126.4675 72.0781 126.6685 72.0971 126.8145 72.1331C 127.0335 72.3161 127.0145 72.4981 126.7595 72.6801C 126.5775 72.7531 126.4865 72.8991 126.4865 73.1171L126.4865 73.1171L126.4865 75.3601L126.4865 75.3601L126.2675 75.3601L126.2675 75.3601L125.9945 73.0631C 126.0305 72.6621 125.6845 72.4801 124.9555 72.5161L124.9555 72.5161L122.9865 72.5161C 122.4395 72.4801 122.2025 72.6801 122.2755 73.1171L122.2755 73.1171L122.2755 76.6721L122.2755 76.6721L126.5415 76.6721C 126.6505 76.6351 126.7235 76.6531 126.7595 76.7271C 126.7955 76.7631 126.7775 76.8361 126.7055 76.9461C 126.5225 77.1641 126.1585 77.5651 125.6115 78.1491L125.6115 78.1491L124.8455 77.0001zM123.1505 79.8441L117.7365 79.8441C 117.3715 79.8441 117.0065 79.8621 116.6425 79.8991C 116.4965 79.8991 116.3875 79.9171 116.3145 79.9531L116.3145 79.9531L116.4235 79.4611C 116.8615 79.4971 117.2805 79.5341 117.6815 79.5711L117.6815 79.5711L124.5725 79.5711C 124.7175 79.5341 124.7915 79.5341 124.7915 79.5711C 124.8275 79.6061 124.8275 79.6981 124.7915 79.8441C 124.4265 80.2451 124.0805 80.6101 123.7525 80.9381L123.7525 80.9381L123.1505 79.8441z" stroke="#000000" stroke-width="0.5" fill="none" /><path transform="matrix(1 0 0 -1 0 841)" d="M137.1177 83.3987L129.1877 83.3987C 128.4947 83.36169 127.7297 83.3797 126.8907 83.4537L126.8907 83.4537L127.1097 82.8517C 127.7297 82.9967 128.3857 83.07069 129.0787 83.07069L129.0787 83.07069L137.2267 83.07069L137.2267 83.07069L133.3447 79.8987L133.3447 79.8987L132.6337 80.2817L132.6337 80.2817L132.6337 79.51569C 132.6697 79.2967 132.6877 79.04169 132.6877 78.75069L132.6877 78.75069L132.6877 72.7897C 132.7237 72.57069 132.5787 72.46069 132.2507 72.46069C 132.0317 72.4257 131.2657 72.4797 129.9537 72.62569L129.9537 72.62569L129.8987 72.3517C 131.0657 72.2427 131.6127 72.0607 131.5397 71.8047C 131.5397 71.6597 131.6487 71.58569 131.8677 71.58569C 132.9977 71.6597 133.4897 71.9687 133.3447 72.51569C 133.2707 73.09869 133.2527 73.44569 133.2897 73.5547L133.2897 73.5547L133.2897 79.57069C 133.7267 79.7897 135.1847 80.8097 137.6647 82.6327C 137.7737 82.7427 138.0477 82.7967 138.4847 82.7967C 138.6667 82.8327 138.7217 82.9427 138.6487 83.12569C 138.2477 83.4897 137.9377 83.7817 137.7197 84.00069L137.7197 84.00069L137.1177 83.3987z" stroke="#000000" stroke-width="0.5" fill="none" /><path transform="matrix(1 0 0 -1 0 841)" d="M146.1629 84.5475C 146.1989 84.4375 146.2359 84.3285 146.2729 84.2195C 146.5639 83.5985 146.7459 83.1795 146.8189 82.9615C 146.8919 82.5595 147.0559 82.4145 147.3119 82.5235C 147.5659 82.6695 147.6209 82.9245 147.4759 83.2895C 147.1829 83.7625 146.8009 84.2195 146.3269 84.6565L146.3269 84.6565L146.1629 84.5475zM144.5769 82.1405C 143.8839 82.1045 143.2649 82.1225 142.7179 82.1955L142.7179 82.1955L142.8819 81.7585C 143.3189 81.7945 143.8839 81.8125 144.5769 81.8125L144.5769 81.8125L151.9599 81.8125C 152.0329 81.8125 152.0689 81.8305 152.0689 81.8675C 152.1049 81.9035 152.1049 81.9585 152.0689 82.0315C 151.8869 82.2865 151.5579 82.6695 151.0849 83.1795L151.0849 83.1795L150.4289 82.1405L150.4289 82.1405L144.5769 82.1405zM140.7489 79.2425L140.1479 79.2425C 139.6729 79.2055 139.2909 79.2235 138.9989 79.2975L138.9989 79.2975L139.0539 78.9145C 139.3449 78.9505 139.7459 78.9695 140.2569 78.9695L140.2569 78.9695L140.9679 78.9695L140.9679 78.9695L140.9679 74.0475C 140.0559 73.4265 139.3449 72.8985 138.8349 72.4615L138.8349 72.4615L139.0539 72.2425L139.0539 72.2425L139.4369 71.8595C 139.4729 71.7875 139.5089 71.7695 139.5459 71.8055C 139.5819 71.8415 139.6189 71.9335 139.6549 72.0785C 139.9099 72.6985 140.2749 73.1535 140.7489 73.4455C 141.0039 73.7005 141.2589 73.7005 141.5149 73.4455C 142.4259 72.7535 143.1189 72.3515 143.5929 72.2425C 143.9939 72.0975 144.5949 72.0235 145.3979 72.0235C 146.1629 71.9875 147.9309 71.9875 150.7019 72.0235C 150.8839 72.0235 151.0119 72.0785 151.0849 72.1875C 151.1209 72.4435 151.5039 72.5705 152.2329 72.5705L152.2329 72.5705L152.2329 72.8445C 147.9309 72.5155 145.0869 72.4805 143.7019 72.7345C 142.9369 72.9175 142.2069 73.3175 141.5149 73.9375L141.5149 73.9375L141.5149 78.8045C 141.6969 78.8775 141.8789 78.9505 142.0619 79.0235C 142.2069 79.0965 142.2259 79.1875 142.1159 79.2975C 141.9329 79.4065 141.6419 79.5885 141.2409 79.8445C 141.1679 79.8795 141.1319 79.9165 141.1319 79.9535L141.1319 79.9535L140.7489 79.2425zM139.9289 83.8365C 140.4019 83.1065 140.7669 82.4145 141.0229 81.7585C 141.1319 81.2475 141.3319 81.0655 141.6239 81.2115C 141.8789 81.3565 141.9159 81.6665 141.7339 82.1405C 141.4409 82.5785 140.8939 83.1795 140.0929 83.9455L140.0929 83.9455L139.9289 83.8365zM147.4209 77.4925C 146.4729 78.2945 145.2879 79.2605 143.8659 80.3905L143.8659 80.3905L143.7019 80.2265C 144.0659 79.8255 144.7229 79.1875 145.6709 78.3125C 146.3269 77.6925 146.8009 77.2735 147.0929 77.0555C 146.2539 75.8875 144.8139 74.7945 142.7729 73.7735L142.7729 73.7735L142.8819 73.5545C 144.9229 74.3205 146.4729 75.3595 147.5299 76.6725C 147.7119 76.4535 147.8939 76.2705 148.0769 76.1255C 149.0979 75.1405 149.8079 74.4475 150.2099 74.0475C 150.5379 73.6825 150.8119 73.5905 151.0299 73.7735C 151.2119 73.9555 151.1209 74.2475 150.7569 74.6485C 150.3549 75.0125 149.3899 75.8335 147.8579 77.1095C 148.4779 77.9845 149.1159 79.2785 149.7729 80.9925C 149.9179 80.9555 150.0639 80.9735 150.2099 81.0475C 150.2829 81.0475 150.3189 81.0655 150.3189 81.1015C 150.3549 81.1745 150.3369 81.2475 150.2649 81.3205C 150.2279 81.3205 150.1369 81.3565 149.9909 81.4305C 149.6259 81.5755 149.3899 81.6845 149.2799 81.7585C 148.8059 80.0085 148.1869 78.5865 147.4209 77.4925z" stroke="#000000" stroke-width="0.5" fill="none" /><path transform="matrix(1 0 0 -1 0 841)" d="M162.974 78.6409L153.896 78.6409C 153.422 78.6409 152.966 78.6589 152.529 78.6959C 152.201 78.6959 151.854 78.7139 151.49 78.7499L151.49 78.7499L151.763 78.2039C 151.982 78.2389 152.219 78.2759 152.474 78.3129C 152.729 78.3129 152.966 78.3309 153.185 78.3679L153.185 78.3679L164.615 78.3679C 164.687 78.3679 164.724 78.3859 164.724 78.4219C 164.76 78.4579 164.76 78.5129 164.724 78.5859C 164.396 78.9499 164.013 79.2969 163.576 79.6249L163.576 79.6249L162.974 78.6409z" stroke="#000000" stroke-width="0.5" fill="none" /><path transform="matrix(1 0 0 -1 0 841)" d="M174.9728 77.82069C 174.5708 76.3257 173.8968 75.1587 172.9488 74.32069C 172.0738 75.2687 171.4358 76.4347 171.0348 77.82069L171.0348 77.82069L174.9728 77.82069zM174.9178 78.0937L171.3088 78.0937C 170.7248 78.05769 170.3048 78.0757 170.0508 78.1487L170.0508 78.1487L170.2698 77.76569C 170.3788 77.8017 170.5058 77.82069 170.6518 77.82069C 171.1258 76.2527 171.7638 74.9767 172.5658 73.9927C 171.6908 73.2997 170.3048 72.6077 168.4098 71.9147L168.4098 71.9147L168.4648 71.64069C 170.1408 72.0787 171.6368 72.7167 172.9488 73.5547C 173.8968 72.7897 175.0628 72.1877 176.4488 71.75069C 176.6308 71.7147 176.7588 71.7687 176.8318 71.9147C 176.9048 72.16969 177.1408 72.2617 177.5428 72.1877L177.5428 72.1877L177.5978 72.4067C 175.8108 72.5897 174.4068 73.09869 173.3868 73.9377C 174.3708 74.9217 175.1178 76.1607 175.6288 77.6567C 175.6648 77.6567 175.7558 77.6747 175.9018 77.7117C 176.0118 77.7467 176.1018 77.7837 176.1758 77.82069C 176.2118 77.82069 176.2478 77.8387 176.2848 77.87569C 176.2848 77.94769 176.2658 78.0027 176.2298 78.0397C 175.9378 78.29369 175.6468 78.5317 175.3548 78.75069L175.3548 78.75069L174.9178 78.0937zM170.9798 84.1647C 171.0528 83.5807 171.0898 83.12569 171.0898 82.7967C 171.1618 80.97369 170.6518 79.57069 169.5588 78.5867L169.5588 78.5867L169.7228 78.4217C 171.1078 79.22369 171.7638 80.84669 171.6908 83.2897L171.6908 83.2897L174.8628 83.2897L174.8628 83.2897L174.8628 80.39069C 174.7168 79.4427 175.0998 79.04169 176.0118 79.1877C 176.7038 79.1877 177.1958 79.22369 177.4878 79.2967C 177.5608 79.2967 177.5788 79.3697 177.5428 79.51569C 177.4688 79.62569 177.3418 79.7527 177.1598 79.8987C 177.0508 79.97169 176.9588 79.97169 176.8868 79.8987C 176.7768 79.7897 176.4848 79.7347 176.0118 79.7347C 175.5368 79.6607 175.3368 79.8797 175.4098 80.39069L175.4098 80.39069L175.4098 83.1797C 175.5548 83.2157 175.7188 83.2707 175.9018 83.3437C 176.0118 83.3797 176.0118 83.47169 175.9018 83.6177C 175.7188 83.7267 175.4278 83.9267 175.0268 84.2187L175.0268 84.2187L174.6448 83.5627L174.6448 83.5627L171.8548 83.5627L171.8548 83.5627L170.9798 84.3827L170.9798 84.3827L170.9798 84.1647zM166.3318 83.3987L165.4568 84.3287L165.4568 84.3287L165.4568 83.3987C 165.4928 82.9967 165.5118 82.72369 165.5118 82.5787L165.5118 82.5787L165.5118 74.5397C 165.3658 74.5397 165.1098 74.5207 164.7458 74.4847L164.7458 74.4847L164.0898 74.4847C 164.0898 74.4107 164.1078 74.2837 164.1438 74.1017C 164.1798 73.9187 164.2168 73.8097 164.2538 73.7737C 164.2538 73.6277 164.2898 73.5547 164.3628 73.5547C 164.4358 73.5907 164.5088 73.68269 164.5818 73.8287L164.5818 73.8287L165.5118 74.0467L165.5118 74.0467L165.5118 73.0077C 165.5118 72.8987 165.4748 72.6077 165.4018 72.1327L165.4018 72.1327L165.4018 71.4217C 165.5838 71.3867 165.8208 71.45869 166.1128 71.64069C 166.0398 72.2247 166.0218 72.7347 166.0588 73.1717L166.0588 73.1717L166.0588 74.1567L166.0588 74.1567L170.1598 74.9217L170.1598 74.9217L170.1598 75.14069C 169.5398 75.0317 168.1728 74.8677 166.0588 74.6487L166.0588 74.6487L166.0588 77.4927L166.0588 77.4927L169.5588 77.4927C 169.6308 77.4927 169.6678 77.5107 169.6678 77.5467C 169.7038 77.5827 169.7038 77.6567 169.6678 77.76569C 169.5938 77.8017 169.5398 77.8567 169.5038 77.9297C 169.2478 78.2577 169.0118 78.5317 168.7928 78.75069L168.7928 78.75069L168.2458 77.82069L168.2458 77.82069L166.0588 77.82069L166.0588 77.82069L166.0588 80.50069L166.0588 80.50069L169.5588 80.50069C 169.6308 80.4637 169.6858 80.4817 169.7228 80.5547C 169.7228 80.5907 169.7038 80.6647 169.6678 80.7737C 169.5938 80.8097 169.4848 80.91869 169.3398 81.1017C 169.0838 81.3567 168.9018 81.55769 168.7928 81.7037L168.7928 81.7037L168.3008 80.7737L168.3008 80.7737L166.0588 80.7737L166.0588 80.7737L166.0588 83.12569C 167.2248 83.2707 168.3908 83.5077 169.5588 83.83569C 169.6308 83.7267 169.7768 83.6357 169.9958 83.5627C 170.0688 83.4897 170.1228 83.47169 170.1598 83.5077C 170.2328 83.5807 170.2508 83.6717 170.2148 83.7817C 170.1778 83.7817 170.1048 83.8537 169.9958 84.00069C 169.8128 84.2187 169.6678 84.4007 169.5588 84.5467C 168.9378 84.2187 167.8628 83.83569 166.3318 83.3987z" stroke="#000000" stroke-width="0.5" fill="none" /><path transform="matrix(1 0 0 -1 0 841)" d="M181.01 80.1172L178.112 80.1172L178.112 80.1172L178.112 83.1252L178.112 83.1252L181.01 83.1252zM177.619 82.5242L177.619 80.6092C 177.619 80.2812 177.601 79.8252 177.565 79.2422C 177.747 79.2422 177.929 79.31519 178.111 79.4612L178.111 79.4612L178.111 79.8442L178.111 79.8442L179.479 79.8442L179.479 79.8442L179.479 73.1722L179.479 73.1722L177.893 73.00819L177.893 73.00819L177.893 77.8202L177.893 77.8202L178.111 77.8202C 178.221 77.85619 178.294 77.8752 178.33 77.8752C 178.403 77.8752 178.44 77.91119 178.44 77.9842C 178.44 78.0572 178.403 78.1122 178.33 78.14819C 178.038 78.2212 177.71 78.2942 177.346 78.3672C 177.382 77.6022 177.401 77.0732 177.401 76.7812L177.401 76.7812L177.401 73.00819C 177.291 72.9722 177.108 72.95319 176.854 72.95319C 176.963 72.5892 177.072 72.2972 177.182 72.07819C 177.218 72.0062 177.272 71.9882 177.346 72.02319C 177.382 72.0602 177.419 72.1522 177.455 72.2972L177.455 72.2972L182.377 73.4452L182.377 73.4452L182.377 73.6642L182.377 73.6642L179.971 73.2812L179.971 73.2812L179.971 76.8912L179.971 76.8912L181.885 76.8912C 181.958 76.85419 181.994 76.85419 181.994 76.8912C 182.03 76.9272 182.03 77.0002 181.994 77.1092C 181.739 77.3642 181.575 77.5282 181.502 77.6022C 181.393 77.67419 181.301 77.7662 181.229 77.8752L181.229 77.8752L180.791 77.1642L180.791 77.1642L179.971 77.1642L179.971 77.1642L179.971 79.8442L179.971 79.8442L181.01 79.8442L181.01 79.8442L181.01 79.3522C 181.229 79.3522 181.429 79.4062 181.612 79.5162C 181.538 80.06319 181.52 80.5002 181.557 80.82819L181.557 80.82819L181.557 83.0702C 181.702 83.10619 181.866 83.16119 182.049 83.2342C 182.194 83.2702 182.213 83.3622 182.104 83.50819C 181.848 83.7272 181.538 83.9272 181.174 84.1092L181.174 84.1092L180.846 83.3992L180.846 83.3992L178.385 83.3992L178.385 83.3992L177.565 84.2192C 177.601 83.2702 177.619 82.7062 177.619 82.5242zM187.955 72.7342L183.416 72.7342L183.416 72.7342L183.416 75.9062L183.416 75.9062L187.955 75.9062zM187.736 76.1802L183.58 76.1802L183.58 76.1802L182.815 76.7812L182.815 76.7812L182.815 75.3052L182.815 75.3052L182.815 75.1412L182.815 75.1412L182.815 73.1722C 182.815 72.95319 182.796 72.42519 182.76 71.5862C 182.979 71.55019 183.197 71.5862 183.416 71.6952L183.416 71.6952L183.416 72.4612L183.416 72.4612L187.955 72.4612L187.955 72.4612L187.955 71.4772C 188.101 71.5132 188.301 71.5862 188.557 71.6952C 188.483 72.42519 188.465 72.9172 188.502 73.1722L188.502 73.1722L188.502 75.7972C 188.647 75.87019 188.794 75.9422 188.94 76.0162C 189.012 76.0162 189.049 76.03419 189.049 76.0702C 189.049 76.1432 189.03 76.1982 188.994 76.2342C 188.958 76.2342 188.903 76.2522 188.83 76.2892C 188.502 76.5812 188.265 76.7812 188.119 76.8912L188.119 76.8912L187.736 76.1802zM187.955 82.68819C 187.372 81.4842 186.679 80.4632 185.877 79.6252C 185.147 80.3172 184.528 81.2662 184.018 82.4692L184.018 82.4692L184.072 82.57819L184.072 82.57819L184.182 82.68819L184.182 82.68819L187.955 82.68819zM182.049 80.3362L182.268 80.1722C 182.778 80.6822 183.307 81.35619 183.854 82.1952C 184.145 81.1382 184.692 80.1532 185.494 79.2422C 184.546 78.4032 183.452 77.6382 182.213 76.9452L182.213 76.9452L182.322 76.7272C 183.489 77.2002 184.674 77.91119 185.877 78.8592C 186.861 77.9842 187.919 77.38319 189.049 77.0552C 189.268 76.98119 189.395 77.03619 189.432 77.2192C 189.395 77.43819 189.632 77.5472 190.143 77.5472L190.143 77.5472L190.143 77.7662C 188.721 77.8022 187.426 78.2942 186.26 79.2422C 187.208 80.2272 188.01 81.3382 188.666 82.57819C 188.848 82.5412 188.994 82.5592 189.104 82.63319C 189.176 82.63319 189.231 82.6512 189.268 82.68819C 189.268 82.7602 189.249 82.8332 189.213 82.9062C 188.958 83.0882 188.647 83.3252 188.283 83.6172L188.283 83.6172L187.901 82.9612L187.901 82.9612L184.346 82.9612C 184.382 83.0702 184.473 83.2522 184.619 83.50819C 184.765 83.7272 184.874 83.90919 184.947 84.0552L184.947 84.0552L185.44 84.0552C 185.512 84.0552 185.549 84.09119 185.549 84.1642C 185.549 84.2372 185.512 84.2912 185.44 84.32819C 185.147 84.43819 184.801 84.5472 184.401 84.6562C 183.817 83.0522 183.033 81.6122 182.049 80.3362z" stroke="#000000" stroke-width="0.5" fill="none" /><path transform="matrix(1 0 0 -1 0 841)" d="M200.5556 72.8437L193.9386 72.8437L193.9386 72.8437L193.9386 76.6167L193.9386 76.6167L200.5556 76.6167zM193.3366 75.79771L193.3366 73.4457C 193.3366 72.9357 193.3176 72.2617 193.2816 71.42171C 193.5366 71.4587 193.7556 71.5137 193.9376 71.5867L193.9376 71.5867L193.9376 72.5157L193.9376 72.5157L200.5556 72.5157L200.5556 72.5157L200.5556 71.5867C 200.7006 71.5507 200.9196 71.60471 201.2116 71.7507C 201.1376 72.5157 201.1196 73.06271 201.1566 73.3907L201.1566 73.3907L201.1566 76.4537C 201.1926 76.4537 201.2666 76.4897 201.3756 76.56271C 201.4846 76.5987 201.5756 76.6357 201.6486 76.67271C 201.7586 76.7077 201.7586 76.79971 201.6486 76.9457C 201.5396 77.0547 201.2666 77.2547 200.8286 77.54771C 200.8646 77.5107 200.8286 77.54771 200.7196 77.6567L200.7196 77.6567L200.2816 76.8907L200.2816 76.8907L194.1566 76.8907L194.1566 76.8907L193.2816 77.6017C 193.3176 76.7267 193.3366 76.1257 193.3366 75.79771zM191.9146 83.2347L191.0946 84.0007C 191.1306 83.16171 191.1486 82.5237 191.1486 82.0867L191.1486 82.0867L191.1486 79.0787C 191.1486 75.68771 190.5476 73.3717 189.3446 72.13271L189.3446 72.13271L189.5086 71.9687C 191.1126 73.2077 191.8596 75.8147 191.7506 79.7897L191.7506 79.7897L202.6336 79.7897C 202.8156 79.82571 202.8526 79.9347 202.7426 80.11771C 202.4876 80.40871 202.1596 80.7367 201.7586 81.1017L201.7586 81.1017L201.1566 80.11771L201.1566 80.11771L191.7506 80.11771L191.7506 80.11771L191.7506 82.9067C 194.4116 82.97971 197.6376 83.1977 201.4306 83.56271C 201.5026 83.4537 201.6486 83.3617 201.8676 83.2897C 201.9406 83.21571 202.0126 83.1977 202.0866 83.2347C 202.1226 83.27071 202.1226 83.3437 202.0866 83.4537C 201.8676 83.7817 201.6486 84.09071 201.4306 84.38271C 199.1336 83.8367 195.9616 83.4537 191.9146 83.2347z" stroke="#000000" stroke-width="0.5" fill="none" /><path transform="matrix(1 0 0 -1 0 841)" d="M206.2099 73.4456C 206.1729 74.35661 205.8269 74.8306 205.1709 74.8676C 204.5149 74.8306 204.1499 74.5396 204.0769 73.9926C 204.1499 73.4086 204.5149 73.1176 205.1709 73.1176L205.1709 73.1176L205.3899 73.1176C 205.4989 72.5346 205.0799 71.9146 204.1319 71.2576L204.1319 71.2576L204.2959 71.20361C 205.3529 71.7146 205.9909 72.4616 206.2099 73.4456z" stroke="#000000" stroke-width="0.5" fill="none" /><path transform="matrix(1 0 0 -1 0 841)" d="M221.6578 83.1249C 221.6578 82.7239 221.6928 82.2139 221.7668 81.5939C 221.8028 80.9379 221.8398 80.4269 221.8758 80.0629L221.8758 80.0629L217.9388 80.0629L217.9388 80.0629L217.9388 82.8519C 218.6308 82.9969 219.3238 83.1799 220.0168 83.3989C 220.0898 83.2889 220.1988 83.1979 220.3448 83.1249C 220.3808 83.0889 220.4178 83.0709 220.4538 83.0709C 220.5268 82.9969 220.5818 82.9789 220.6178 83.0159C 220.6908 83.0889 220.7088 83.1799 220.6728 83.2889C 220.5638 83.3619 220.4538 83.5079 220.3448 83.7269C 220.1988 83.9089 220.0898 84.0549 220.0168 84.1639C 219.1048 83.6179 217.3178 83.0889 214.6578 82.5789L214.6578 82.5789L214.7118 82.3049C 214.8578 82.3049 215.1858 82.3409 215.6968 82.4139C 216.3528 82.5239 216.9178 82.6329 217.3918 82.7429L217.3918 82.7429L217.3918 80.0629L217.3918 80.0629L215.9148 80.0629C 215.2948 80.0259 214.7478 80.0439 214.2748 80.1179L214.2748 80.1179L214.4388 79.6249C 214.6208 79.6609 214.8218 79.6799 215.0398 79.6799C 215.2588 79.7159 215.5138 79.7349 215.8058 79.7349L215.8058 79.7349L217.3918 79.7349L217.3918 79.7349L217.3918 76.7269C 216.1148 76.3619 215.0948 76.1609 214.3288 76.1249C 214.4748 75.6509 214.5838 75.3959 214.6578 75.3599C 214.6928 75.2139 214.7478 75.1409 214.8218 75.1409C 214.8938 75.1769 214.9488 75.2859 214.9858 75.4689L214.9858 75.4689L217.3918 76.2349L217.3918 76.2349L217.3918 72.8439C 217.3918 72.5529 217.2638 72.4069 217.0088 72.4069C 216.8258 72.3339 216.1338 72.3519 214.9308 72.4609L214.9308 72.4609L214.9308 72.2429C 216.0968 72.1329 216.6258 71.9879 216.5168 71.8049C 216.4798 71.6229 216.6078 71.5499 216.8998 71.5859C 217.7378 71.7319 218.1028 72.0969 217.9938 72.6799C 217.9198 73.0079 217.9018 73.2999 217.9388 73.5549L217.9388 73.5549L217.9388 76.3989L217.9388 76.3989L220.7828 77.2739L220.7828 77.2739L220.7278 77.4929L220.7278 77.4929L217.9388 76.8359L217.9388 76.8359L217.9388 79.7349L217.9388 79.7349L221.8758 79.7349C 222.0218 77.8389 222.3498 76.2529 222.8608 74.9769C 221.9118 74.0649 220.5818 73.2999 218.8688 72.6799L218.8688 72.6799L218.9778 72.4069C 220.6538 72.8809 222.0218 73.5729 223.0788 74.4849C 224.1728 72.6989 225.4488 71.6959 226.9078 71.4769C 227.0528 71.5139 227.1438 71.5859 227.1808 71.6959C 227.2538 71.8049 227.2358 71.8959 227.1258 71.9689C 226.8708 72.2249 226.7788 72.4429 226.8528 72.6249L226.8528 72.6249L226.9078 74.9219L226.9078 74.9219L226.6888 74.9219L226.6888 74.9219L226.3608 72.6799C 226.2868 72.4249 226.1598 72.3519 225.9778 72.4609C 224.8108 72.9719 224.0088 73.7739 223.5718 74.8679C 224.5188 75.8519 225.3398 76.9269 226.0328 78.0939C 226.1048 78.0569 226.1778 78.0389 226.2508 78.0389C 226.3968 78.0029 226.5058 77.9849 226.5788 77.9849C 226.6888 77.9849 226.7438 78.0029 226.7438 78.0389C 226.7438 78.1119 226.7068 78.2039 226.6338 78.3129C 226.3418 78.4579 225.9958 78.6219 225.5948 78.8049C 225.1928 77.7839 224.4278 76.6359 223.2978 75.3599C 222.8238 76.7079 222.5328 78.1669 222.4228 79.7349L222.4228 79.7349L227.0718 79.7349C 227.2898 79.7349 227.3448 79.8439 227.2358 80.0629C 227.1618 80.0989 227.0348 80.2079 226.8528 80.3909C 226.5968 80.7189 226.4148 80.9559 226.3058 81.1019L226.3058 81.1019L225.7588 80.0629L225.7588 80.0629L222.4228 80.0629C 222.3138 81.3019 222.2588 82.5419 222.2588 83.7819C 222.2948 83.7449 222.3498 83.7449 222.4228 83.7819C 222.4958 83.8179 222.5678 83.8359 222.6418 83.8359C 222.7868 83.8719 222.8608 83.9269 222.8608 83.9999C 222.8608 84.0729 222.7868 84.1279 222.6418 84.1639C 222.5328 84.1639 222.3318 84.1819 222.0398 84.2189C 221.7478 84.2549 221.5658 84.2919 221.4928 84.3279C 221.6028 83.9269 221.6578 83.5259 221.6578 83.1249zM223.6808 83.8909C 224.2638 83.4539 224.8648 82.9069 225.4858 82.2499C 225.8138 81.7759 226.0678 81.6489 226.2508 81.8679C 226.4328 82.0859 226.3418 82.3779 225.9778 82.7429C 225.3218 83.2159 224.6108 83.6529 223.8448 84.0549L223.8448 84.0549L223.6808 83.8909z" stroke="#000000" stroke-width="0.5" fill="none" /><path transform="matrix(1 0 0 -1 0 841)" d="M233.1636 83.0159L233.1636 80.5549L233.1636 80.5549L229.6636 79.8989L229.6636 79.8989L229.6636 82.3049C 229.6996 82.3049 229.7906 82.3229 229.9366 82.3599C 230.0466 82.3959 230.1366 82.4319 230.2106 82.4689C 230.2836 82.4689 230.3196 82.5049 230.3196 82.5789C 230.3196 82.6139 230.2836 82.6509 230.2106 82.6879C 230.1366 82.6879 229.7546 82.7429 229.0616 82.8519C 229.0976 82.4139 229.1166 81.9219 229.1166 81.3749L229.1166 81.3749L229.1166 79.7889L229.1166 79.7889L228.2416 79.6249C 227.6216 79.5159 227.1476 79.4609 226.8196 79.4609L226.8196 79.4609L227.1476 78.9689C 227.4766 79.1139 227.8586 79.2429 228.2966 79.3519L228.2966 79.3519L229.1166 79.5159L229.1166 79.5159L229.1166 73.4459C 228.9706 72.4609 229.5356 72.0059 230.8116 72.0779L230.8116 72.0779L237.4296 72.0779C 238.7776 72.0779 239.5976 72.2609 239.8906 72.6249C 240.0356 72.7709 240.0356 72.8989 239.8906 73.0079C 239.5976 73.0439 239.4706 73.3179 239.5076 73.8279L239.5076 73.8279L239.4526 75.7429L239.4526 75.7429L239.2336 75.7429L239.2336 75.7429L239.1246 73.7189C 239.0876 73.6459 239.0696 73.5909 239.0696 73.5549C 239.0336 73.1899 238.9786 72.9899 238.9056 72.9529C 238.8326 72.8439 238.5956 72.7709 238.1946 72.7349C 237.8296 72.6619 237.1186 72.6249 236.0616 72.6249L236.0616 72.6249L230.7576 72.6249C 229.9186 72.5889 229.5546 72.8439 229.6636 73.3909L229.6636 73.3909L229.6636 79.6249L229.6636 79.6249L233.1636 80.2269L233.1636 80.2269L233.1636 75.9069C 233.1636 75.3599 233.1446 74.9219 233.1086 74.5939C 233.1086 74.2289 233.0906 73.8459 233.0546 73.4459C 233.3826 73.5179 233.6186 73.6459 233.7656 73.8279C 233.6916 74.5569 233.6736 75.2139 233.7106 75.7969L233.7106 75.7969L233.7106 80.3909L233.7106 80.3909L237.5386 81.1019C 237.5016 79.1329 237.4476 77.8749 237.3746 77.3289C 237.3006 76.7449 237.1736 76.4349 236.9916 76.3989C 236.8086 76.2159 235.9886 76.2349 234.5306 76.4539L234.5306 76.4539L234.4756 76.2349C 235.6056 76.0519 236.0976 75.8699 235.9526 75.6879C 235.9526 75.5049 236.0796 75.4499 236.3356 75.5239C 237.1736 75.6689 237.6836 76.0339 237.8666 76.6179C 238.0116 76.9819 238.0856 78.4579 238.0856 81.0469C 238.2306 81.0829 238.3946 81.1749 238.5776 81.3209C 238.6866 81.3569 238.7046 81.4299 238.6326 81.5389C 238.3406 81.7579 238.0486 81.9579 237.7576 82.1409L237.7576 82.1409L237.2656 81.3749L237.2656 81.3749L233.7106 80.6639L233.7106 80.6639L233.7106 84.0549C 233.7836 84.0549 233.9476 84.1099 234.2026 84.2189C 234.2756 84.2189 234.3116 84.2549 234.3116 84.3279C 234.3116 84.3639 234.2756 84.4009 234.2026 84.4379C 234.0936 84.4379 233.8746 84.4559 233.5466 84.4929C 233.3276 84.5279 233.1816 84.5649 233.1086 84.6019C 233.1446 84.1279 233.1636 83.5989 233.1636 83.0159z" stroke="#000000" stroke-width="0.5" fill="none" /><path transform="matrix(1 0 0 -1 0 841)" d="M249.3186 84.38319C 249.9376 83.90919 250.4116 83.4712 250.7406 83.0702C 250.9946 82.7422 251.1956 82.68819 251.3416 82.9062C 251.5236 83.0522 251.4686 83.2892 251.1776 83.6172C 250.8856 83.8362 250.2836 84.1452 249.3726 84.5472L249.3726 84.5472L249.3186 84.38319zM244.8886 78.5862C 244.8516 77.4562 244.7976 76.5442 244.7246 75.8522C 244.6506 75.1222 244.5786 74.64819 244.5056 74.4302C 244.2866 73.7742 243.4116 73.6272 241.8806 73.9922L241.8806 73.9922L241.8256 73.82819C 242.7366 73.6092 243.1746 73.4272 243.1386 73.2812C 243.1386 73.0982 243.2656 73.0262 243.5216 73.06319C 244.3226 73.2082 244.8516 73.6272 245.1076 74.3202C 245.1436 74.5752 245.1976 75.0862 245.2716 75.8522C 245.3436 76.6172 245.4166 77.4732 245.4906 78.4222C 245.6356 78.4582 245.7816 78.5312 245.9276 78.6412C 246.0006 78.6412 246.0366 78.6772 246.0366 78.7502C 246.0366 78.78619 246.0006 78.84119 245.9276 78.9142C 245.8186 78.9872 245.5996 79.1512 245.2716 79.4062C 245.1616 79.47919 245.0886 79.5522 245.0526 79.6252L245.0526 79.6252L244.6696 78.9142L244.6696 78.9142L241.7166 78.9142C 241.6796 80.0442 241.6976 80.9732 241.7716 81.70319L241.7716 81.70319L247.2946 81.70319C 247.5136 79.2232 247.9516 77.0552 248.6076 75.1952C 247.6586 74.0282 246.4556 73.0982 244.9976 72.4062L244.9976 72.4062L245.1076 72.2422C 246.4926 72.7532 247.7506 73.5732 248.8806 74.70319C 249.9376 72.9902 251.1406 72.0062 252.4906 71.7502C 252.6356 71.7502 252.7266 71.8052 252.7636 71.9142C 252.7996 72.0242 252.7816 72.13319 252.7086 72.2422C 252.4536 72.3882 252.3436 72.60719 252.3806 72.8992L252.3806 72.8992L252.5446 75.1412L252.5446 75.1412L252.3806 75.1952L252.3806 75.1952L251.8886 73.00819C 251.8516 72.7892 251.7246 72.7342 251.5056 72.8442C 250.6666 73.1722 249.9196 73.93819 249.2636 75.1412C 250.1746 76.2342 250.8856 77.7472 251.3966 79.6802L251.3966 79.6802L251.8886 79.6802C 251.9976 79.6802 252.0706 79.6982 252.1076 79.7342C 252.1076 79.8072 252.0526 79.8802 251.9436 79.95319C 251.8336 79.9892 251.6506 80.0442 251.3966 80.1172C 251.2136 80.19019 251.0316 80.2632 250.8496 80.3362C 250.5576 78.4772 249.9376 76.9272 248.9906 75.68819C 248.4436 77.2552 248.0606 79.2602 247.8416 81.70319L247.8416 81.70319L252.4906 81.70319C 252.5996 81.6662 252.6726 81.6842 252.7086 81.75819C 252.7446 81.7942 252.7266 81.8672 252.6546 81.9772C 252.4356 82.1952 252.1076 82.5412 251.6696 83.0162L251.6696 83.0162L251.1776 81.9772L251.1776 81.9772L247.7866 81.9772C 247.6776 83.0702 247.6406 83.7632 247.6776 84.0552C 247.6776 84.0182 247.7506 84.03619 247.8966 84.1092C 248.0056 84.1452 248.0786 84.1642 248.1156 84.1642C 248.2606 84.2002 248.3336 84.2552 248.3336 84.32819C 248.3336 84.4012 248.2606 84.4562 248.1156 84.4922L248.1156 84.4922L247.5136 84.4922C 247.2216 84.5282 247.0216 84.5472 246.9116 84.5472C 246.9476 84.2552 247.0026 83.98119 247.0766 83.7272C 247.1116 83.03419 247.1666 82.4502 247.2406 81.9772L247.2406 81.9772L241.8806 81.9772L241.8806 81.9772L241.0606 82.8522C 241.0966 82.4142 241.1156 81.9032 241.1156 81.3202C 241.1506 78.2942 241.0606 76.2342 240.8416 75.1412C 240.6956 74.0832 240.2216 72.9902 239.4196 71.8592L239.4196 71.8592L239.5836 71.7502C 241.0416 73.1722 241.7526 75.4502 241.7166 78.5862L241.7166 78.5862L244.8886 78.5862z" stroke="#000000" stroke-width="0.5" fill="none" /><path transform="matrix(1 0 0 -1 0 841)" d="M262.7933 83.3987L254.8633 83.3987C 254.1703 83.36169 253.4053 83.3797 252.5663 83.4537L252.5663 83.4537L252.7853 82.8517C 253.4053 82.9967 254.0613 83.07069 254.7543 83.07069L254.7543 83.07069L262.9023 83.07069L262.9023 83.07069L259.0203 79.8987L259.0203 79.8987L258.3093 80.2817L258.3093 80.2817L258.3093 79.51569C 258.3453 79.2967 258.3633 79.04169 258.3633 78.75069L258.3633 78.75069L258.3633 72.7897C 258.3993 72.57069 258.2543 72.46069 257.9263 72.46069C 257.7073 72.4257 256.9413 72.4797 255.6293 72.62569L255.6293 72.62569L255.5743 72.3517C 256.7413 72.2427 257.2883 72.0607 257.2153 71.8047C 257.2153 71.6597 257.3243 71.58569 257.5433 71.58569C 258.6733 71.6597 259.1653 71.9687 259.0203 72.51569C 258.9463 73.09869 258.9283 73.44569 258.9653 73.5547L258.9653 73.5547L258.9653 79.57069C 259.4023 79.7897 260.8603 80.8097 263.3403 82.6327C 263.4493 82.7427 263.7233 82.7967 264.1603 82.7967C 264.3423 82.8327 264.3973 82.9427 264.3243 83.12569C 263.9233 83.4897 263.6133 83.7817 263.3953 84.00069L263.3953 84.00069L262.7933 83.3987z" stroke="#000000" stroke-width="0.5" fill="none" /><path transform="matrix(1 0 0 -1 0 841)" d="M272.9321 80.8284C 272.9681 80.0984 273.0051 79.5154 273.0421 79.0784L273.0421 79.0784L273.0421 72.8444C 273.0421 72.6624 272.9141 72.5704 272.6591 72.5704C 272.4401 72.5344 271.6921 72.5704 270.4171 72.6804L270.4171 72.6804L270.4171 72.4614C 271.4371 72.3514 271.9661 72.1694 272.0031 71.9144C 272.0391 71.8054 272.1481 71.7694 272.3311 71.8054C 273.2781 71.8054 273.7161 72.1334 273.6431 72.7894C 273.5701 73.2624 273.5521 73.6644 273.5891 73.9924L273.5891 73.9924L273.5891 80.3364C 273.7341 80.3364 273.8801 80.3724 274.0261 80.4454C 274.0991 80.4454 274.1531 80.4814 274.1901 80.5554C 274.1901 80.5904 274.1531 80.6274 274.0811 80.6644C 273.8981 80.7004 273.5151 80.7554 272.9321 80.8284zM264.7841 77.9844L264.9481 77.8754C 265.6041 78.6414 266.2061 79.5334 266.7531 80.5554L266.7531 80.5554L266.7531 73.9924C 266.7531 73.2994 266.7161 72.4984 266.6431 71.5864C 266.8981 71.6234 267.1531 71.6954 267.4091 71.8054C 267.3351 72.6074 267.3171 73.3364 267.3541 73.9924L267.3541 73.9924L267.3541 81.5394C 267.7551 82.3404 268.0831 83.0704 268.3391 83.7264L268.3391 83.7264L268.8851 83.7264C 268.9581 83.7264 268.9951 83.7624 268.9951 83.8364C 269.0311 83.8724 269.0131 83.9264 268.9401 84.0004C 268.5391 84.1454 268.1381 84.2914 267.7371 84.4374C 267.3351 82.6874 266.3511 80.5364 264.7841 77.9844zM274.9011 78.2034C 275.9951 76.5624 276.7601 75.1044 277.1981 73.8284C 277.2711 73.4634 277.4351 73.3364 277.6901 73.4454C 277.9821 73.5184 278.0541 73.8094 277.9091 74.3204C 277.2161 75.5964 276.2681 76.9264 275.0651 78.3124L275.0651 78.3124L274.9011 78.2034zM268.2841 73.0624L268.4481 73.0084C 269.5781 74.2834 270.4351 75.8514 271.0181 77.7114C 271.0541 77.6744 271.1461 77.6744 271.2921 77.7114C 271.4371 77.7474 271.5461 77.7664 271.6201 77.7664C 271.6921 77.7664 271.7291 77.8014 271.7291 77.8754C 271.7291 77.9484 271.6921 78.0024 271.6201 78.0394C 271.5461 78.0394 271.4371 78.0574 271.2921 78.0944C 270.8901 78.1664 270.6171 78.2394 270.4711 78.3124C 270.0701 76.4534 269.3411 74.7034 268.2841 73.0624zM268.6121 79.0784L268.7761 78.9694C 269.6141 79.7344 270.3981 80.7734 271.1281 82.0864L271.1281 82.0864L276.8151 82.0864L276.8151 82.0864L275.8851 79.8444L275.8851 79.8444L276.0491 79.7344C 276.4871 80.3544 276.8701 80.9924 277.1981 81.6484C 277.3071 81.8674 277.5441 81.9764 277.9091 81.9764C 278.0541 81.9764 278.0911 82.0494 278.0181 82.1954C 277.7261 82.4144 277.4171 82.6694 277.0891 82.9614L277.0891 82.9614L276.7061 82.3594L276.7061 82.3594L271.2371 82.3594C 271.5651 82.9064 271.8201 83.3984 272.0031 83.8364C 272.1851 83.8364 272.3311 83.8544 272.4401 83.8904C 272.5131 83.8904 272.5671 83.9084 272.6041 83.9454C 272.6041 84.0184 272.5671 84.0734 272.4951 84.1094C 272.0931 84.1824 271.7101 84.2554 271.3461 84.3284C 270.8351 82.5784 269.9241 80.8284 268.6121 79.0784z" stroke="#000000" stroke-width="0.5" fill="none" /><path transform="matrix(1 0 0 -1 0 841)" d="M283.6726 76.946L283.6726 72.571C 282.1416 72.644 280.9386 73.5 280.0636 75.141C 280.0996 75.432 280.1546 75.979 280.2276 76.782L280.2276 76.782L280.5556 76.782C 280.7006 76.817 280.7926 76.836 280.8296 76.836C 280.9016 76.836 280.9566 76.872 280.9936 76.946C 280.9936 77.018 280.9566 77.091 280.8836 77.164C 280.7376 77.164 280.6106 77.182 280.5006 77.219C 280.0996 77.292 279.8086 77.328 279.6256 77.328C 279.5896 76.708 279.5526 76.034 279.5166 75.305C 279.2616 73.919 278.5506 72.735 277.3836 71.75L277.3836 71.75L277.5476 71.532C 278.7516 72.371 279.5526 73.427 279.9546 74.703C 280.5006 73.573 281.2476 72.789 282.1966 72.352C 282.6696 72.133 283.4356 71.988 284.4936 71.914C 285.5136 71.842 287.0816 71.842 289.1966 71.914C 289.4156 71.951 289.5246 72.043 289.5246 72.188C 289.5246 72.334 289.8886 72.443 290.6186 72.516L290.6186 72.516L290.6186 72.735C 289.0866 72.625 287.8296 72.553 286.8446 72.516C 285.8236 72.48 284.9666 72.48 284.2746 72.516L284.2746 72.516L284.2746 75.524L284.2746 75.524L289.0866 75.524C 289.1596 75.524 289.1966 75.542 289.1966 75.578C 289.2326 75.614 289.2146 75.669 289.1416 75.743C 288.8496 76.034 288.4856 76.417 288.0476 76.891L288.0476 76.891L287.4466 75.852L287.4466 75.852L284.2746 75.852L284.2746 75.852L284.2746 77.875C 284.3836 77.875 284.5656 77.911 284.8216 77.985C 284.8936 77.985 284.9306 78.003 284.9306 78.039C 284.9306 78.112 284.8936 78.167 284.8216 78.203C 284.4196 78.313 284.0186 78.368 283.6186 78.368C 283.6546 77.675 283.6726 77.2 283.6726 76.946zM283.5636 83.18L283.5636 82.305L283.5636 82.305L280.6656 82.305C 280.3006 82.268 279.7536 82.305 279.0246 82.414L279.0246 82.414L279.2436 81.922C 279.8626 81.995 280.3366 82.032 280.6656 82.032L280.6656 82.032L283.5636 82.032L283.5636 82.032L283.5636 78.969L283.5636 78.969L279.2976 78.969C 278.8966 78.932 278.3316 78.95 277.6026 79.024L277.6026 79.024L277.8766 78.532C 278.4586 78.604 278.8966 78.641 279.1886 78.641L279.1886 78.641L290.1256 78.641C 290.1986 78.641 290.2356 78.659 290.2356 78.696C 290.2716 78.732 290.2536 78.805 290.1806 78.914C 289.8886 79.242 289.5426 79.589 289.1416 79.953L289.1416 79.953L288.4856 78.969L288.4856 78.969L284.1656 78.969L284.1656 78.969L284.1656 82.032L284.1656 82.032L289.0866 82.032C 289.1596 81.995 289.2146 82.013 289.2506 82.086C 289.2506 82.122 289.2326 82.196 289.1966 82.305L289.1966 82.305L288.2116 83.289L288.2116 83.289L287.5556 82.305L287.5556 82.305L284.1656 82.305L284.1656 82.305L284.1656 84.11C 284.3106 84.11 284.5296 84.146 284.8216 84.219C 284.8936 84.219 284.9306 84.255 284.9306 84.328C 284.9306 84.401 284.8936 84.456 284.8216 84.492C 284.6756 84.492 284.4746 84.51 284.2196 84.547C 283.8916 84.62 283.6546 84.675 283.5086 84.711C 283.5446 83.946 283.5636 83.435 283.5636 83.18z" stroke="#000000" stroke-width="0.5" fill="none" /><path transform="matrix(1 0 0 -1 0 841)" d="M291.7884 79.1879L291.0234 79.1879C 290.5854 79.1509 290.2024 79.1689 289.8744 79.2429L289.8744 79.2429L289.9844 78.8049C 290.2754 78.8779 290.6584 78.9139 291.1324 78.9139L291.1324 78.9139L292.0074 78.9139L292.0074 78.9139L292.0074 74.1569C 291.2414 73.6819 290.5304 73.2269 289.8744 72.7889C 289.9844 72.6069 290.1664 72.3889 290.4214 72.1329C 290.4574 72.0609 290.4944 72.0429 290.5304 72.0779C 290.5664 72.1149 290.6034 72.1879 290.6404 72.2969C 290.9314 72.8439 291.3324 73.2999 291.8434 73.6639C 292.0984 73.8459 292.3164 73.8639 292.4994 73.7189C 293.4104 72.9179 294.1954 72.4249 294.8514 72.2429C 295.8714 72.0609 298.1134 72.0059 301.5774 72.0779C 301.8694 72.1149 302.0514 72.2069 302.1244 72.3519C 302.1244 72.5709 302.4884 72.7349 303.2184 72.8439L303.2184 72.8439L303.2184 73.0079C 299.9374 72.6069 297.1844 72.5349 294.9604 72.7889C 294.0854 72.9359 293.2834 73.3719 292.5544 74.1019L292.5544 74.1019L292.5544 78.6959L292.5544 78.6959L292.7184 78.7499C 292.8634 78.7859 292.9914 78.8409 293.1014 78.9139C 293.2104 78.9869 293.2104 79.0599 293.1014 79.1329C 293.0644 79.1329 293.0094 79.1689 292.9374 79.2429C 292.7544 79.3879 292.4994 79.5889 292.1714 79.8439L292.1714 79.8439L291.7884 79.1879zM291.0234 83.8359C 291.4964 83.1069 291.8614 82.4319 292.1164 81.8129C 292.2624 81.2659 292.4804 81.0829 292.7734 81.2659C 293.0274 81.4849 293.0464 81.7939 292.8274 82.1959C 292.4994 82.7059 291.9524 83.3069 291.1874 83.9999L291.1874 83.9999L291.0234 83.8359zM295.0704 80.0629C 295.8354 78.7859 296.3094 77.7659 296.4914 76.9999C 296.6014 76.3439 296.8014 76.1249 297.0934 76.3439C 297.3844 76.4539 297.4394 76.7819 297.2574 77.3289C 296.8924 78.0209 296.2364 78.9869 295.2884 80.2269L295.2884 80.2269L295.0704 80.0629zM299.8824 83.0159L299.8824 81.7039L299.8824 81.7039L295.6164 81.7039C 295.1794 81.6669 294.6874 81.7039 294.1404 81.8129L294.1404 81.8129L294.2494 81.2659C 294.6504 81.3749 295.1604 81.4299 295.7804 81.4299L295.7804 81.4299L299.8824 81.4299L299.8824 81.4299L299.8824 74.9769C 300.2104 74.5029 299.3164 74.3929 297.2024 74.6489L297.2024 74.6489L297.2024 74.4299C 298.2964 74.2469 298.8614 74.0829 298.8984 73.9379C 298.8984 73.7919 298.9704 73.7369 299.1164 73.7739C 300.1014 73.8099 300.5564 74.1019 300.4844 74.6489C 300.4104 74.9769 300.3924 75.3959 300.4294 75.9069L300.4294 75.9069L300.4294 81.4299L300.4294 81.4299L302.9994 81.4299C 303.0724 81.3929 303.1094 81.3929 303.1094 81.4299C 303.1444 81.4659 303.1274 81.5389 303.0544 81.6489C 302.7264 82.1219 302.3984 82.5049 302.0704 82.7969L302.0704 82.7969L301.4684 81.7039L301.4684 81.7039L300.4294 81.7039L300.4294 81.7039L300.4294 83.9459C 300.4654 83.9459 300.5564 83.9819 300.7024 84.0549C 300.8124 84.1279 300.8844 84.1639 300.9214 84.1639C 300.9944 84.1999 301.0304 84.2369 301.0304 84.2739C 301.0304 84.3459 300.9944 84.4009 300.9214 84.4379L300.9214 84.4379L300.4294 84.4379C 300.1374 84.4739 299.9374 84.4929 299.8274 84.4929C 299.8634 84.0549 299.8824 83.5629 299.8824 83.0159z" stroke="#000000" stroke-width="0.5" fill="none" /><path transform="matrix(1 0 0 -1 0 841)" d="M307.1228 73.2816L303.7318 73.2816L303.7318 73.2816L303.7318 77.5476L303.7318 77.5476L307.1228 77.5476zM309.3648 79.1336C 310.0578 78.3306 310.6778 77.4376 311.2248 76.4536C 311.4068 76.0516 311.6258 75.9246 311.8808 76.0706C 312.0998 76.1796 312.0998 76.4536 311.8808 76.8906C 311.4068 77.5836 310.6038 78.3856 309.4748 79.2976L309.4748 79.2976L309.3648 79.1336zM307.1228 77.8756L303.7318 77.8756L303.7318 77.8756L303.7318 81.7586L303.7318 81.7586L307.1228 81.7586zM308.1078 79.3516L308.3258 79.1876C 308.7638 79.7346 309.2738 80.5726 309.8578 81.7036L309.8578 81.7036L314.4508 81.7036C 314.2678 77.3286 314.0688 74.5946 313.8498 73.5006C 313.7758 72.9176 313.5028 72.5706 313.0288 72.4616C 312.5918 72.3156 311.6798 72.3336 310.2948 72.5156L310.2948 72.5156L310.2398 72.2426C 311.4788 72.0976 312.0628 71.9516 311.9898 71.8046C 312.0628 71.5866 312.2268 71.4956 312.4828 71.5316C 313.6118 71.7146 314.2678 72.3336 314.4508 73.3906C 314.6328 74.4116 314.8338 77.1276 315.0528 81.5396C 315.0888 81.5026 315.2528 81.5576 315.5448 81.7036C 315.7268 81.7766 315.7448 81.9036 315.5998 82.0866C 315.3808 82.2686 315.0528 82.5046 314.6148 82.7976L314.6148 82.7976L314.1778 81.9766L314.1778 81.9766L309.9668 81.9766C 310.3678 82.8156 310.6228 83.4716 310.7328 83.9456C 310.8778 83.8726 311.0238 83.8726 311.1698 83.9456C 311.2428 83.9456 311.2968 83.9636 311.3338 84.0006C 311.3338 84.0726 311.2968 84.1456 311.2248 84.2196C 310.9328 84.3286 310.5858 84.4376 310.1858 84.5476C 309.8578 82.9066 309.1648 81.1746 308.1078 79.3516zM304.8808 82.0316L303.9508 82.0316L303.9508 82.0316L303.1308 82.9616C 303.1668 82.3406 303.1858 81.7766 303.1858 81.2656L303.1858 81.2656L303.1858 73.6646C 303.1858 73.0806 303.1668 72.4066 303.1308 71.6406C 303.3498 71.6776 303.5498 71.7506 303.7328 71.8596L303.7328 71.8596L303.7328 73.0086L303.7328 73.0086L307.1228 73.0086L307.1228 73.0086L307.1228 71.7506C 307.3418 71.7146 307.5418 71.7506 307.7248 71.8596C 307.6878 72.5156 307.6698 72.9906 307.6698 73.2816L307.6698 73.2816L307.6698 73.8286L307.6698 73.8286L307.6698 81.5946C 307.8518 81.6666 308.0158 81.7586 308.1618 81.8676C 308.2718 81.9036 308.2718 82.0126 308.1618 82.1956C 308.0528 82.2316 308.0158 82.2506 308.0528 82.2506C 307.6148 82.5786 307.3228 82.7786 307.1778 82.8516L307.1778 82.8516L306.8498 82.0316L306.8498 82.0316L305.1538 82.0316C 305.2638 82.3956 305.4458 83.0156 305.7008 83.8906C 305.6648 83.8546 305.6828 83.9086 305.7558 84.0546C 305.9378 84.0186 306.1198 84.0366 306.3028 84.1096C 306.3758 84.1096 306.4118 84.1456 306.4118 84.2196C 306.4118 84.2916 306.3758 84.3466 306.3028 84.3836C 306.1928 84.3836 306.0648 84.4016 305.9198 84.4376C 305.5548 84.5476 305.2818 84.6196 305.0998 84.6566C 305.0998 83.9266 305.0258 83.0516 304.8808 82.0316z" stroke="#000000" stroke-width="0.5" fill="none" /><path transform="matrix(1 0 0 -1 0 841)" d="M319.2856 80.1172L316.3876 80.1172L316.3876 80.1172L316.3876 83.1252L316.3876 83.1252L319.2856 83.1252zM315.8946 82.5242L315.8946 80.6092C 315.8946 80.2812 315.8766 79.8252 315.8406 79.2422C 316.0226 79.2422 316.2046 79.31519 316.3866 79.4612L316.3866 79.4612L316.3866 79.8442L316.3866 79.8442L317.7546 79.8442L317.7546 79.8442L317.7546 73.1722L317.7546 73.1722L316.1686 73.00819L316.1686 73.00819L316.1686 77.8202L316.1686 77.8202L316.3866 77.8202C 316.4966 77.85619 316.5696 77.8752 316.6056 77.8752C 316.6786 77.8752 316.7156 77.91119 316.7156 77.9842C 316.7156 78.0572 316.6786 78.1122 316.6056 78.14819C 316.3136 78.2212 315.9856 78.2942 315.6216 78.3672C 315.6576 77.6022 315.6766 77.0732 315.6766 76.7812L315.6766 76.7812L315.6766 73.00819C 315.5666 72.9722 315.3836 72.95319 315.1296 72.95319C 315.2386 72.5892 315.3476 72.2972 315.4576 72.07819C 315.4936 72.0062 315.5476 71.9882 315.6216 72.02319C 315.6576 72.0602 315.6946 72.1522 315.7306 72.2972L315.7306 72.2972L320.6526 73.4452L320.6526 73.4452L320.6526 73.6642L320.6526 73.6642L318.2466 73.2812L318.2466 73.2812L318.2466 76.8912L318.2466 76.8912L320.1606 76.8912C 320.2336 76.85419 320.2696 76.85419 320.2696 76.8912C 320.3056 76.9272 320.3056 77.0002 320.2696 77.1092C 320.0146 77.3642 319.8506 77.5282 319.7776 77.6022C 319.6686 77.67419 319.5766 77.7662 319.5046 77.8752L319.5046 77.8752L319.0666 77.1642L319.0666 77.1642L318.2466 77.1642L318.2466 77.1642L318.2466 79.8442L318.2466 79.8442L319.2856 79.8442L319.2856 79.8442L319.2856 79.3522C 319.5046 79.3522 319.7046 79.4062 319.8876 79.5162C 319.8136 80.06319 319.7956 80.5002 319.8326 80.82819L319.8326 80.82819L319.8326 83.0702C 319.9776 83.10619 320.1416 83.16119 320.3246 83.2342C 320.4696 83.2702 320.4886 83.3622 320.3796 83.50819C 320.1236 83.7272 319.8136 83.9272 319.4496 84.1092L319.4496 84.1092L319.1216 83.3992L319.1216 83.3992L316.6606 83.3992L316.6606 83.3992L315.8406 84.2192C 315.8766 83.2702 315.8946 82.7062 315.8946 82.5242zM326.2306 72.7342L321.6916 72.7342L321.6916 72.7342L321.6916 75.9062L321.6916 75.9062L326.2306 75.9062zM326.0116 76.1802L321.8556 76.1802L321.8556 76.1802L321.0906 76.7812L321.0906 76.7812L321.0906 75.3052L321.0906 75.3052L321.0906 75.1412L321.0906 75.1412L321.0906 73.1722C 321.0906 72.95319 321.0716 72.42519 321.0356 71.5862C 321.2546 71.55019 321.4726 71.5862 321.6916 71.6952L321.6916 71.6952L321.6916 72.4612L321.6916 72.4612L326.2306 72.4612L326.2306 72.4612L326.2306 71.4772C 326.3766 71.5132 326.5766 71.5862 326.8326 71.6952C 326.7586 72.42519 326.7406 72.9172 326.7776 73.1722L326.7776 73.1722L326.7776 75.7972C 326.9226 75.87019 327.0696 75.9422 327.2156 76.0162C 327.2876 76.0162 327.3246 76.03419 327.3246 76.0702C 327.3246 76.1432 327.3056 76.1982 327.2696 76.2342C 327.2336 76.2342 327.1786 76.2522 327.1056 76.2892C 326.7776 76.5812 326.5406 76.7812 326.3946 76.8912L326.3946 76.8912L326.0116 76.1802zM326.2306 82.68819C 325.6476 81.4842 324.9546 80.4632 324.1526 79.6252C 323.4226 80.3172 322.8036 81.2662 322.2936 82.4692L322.2936 82.4692L322.3476 82.57819L322.3476 82.57819L322.4576 82.68819L322.4576 82.68819L326.2306 82.68819zM320.3246 80.3362L320.5436 80.1722C 321.0536 80.6822 321.5826 81.35619 322.1296 82.1952C 322.4206 81.1382 322.9676 80.1532 323.7696 79.2422C 322.8216 78.4032 321.7276 77.6382 320.4886 76.9452L320.4886 76.9452L320.5976 76.7272C 321.7646 77.2002 322.9496 77.91119 324.1526 78.8592C 325.1366 77.9842 326.1946 77.38319 327.3246 77.0552C 327.5436 76.98119 327.6706 77.03619 327.7076 77.2192C 327.6706 77.43819 327.9076 77.5472 328.4186 77.5472L328.4186 77.5472L328.4186 77.7662C 326.9966 77.8022 325.7016 78.2942 324.5356 79.2422C 325.4836 80.2272 326.2856 81.3382 326.9416 82.57819C 327.1236 82.5412 327.2696 82.5592 327.3796 82.63319C 327.4516 82.63319 327.5066 82.6512 327.5436 82.68819C 327.5436 82.7602 327.5246 82.8332 327.4886 82.9062C 327.2336 83.0882 326.9226 83.3252 326.5586 83.6172L326.5586 83.6172L326.1766 82.9612L326.1766 82.9612L322.6216 82.9612C 322.6576 83.0702 322.7486 83.2522 322.8946 83.50819C 323.0406 83.7272 323.1496 83.90919 323.2226 84.0552L323.2226 84.0552L323.7156 84.0552C 323.7876 84.0552 323.8246 84.09119 323.8246 84.1642C 323.8246 84.2372 323.7876 84.2912 323.7156 84.32819C 323.4226 84.43819 323.0766 84.5472 322.6766 84.6562C 322.0926 83.0522 321.3086 81.6122 320.3246 80.3362z" stroke="#000000" stroke-width="0.5" fill="none" /><path transform="matrix(1 0 0 -1 0 841)" d="M332.7054 73.6644C 332.5964 74.8674 331.9764 75.5054 330.8464 75.5784C 329.6794 75.5054 329.0414 74.8674 328.9324 73.6644C 329.0414 72.5344 329.6794 71.9334 330.8464 71.8594C 331.9764 71.9334 332.5964 72.5344 332.7054 73.6644zM332.4324 73.6644C 332.3594 72.7534 331.8304 72.2614 330.8464 72.1874C 329.8254 72.2614 329.2784 72.7534 329.2054 73.6644C 329.2784 74.6484 329.8254 75.1764 330.8464 75.2504C 331.8304 75.1764 332.3594 74.6484 332.4324 73.6644z" stroke="#000000" stroke-width="0.5" fill="none" /><path transform="matrix(1 0 0 -1 0 841)" d="M342.4658 72.0237C 342.2828 71.8787 342.3018 71.7327 342.5208 71.5867L342.5208 71.5867L346.8408 71.5867L346.8408 71.5867L346.8408 84.1097C 346.6948 84.3287 346.5488 84.3287 346.4038 84.1097L346.4038 84.1097L346.4038 72.0237L346.4038 72.0237L342.4658 72.0237z" stroke="#000000" stroke-width="0.5" fill="none" /></g><path transform="matrix(1 0 0 -1 0 841)" d="M846.142 561.886L1106.095 561.886L1106.095 561.886L1106.095 756.851L1106.095 756.851L846.142 756.851z" stroke="none" fill="#D1D3D4" fill-rule="winding" /><g clip-path="url(#3)"><g transform="matrix(0.4999096 0 0 0.4999097 846.1417 84.14954)"><g transform="matrix(1 0 0 1 0 0)"><image x="0" y="0" xlink:href="img_14.png" width="520" height="390" /></g></g></g><path transform="matrix(1 0 0 -1 0 841)" d="M845.559 111.177L1105.512 111.177L1105.512 111.177L1105.512 306.142L1105.512 306.142L845.559 306.142z" stroke="none" fill="#D1D3D4" fill-rule="winding" /><g clip-path="url(#4)"><g transform="matrix(0.4999096 0 0 0.4999097 845.5588 534.8583)"><g transform="matrix(1 0 0 1 0 0)"><image x="0" y="0" xlink:href="img_15.png" width="520" height="390" /></g></g></g><path transform="matrix(1 0 0 -1 0 841)" d="M845.559 336.75L1104.929 336.75L1104.929 336.75L1104.929 531.278L1104.929 531.278L845.559 531.278z" stroke="none" fill="#D1D3D4" fill-rule="winding" /><g clip-path="url(#5)"><g transform="matrix(0.4991058 0 0 0.4987886 844.4781 309.7225)"><g transform="matrix(1 0 0 1 0 0)"><image x="0" y="0" xlink:href="img_16.png" width="524" height="390" /></g></g></g><g clip-path="url(#6)"><g transform="matrix(0.4989766 0 0 0.4989766 85.18356 199.1714)"><g transform="matrix(1 0 0 1 0 0)"><image x="0" y="0" xlink:href="img_17.png" width="410" height="410" /></g></g></g><g transform="matrix(0.4989072 0 0 0.4989072 305.2437 199.4351)"><g transform="matrix(1 0 0 1 0 0)"><image x="0" y="0" xlink:href="img_18.png" width="409" height="409" /></g></g><g transform="matrix(0.4990658 0 0 0.4990658 84.91577 427.2245)"><g transform="matrix(1 0 0 1 0 0)"><image x="0" y="0" xlink:href="img_19.png" width="411" height="411" /></g></g><g clip-path="url(#7)"><g transform="matrix(0.4990658 0 0 0.4990658 305.2437 427.2245)"><g transform="matrix(1 0 0 1 0 0)"><image x="0" y="0" xlink:href="img_20.png" width="411" height="411" /></g></g></g><path transform="matrix(1 0 0 -1 0 841)" d="M44.551 785.338L56.551 785.338L56.551 785.338L56.551 819.354L56.551 819.354L44.551 819.354z" stroke="#FFFFFE" stroke-width="0.283" fill="#65C8CE" fill-rule="winding" /></g></g></g></svg>